<?xml version="1.0" encoding="utf-8"?>
<!-- Generator: Adobe Illustrator 28.1.0, SVG Export Plug-In . SVG Version: 6.00 Build 0)  -->
<svg version="1.1" id="Layer_1" xmlns="http://www.w3.org/2000/svg" xmlns:xlink="http://www.w3.org/1999/xlink" x="0px" y="0px"
	 viewBox="0 0 588 527" style="enable-background:new 0 0 588 527;" xml:space="preserve">
<style type="text/css">
	.st0{fill:url(#SVGID_1_);}
	.st1{fill:#181C31;}
	.st2{fill:#292E45;}
	.st3{fill:#77F28A;}
	.st4{fill:#EF5C00;}
	.st5{fill:#FFDB26;}
	.st6{clip-path:url(#SVGID_00000177444970384077610930000001339060887391270838_);fill:#2F80ED;}
	.st7{clip-path:url(#SVGID_00000177444970384077610930000001339060887391270838_);fill:#219653;}
	.st8{clip-path:url(#SVGID_00000177444970384077610930000001339060887391270838_);fill:#EB5757;}
	.st9{clip-path:url(#SVGID_00000177444970384077610930000001339060887391270838_);fill:#FFFFFF;}
	.st10{fill:none;stroke:#FFFFFF;stroke-width:0.5;stroke-opacity:5.000000e-02;}
	.st11{clip-path:url(#SVGID_00000157273523233658891250000001175933618816003510_);fill:#FFFFFF;fill-opacity:0.1;}
	.st12{clip-path:url(#SVGID_00000157273523233658891250000001175933618816003510_);fill:#5D657B;}
	
		.st13{opacity:5.000000e-02;clip-path:url(#SVGID_00000157273523233658891250000001175933618816003510_);fill:url(#SVGID_00000128456122025373062670000001682046175370701459_);enable-background:new    ;}
	
		.st14{opacity:5.000000e-02;clip-path:url(#SVGID_00000157273523233658891250000001175933618816003510_);fill:url(#SVGID_00000126286360409794964960000001151205370779599258_);enable-background:new    ;}
	
		.st15{opacity:0.1;clip-path:url(#SVGID_00000157273523233658891250000001175933618816003510_);fill:#8F92A1;enable-background:new    ;}
	.st16{clip-path:url(#SVGID_00000157273523233658891250000001175933618816003510_);}
	.st17{fill-rule:evenodd;clip-rule:evenodd;fill:#2F80ED;}
	.st18{fill-rule:evenodd;clip-rule:evenodd;fill:#F2994A;}
	.st19{fill:#2F80ED;}
	.st20{fill-rule:evenodd;clip-rule:evenodd;fill:#FFFFFF;}
</style>
<linearGradient id="SVGID_1_" gradientUnits="userSpaceOnUse" x1="876" y1="341.8898" x2="876" y2="-158.1102" gradientTransform="matrix(-1 0 0 1 1170 158.1102)">
	<stop  offset="0" style="stop-color:#252A42;stop-opacity:0"/>
	<stop  offset="1" style="stop-color:#24283E"/>
</linearGradient>
<path class="st0" d="M580,500H8c-4.4,0-8-3.6-8-8V8c0-4.4,3.6-8,8-8h572c4.4,0,8,3.6,8,8v484C588,496.4,584.4,500,580,500z"/>
<path class="st1" d="M103.3,68.3h340.4c1.3,0,2.6,0.5,3.5,1.5c0.9,0.9,1.5,2.2,1.5,3.5v20.2H98.3V73.3c0-1.3,0.5-2.6,1.5-3.5
	C100.7,68.9,102,68.3,103.3,68.3L103.3,68.3z"/>
<g>
	<path class="st2" d="M98,93h350v322.2c0,1.3-0.5,2.5-1.5,3.4c-0.9,0.9-2.2,1.4-3.5,1.4H103c-1.3,0-2.6-0.5-3.5-1.4
		c-0.9-0.9-1.5-2.1-1.5-3.4V93z"/>
</g>
<path class="st3" d="M137.1,83.7c1.4,0,2.5-1.1,2.5-2.5s-1.1-2.5-2.5-2.5c-1.4,0-2.5,1.1-2.5,2.5S135.8,83.7,137.1,83.7z"/>
<path class="st4" d="M119.2,83.7c1.4,0,2.5-1.1,2.5-2.5s-1.1-2.5-2.5-2.5s-2.5,1.1-2.5,2.5S117.8,83.7,119.2,83.7z"/>
<path class="st5" d="M128,83.7c1.4,0,2.5-1.1,2.5-2.5s-1.1-2.5-2.5-2.5c-1.4,0-2.5,1.1-2.5,2.5S126.6,83.7,128,83.7z"/>
<g>
	<defs>
		<rect id="SVGID_00000127030411200180425240000014182667937473133232_" x="128" y="131" width="290.7" height="250"/>
	</defs>
	<clipPath id="SVGID_00000017511962352465498000000018301915619136859810_">
		<use xlink:href="#SVGID_00000127030411200180425240000014182667937473133232_"  style="overflow:visible;"/>
	</clipPath>
	<path style="clip-path:url(#SVGID_00000017511962352465498000000018301915619136859810_);fill:#2F80ED;" d="M133.2,168.4
		c2.1,0,3.9-1.7,3.9-3.9c0-2.1-1.7-3.9-3.9-3.9c-2.1,0-3.9,1.7-3.9,3.9C129.3,166.7,131,168.4,133.2,168.4z"/>
	<path style="clip-path:url(#SVGID_00000017511962352465498000000018301915619136859810_);fill:#219653;" d="M143.1,166.9h0.7v-1.8
		h1.8v-0.7h-1.8v-1.8h-0.7v1.8h-1.8v0.7h1.8V166.9z M146.8,168h4.1v-0.7h-3.1v-0.1l1.5-1.6c1.1-1.2,1.5-1.8,1.5-2.5
		c0-1-0.8-1.8-2-1.8c-1.2,0-2,0.8-2,1.9h0.8c0-0.7,0.5-1.2,1.2-1.2c0.7,0,1.3,0.4,1.3,1.1c0,0.6-0.4,1.1-1.1,1.9l-2.2,2.4V168z
		 M154.4,168.1c1.3,0,2.2-0.9,2.2-2.2c0-1.3-0.9-2.2-2.1-2.2c-0.4,0-0.9,0.2-1.1,0.4h0l0.2-1.9h2.7v-0.7h-3.4l-0.4,3.2l0.7,0.1
		c0.3-0.2,0.7-0.3,1.1-0.3c0.8,0,1.5,0.6,1.5,1.5c0,0.8-0.6,1.5-1.4,1.5c-0.7,0-1.2-0.4-1.3-1h-0.8
		C152.4,167.4,153.2,168.1,154.4,168.1z M158.1,168.1c0.3,0,0.6-0.3,0.6-0.6c0-0.3-0.3-0.6-0.6-0.6c-0.3,0-0.6,0.3-0.6,0.6
		C157.6,167.8,157.8,168.1,158.1,168.1z M162,168.1c1.3,0,2.2-0.9,2.2-2.2c0-1.3-0.9-2.2-2.1-2.2c-0.4,0-0.9,0.2-1.1,0.4h0l0.2-1.9
		h2.7v-0.7h-3.4l-0.4,3.2l0.7,0.1c0.3-0.2,0.7-0.3,1.1-0.3c0.8,0,1.5,0.6,1.5,1.5c0,0.8-0.6,1.5-1.4,1.5c-0.7,0-1.2-0.4-1.3-1H160
		C160,167.4,160.9,168.1,162,168.1z M167.5,168.1c1.3,0,2.2-0.9,2.2-2.2c0-1.3-0.9-2.2-2.1-2.2c-0.4,0-0.9,0.2-1.1,0.4h0l0.2-1.9
		h2.7v-0.7H166l-0.4,3.2l0.7,0.1c0.3-0.2,0.7-0.3,1.1-0.3c0.8,0,1.5,0.6,1.5,1.5c0,0.8-0.6,1.5-1.4,1.5c-0.7,0-1.2-0.4-1.3-1h-0.8
		C165.5,167.4,166.4,168.1,167.5,168.1z M174.3,166.8c0,0.7,0.4,1.3,1.3,1.3c0.8,0,1.3-0.6,1.3-1.3v-0.3c0-0.7-0.4-1.3-1.3-1.3
		c-0.8,0-1.3,0.6-1.3,1.3V166.8z M171,163c0,0.7,0.4,1.3,1.3,1.3c0.8,0,1.3-0.6,1.3-1.3v-0.3c0-0.7-0.4-1.3-1.3-1.3
		c-0.8,0-1.3,0.6-1.3,1.3V163z M171.3,168h0.7l4.5-6.6h-0.7L171.3,168z M175,166.4c0-0.4,0.2-0.8,0.6-0.8c0.5,0,0.6,0.4,0.6,0.8v0.3
		c0,0.4-0.2,0.8-0.6,0.8c-0.5,0-0.6-0.4-0.6-0.8V166.4z M171.7,162.7c0-0.4,0.2-0.8,0.6-0.8c0.5,0,0.6,0.4,0.6,0.8v0.3
		c0,0.4-0.2,0.8-0.6,0.8c-0.5,0-0.6-0.4-0.6-0.8V162.7z"/>
	<path style="clip-path:url(#SVGID_00000017511962352465498000000018301915619136859810_);fill:#EB5757;" d="M264.3,168.4
		c2.1,0,3.9-1.7,3.9-3.9c0-2.1-1.7-3.9-3.9-3.9c-2.1,0-3.9,1.7-3.9,3.9C260.4,166.7,262.2,168.4,264.3,168.4z"/>
	<path style="clip-path:url(#SVGID_00000017511962352465498000000018301915619136859810_);fill:#219653;" d="M273.4,166.4h0.7v-1.8
		h1.8v-0.7h-1.8v-1.8h-0.7v1.8h-1.8v0.7h1.8V166.4z M277.2,166.2h3.1v1.3h0.8v-1.3h0.9v-0.7h-0.9V161h-1l-2.9,4.6V166.2z
		 M280.3,165.5h-2.2v-0.1l2.2-3.5h0.1V165.5z M285.3,167.6c1.3,0,2.2-0.9,2.2-2.2c0-1.3-0.9-2.2-2.1-2.2c-0.4,0-0.9,0.2-1.1,0.4h0
		l0.2-1.9h2.7V161h-3.4l-0.4,3.2l0.7,0.1c0.3-0.2,0.7-0.3,1.1-0.3c0.8,0,1.5,0.6,1.5,1.5c0,0.8-0.6,1.5-1.4,1.5
		c-0.7,0-1.2-0.4-1.3-1h-0.8C283.3,166.9,284.1,167.6,285.3,167.6z M289,167.6c0.3,0,0.6-0.3,0.6-0.6c0-0.3-0.3-0.6-0.6-0.6
		c-0.3,0-0.6,0.3-0.6,0.6C288.4,167.3,288.7,167.6,289,167.6z M292.9,167.6c1.3,0,2.2-0.9,2.2-2.2c0-1.3-0.9-2.2-2.1-2.2
		c-0.4,0-0.9,0.2-1.1,0.4h0l0.2-1.9h2.7V161h-3.4l-0.4,3.2l0.7,0.1c0.3-0.2,0.7-0.3,1.1-0.3c0.8,0,1.5,0.6,1.5,1.5
		c0,0.8-0.6,1.5-1.4,1.5c-0.7,0-1.2-0.4-1.3-1h-0.8C290.9,166.9,291.7,167.6,292.9,167.6z M298.4,167.6c1.3,0,2.2-0.9,2.2-2.2
		c0-1.3-0.9-2.2-2.1-2.2c-0.4,0-0.9,0.2-1.1,0.4h0l0.2-1.9h2.7V161h-3.4l-0.4,3.2l0.7,0.1c0.3-0.2,0.7-0.3,1.1-0.3
		c0.8,0,1.5,0.6,1.5,1.5c0,0.8-0.6,1.5-1.4,1.5c-0.7,0-1.2-0.4-1.3-1h-0.8C296.4,166.9,297.2,167.6,298.4,167.6z M305.2,166.3
		c0,0.7,0.4,1.3,1.3,1.3c0.8,0,1.3-0.6,1.3-1.3V166c0-0.7-0.4-1.3-1.3-1.3c-0.8,0-1.3,0.6-1.3,1.3V166.3z M301.9,162.6
		c0,0.7,0.5,1.3,1.3,1.3c0.8,0,1.3-0.6,1.3-1.3v-0.3c0-0.7-0.4-1.3-1.3-1.3c-0.8,0-1.3,0.6-1.3,1.3V162.6z M302.1,167.6h0.7l4.5-6.6
		h-0.7L302.1,167.6z M305.8,166c0-0.4,0.2-0.8,0.6-0.8c0.5,0,0.6,0.4,0.6,0.8v0.3c0,0.4-0.2,0.8-0.6,0.8c-0.5,0-0.6-0.4-0.6-0.8V166
		z M302.5,162.2c0-0.4,0.2-0.8,0.6-0.8c0.5,0,0.6,0.4,0.6,0.8v0.3c0,0.4-0.2,0.8-0.6,0.8c-0.5,0-0.6-0.4-0.6-0.8V162.2z"/>
	<path style="clip-path:url(#SVGID_00000017511962352465498000000018301915619136859810_);fill:#219653;" d="M315.7,162.5l-1.2-1
		c-0.3-0.2-0.7-0.2-0.9,0l-1.2,1c-0.1,0.1-0.2,0.4,0,0.5c0.1,0.1,0.4,0.2,0.5,0l0.8-0.7v7.1c0,0.2,0.1,0.4,0.4,0.4
		c0.2,0,0.4-0.1,0.4-0.4v-7l0.8,0.7c0,0,0.1,0.1,0.2,0.1c0.1,0,0.2,0,0.3-0.1C315.9,162.9,315.9,162.6,315.7,162.5z"/>
	<path style="clip-path:url(#SVGID_00000017511962352465498000000018301915619136859810_);fill:#FFFFFF;" d="M130.7,363
		c-0.4,0-0.7-0.1-1-0.2s-0.5-0.4-0.7-0.6c-0.2-0.3-0.3-0.6-0.3-0.9h0.8c0,0.3,0.2,0.5,0.4,0.7c0.2,0.2,0.5,0.3,0.9,0.3
		c0.3,0,0.5-0.1,0.7-0.2c0.2-0.1,0.4-0.3,0.5-0.5c0.1-0.2,0.2-0.5,0.2-0.8c0-0.3-0.1-0.5-0.2-0.8c-0.1-0.2-0.3-0.4-0.5-0.5
		c-0.2-0.1-0.5-0.2-0.7-0.2c-0.2,0-0.4,0-0.6,0.1c-0.2,0.1-0.4,0.1-0.5,0.2l-0.7-0.1l0.4-3.2h3.4v0.7h-2.7l-0.2,1.9h0
		c0.1-0.1,0.3-0.2,0.5-0.3c0.2-0.1,0.4-0.1,0.6-0.1c0.4,0,0.8,0.1,1.1,0.3c0.3,0.2,0.6,0.5,0.7,0.8c0.2,0.3,0.3,0.7,0.3,1.1
		c0,0.4-0.1,0.8-0.3,1.1c-0.2,0.3-0.4,0.6-0.8,0.8C131.5,362.9,131.2,363,130.7,363z M136.3,363c-0.7,0-1.3-0.3-1.7-0.9
		c-0.4-0.6-0.6-1.4-0.6-2.5c0-1.1,0.2-1.9,0.6-2.5c0.4-0.6,1-0.9,1.7-0.9c0.7,0,1.3,0.3,1.7,0.9c0.4,0.6,0.6,1.4,0.6,2.5
		c0,1.1-0.2,1.9-0.6,2.5C137.6,362.7,137.1,363,136.3,363z M136.3,362.2c0.5,0,0.9-0.2,1.1-0.7c0.3-0.5,0.4-1.1,0.4-2
		c0-0.9-0.1-1.5-0.4-2c-0.3-0.5-0.6-0.7-1.1-0.7c-0.5,0-0.8,0.2-1.1,0.7c-0.3,0.5-0.4,1.1-0.4,2c0,0.9,0.1,1.5,0.4,2
		C135.5,362,135.9,362.2,136.3,362.2z"/>
	<path style="clip-path:url(#SVGID_00000017511962352465498000000018301915619136859810_);fill:#FFFFFF;" d="M131,315.6v6.6h-0.8
		v-5.7h0l-1.6,1.1v-0.8l1.6-1.1H131z M135,322.3c-0.7,0-1.3-0.3-1.7-0.9c-0.4-0.6-0.6-1.4-0.6-2.5c0-1.1,0.2-1.9,0.6-2.5
		c0.4-0.6,1-0.9,1.7-0.9s1.3,0.3,1.7,0.9c0.4,0.6,0.6,1.4,0.6,2.5c0,1.1-0.2,1.9-0.6,2.5C136.3,322,135.8,322.3,135,322.3z
		 M135,321.5c0.5,0,0.9-0.2,1.1-0.7c0.3-0.5,0.4-1.1,0.4-2c0-0.9-0.1-1.5-0.4-2c-0.3-0.5-0.6-0.7-1.1-0.7s-0.8,0.2-1.1,0.7
		c-0.3,0.5-0.4,1.1-0.4,2c0,0.9,0.1,1.5,0.4,2C134.2,321.3,134.6,321.5,135,321.5z M140.7,322.3c-0.7,0-1.3-0.3-1.7-0.9
		c-0.4-0.6-0.6-1.4-0.6-2.5c0-1.1,0.2-1.9,0.6-2.5c0.4-0.6,1-0.9,1.7-0.9c0.7,0,1.3,0.3,1.7,0.9c0.4,0.6,0.6,1.4,0.6,2.5
		c0,1.1-0.2,1.9-0.6,2.5C142,322,141.4,322.3,140.7,322.3z M140.7,321.5c0.5,0,0.9-0.2,1.1-0.7c0.3-0.5,0.4-1.1,0.4-2
		c0-0.9-0.1-1.5-0.4-2c-0.3-0.5-0.6-0.7-1.1-0.7c-0.5,0-0.8,0.2-1.1,0.7c-0.3,0.5-0.4,1.1-0.4,2c0,0.9,0.1,1.5,0.4,2
		C139.8,321.3,140.2,321.5,140.7,321.5z"/>
	<path style="clip-path:url(#SVGID_00000017511962352465498000000018301915619136859810_);fill:#FFFFFF;" d="M131,274.9v6.6h-0.8
		v-5.7h0l-1.6,1.1V276l1.6-1.1H131z M134.9,281.6c-0.4,0-0.7-0.1-1-0.2c-0.3-0.2-0.5-0.4-0.7-0.6c-0.2-0.3-0.3-0.6-0.3-0.9h0.8
		c0,0.3,0.2,0.5,0.4,0.7c0.2,0.2,0.5,0.3,0.9,0.3c0.3,0,0.5-0.1,0.7-0.2c0.2-0.1,0.4-0.3,0.5-0.5c0.1-0.2,0.2-0.5,0.2-0.8
		c0-0.3-0.1-0.5-0.2-0.8c-0.1-0.2-0.3-0.4-0.5-0.5c-0.2-0.1-0.5-0.2-0.7-0.2c-0.2,0-0.4,0-0.6,0.1c-0.2,0.1-0.4,0.1-0.5,0.2
		l-0.7-0.1l0.4-3.2h3.4v0.7h-2.7l-0.2,1.9h0c0.1-0.1,0.3-0.2,0.5-0.3c0.2-0.1,0.4-0.1,0.6-0.1c0.4,0,0.8,0.1,1.1,0.3
		c0.3,0.2,0.6,0.5,0.7,0.8c0.2,0.3,0.3,0.7,0.3,1.1c0,0.4-0.1,0.8-0.3,1.1c-0.2,0.3-0.4,0.6-0.8,0.8
		C135.7,281.5,135.4,281.6,134.9,281.6z M140.5,281.6c-0.7,0-1.3-0.3-1.7-0.9c-0.4-0.6-0.6-1.4-0.6-2.5c0-1.1,0.2-1.9,0.6-2.5
		c0.4-0.6,1-0.9,1.7-0.9c0.7,0,1.3,0.3,1.7,0.9c0.4,0.6,0.6,1.4,0.6,2.5c0,1.1-0.2,1.9-0.6,2.5C141.8,281.3,141.3,281.6,140.5,281.6
		z M140.5,280.9c0.5,0,0.9-0.2,1.1-0.7c0.3-0.5,0.4-1.1,0.4-2c0-0.9-0.1-1.5-0.4-2c-0.3-0.5-0.6-0.7-1.1-0.7c-0.5,0-0.8,0.2-1.1,0.7
		c-0.3,0.5-0.4,1.1-0.4,2c0,0.9,0.1,1.5,0.4,2C139.7,280.6,140.1,280.9,140.5,280.9z"/>
	<path style="clip-path:url(#SVGID_00000017511962352465498000000018301915619136859810_);fill:#FFFFFF;" d="M128.7,240.8v-0.6
		l2.2-2.4c0.3-0.3,0.5-0.5,0.6-0.7c0.2-0.2,0.3-0.4,0.4-0.6c0.1-0.2,0.1-0.4,0.1-0.6c0-0.3-0.1-0.6-0.4-0.8
		c-0.2-0.2-0.5-0.3-0.9-0.3c-0.4,0-0.7,0.1-0.9,0.3c-0.2,0.2-0.3,0.5-0.3,0.9h-0.8c0-0.4,0.1-0.7,0.3-1c0.2-0.3,0.4-0.5,0.7-0.7
		c0.3-0.2,0.7-0.2,1-0.2c0.4,0,0.7,0.1,1,0.2c0.3,0.2,0.5,0.4,0.7,0.7c0.2,0.3,0.3,0.6,0.3,0.9c0,0.2,0,0.5-0.1,0.7
		c-0.1,0.2-0.2,0.5-0.4,0.8c-0.2,0.3-0.5,0.6-0.9,1l-1.5,1.6v0.1h3.1v0.7H128.7z M136.3,240.9c-0.7,0-1.3-0.3-1.7-0.9
		c-0.4-0.6-0.6-1.4-0.6-2.5c0-1.1,0.2-1.9,0.6-2.5c0.4-0.6,1-0.9,1.7-0.9c0.7,0,1.3,0.3,1.7,0.9c0.4,0.6,0.6,1.4,0.6,2.5
		c0,1.1-0.2,1.9-0.6,2.5C137.6,240.6,137,240.9,136.3,240.9z M136.3,240.2c0.5,0,0.9-0.2,1.1-0.7c0.3-0.5,0.4-1.1,0.4-2
		c0-0.9-0.1-1.5-0.4-2c-0.3-0.5-0.6-0.7-1.1-0.7c-0.5,0-0.8,0.2-1.1,0.7c-0.3,0.5-0.4,1.1-0.4,2c0,0.9,0.1,1.5,0.4,2
		C135.5,239.9,135.8,240.2,136.3,240.2z M142,240.9c-0.7,0-1.3-0.3-1.7-0.9c-0.4-0.6-0.6-1.4-0.6-2.5c0-1.1,0.2-1.9,0.6-2.5
		c0.4-0.6,1-0.9,1.7-0.9c0.7,0,1.3,0.3,1.7,0.9c0.4,0.6,0.6,1.4,0.6,2.5c0,1.1-0.2,1.9-0.6,2.5C143.2,240.6,142.7,240.9,142,240.9z
		 M142,240.2c0.5,0,0.9-0.2,1.1-0.7c0.3-0.5,0.4-1.1,0.4-2c0-0.9-0.1-1.5-0.4-2c-0.3-0.5-0.6-0.7-1.1-0.7c-0.5,0-0.8,0.2-1.1,0.7
		c-0.3,0.5-0.4,1.1-0.4,2c0,0.9,0.1,1.5,0.4,2C141.1,239.9,141.5,240.2,142,240.2z"/>
	<path style="clip-path:url(#SVGID_00000017511962352465498000000018301915619136859810_);fill:#FFFFFF;" d="M128.7,199.9v-0.6
		l2.2-2.4c0.3-0.3,0.5-0.5,0.6-0.7c0.2-0.2,0.3-0.4,0.4-0.6c0.1-0.2,0.1-0.4,0.1-0.6c0-0.3-0.1-0.6-0.4-0.8
		c-0.2-0.2-0.5-0.3-0.9-0.3c-0.4,0-0.7,0.1-0.9,0.3c-0.2,0.2-0.3,0.5-0.3,0.9h-0.8c0-0.4,0.1-0.7,0.3-1c0.2-0.3,0.4-0.5,0.7-0.7
		c0.3-0.2,0.7-0.2,1-0.2c0.4,0,0.7,0.1,1,0.2c0.3,0.2,0.5,0.4,0.7,0.7c0.2,0.3,0.3,0.6,0.3,0.9c0,0.2,0,0.5-0.1,0.7
		c-0.1,0.2-0.2,0.5-0.4,0.8c-0.2,0.3-0.5,0.6-0.9,1l-1.5,1.6v0.1h3.1v0.7H128.7z M136.2,200c-0.4,0-0.7-0.1-1-0.2
		c-0.3-0.1-0.5-0.4-0.7-0.6c-0.2-0.3-0.3-0.6-0.3-0.9h0.8c0,0.3,0.2,0.5,0.4,0.7c0.2,0.2,0.5,0.3,0.9,0.3c0.3,0,0.5-0.1,0.7-0.2
		c0.2-0.1,0.4-0.3,0.5-0.5c0.1-0.2,0.2-0.5,0.2-0.8c0-0.3-0.1-0.5-0.2-0.8c-0.1-0.2-0.3-0.4-0.5-0.5c-0.2-0.1-0.5-0.2-0.7-0.2
		c-0.2,0-0.4,0-0.6,0.1c-0.2,0.1-0.4,0.1-0.5,0.2l-0.7-0.1l0.4-3.2h3.4v0.7h-2.8l-0.2,1.9h0c0.1-0.1,0.3-0.2,0.5-0.3
		c0.2-0.1,0.4-0.1,0.6-0.1c0.4,0,0.8,0.1,1.1,0.3c0.3,0.2,0.6,0.5,0.7,0.8c0.2,0.3,0.3,0.7,0.3,1.1c0,0.4-0.1,0.8-0.3,1.1
		c-0.2,0.3-0.4,0.6-0.8,0.8C137,199.9,136.6,200,136.2,200z M141.8,200c-0.7,0-1.3-0.3-1.7-0.9c-0.4-0.6-0.6-1.4-0.6-2.5
		c0-1.1,0.2-1.9,0.6-2.5c0.4-0.6,1-0.9,1.7-0.9c0.7,0,1.3,0.3,1.7,0.9c0.4,0.6,0.6,1.4,0.6,2.5c0,1.1-0.2,1.9-0.6,2.5
		C143.1,199.7,142.5,200,141.8,200z M141.8,199.3c0.5,0,0.9-0.2,1.1-0.7c0.3-0.5,0.4-1.1,0.4-2c0-0.9-0.1-1.5-0.4-2
		c-0.3-0.5-0.6-0.7-1.1-0.7c-0.5,0-0.8,0.2-1.1,0.7c-0.3,0.5-0.4,1.1-0.4,2c0,0.9,0.1,1.5,0.4,2C141,199,141.3,199.3,141.8,199.3z"
		/>
	<path style="clip-path:url(#SVGID_00000017511962352465498000000018301915619136859810_);fill:#2F80ED;" d="M164.2,214.3
		c0-1.4-1.2-2.6-2.6-2.6s-2.6,1.2-2.6,2.6v132.4c0,1.4,1.2,2.6,2.6,2.6s2.6-1.2,2.6-2.6V214.3z"/>
	<path style="clip-path:url(#SVGID_00000017511962352465498000000018301915619136859810_);fill:#EB5757;" d="M171.9,295
		c0-1.4-1.2-2.6-2.6-2.6c-1.4,0-2.6,1.2-2.6,2.6v51.7c0,1.4,1.2,2.6,2.6,2.6c1.4,0,2.6-1.2,2.6-2.6V295z"/>
	<path style="clip-path:url(#SVGID_00000017511962352465498000000018301915619136859810_);fill:#FFFFFF;" d="M162.1,370.8l0.6-0.5
		l2.9,3.7c0.4,0.5,0.6,1,0.5,1.5c-0.1,0.5-0.3,0.9-0.8,1.2c-0.3,0.2-0.6,0.4-0.9,0.4c-0.3,0.1-0.6,0.1-0.9,0
		c-0.3-0.1-0.5-0.3-0.7-0.5l0.6-0.5c0.2,0.2,0.4,0.3,0.7,0.3c0.3,0,0.5-0.1,0.8-0.3c0.3-0.2,0.4-0.5,0.4-0.7c0-0.3-0.1-0.6-0.4-0.9
		L162.1,370.8z M169.1,373.8c-0.2,0.2-0.5,0.3-0.8,0.4c-0.3,0.1-0.5,0.1-0.8,0c-0.3-0.1-0.5-0.3-0.7-0.5c-0.2-0.2-0.3-0.4-0.3-0.6
		c0-0.2,0-0.4,0.1-0.6c0.1-0.2,0.2-0.4,0.3-0.6c0.1-0.2,0.3-0.4,0.5-0.5c0.2-0.2,0.4-0.4,0.5-0.5c0.1-0.1,0.2-0.2,0.3-0.3
		c0-0.1,0-0.2-0.1-0.3l0,0c-0.2-0.2-0.4-0.4-0.7-0.4c-0.2,0-0.5,0.1-0.8,0.3c-0.3,0.2-0.5,0.5-0.5,0.7c-0.1,0.3-0.1,0.5,0,0.7
		l-0.7,0.2c-0.1-0.3-0.1-0.6,0-0.9c0.1-0.3,0.2-0.5,0.3-0.7c0.2-0.2,0.3-0.4,0.5-0.5c0.1-0.1,0.3-0.2,0.5-0.3
		c0.2-0.1,0.4-0.2,0.6-0.2c0.2,0,0.5,0,0.7,0.1c0.2,0.1,0.5,0.3,0.7,0.6l2,2.6l-0.6,0.5l-0.4-0.5l0,0c0,0.1,0,0.3,0,0.4
		c0,0.2-0.1,0.4-0.2,0.5C169.5,373.4,169.4,373.6,169.1,373.8z M168.8,373.2c0.2-0.2,0.4-0.4,0.5-0.6c0.1-0.2,0.1-0.4,0.1-0.6
		c0-0.2-0.1-0.4-0.2-0.6l-0.4-0.5c0,0.1,0,0.1-0.1,0.2c-0.1,0.1-0.1,0.2-0.2,0.3c-0.1,0.1-0.2,0.2-0.3,0.3c-0.1,0.1-0.2,0.2-0.2,0.2
		c-0.1,0.1-0.3,0.3-0.4,0.4c-0.1,0.1-0.2,0.3-0.2,0.5c0,0.2,0,0.3,0.2,0.5c0.2,0.2,0.4,0.3,0.6,0.3
		C168.3,373.5,168.6,373.4,168.8,373.2z M170.7,368.7l1.8,2.3l-0.6,0.5l-3-3.9l0.6-0.5l0.5,0.6l0.1,0c-0.1-0.3,0-0.5,0-0.8
		c0.1-0.3,0.3-0.5,0.6-0.7c0.4-0.3,0.8-0.4,1.2-0.4c0.4,0.1,0.8,0.3,1.2,0.8l1.9,2.5l-0.6,0.5l-1.9-2.4c-0.2-0.3-0.5-0.5-0.8-0.5
		c-0.3,0-0.6,0-0.9,0.3c-0.3,0.2-0.4,0.5-0.5,0.8C170.3,368,170.5,368.3,170.7,368.7z"/>
	<path style="clip-path:url(#SVGID_00000017511962352465498000000018301915619136859810_);fill:#2F80ED;" d="M235.3,236.9
		c0-1.4-1.2-2.6-2.6-2.6s-2.6,1.2-2.6,2.6v107.2c0,1.4,1.2,2.6,2.6,2.6s2.6-1.2,2.6-2.6V236.9z"/>
	<path style="clip-path:url(#SVGID_00000017511962352465498000000018301915619136859810_);fill:#EB5757;" d="M243,317
		c0-1.4-1.2-2.6-2.6-2.6c-1.4,0-2.6,1.2-2.6,2.6v27.1c0,1.4,1.2,2.6,2.6,2.6c1.4,0,2.6-1.2,2.6-2.6V317z"/>
	<path style="clip-path:url(#SVGID_00000017511962352465498000000018301915619136859810_);fill:#FFFFFF;" d="M229.3,371.7l0.7-0.6
		l5.1,2.9l0.1,0l-1.6-5.7l0.8-0.6l4,5.2l-0.6,0.5l-3.1-3.9l-0.1,0l1.5,5.2l-0.6,0.4l-4.7-2.7l-0.1,0l3.1,3.9l-0.6,0.5L229.3,371.7z
		 M240.8,371.2c-0.2,0.2-0.5,0.3-0.8,0.4c-0.3,0.1-0.5,0.1-0.8,0c-0.3-0.1-0.5-0.3-0.7-0.5c-0.2-0.2-0.3-0.4-0.3-0.6
		c0-0.2,0-0.4,0.1-0.6c0.1-0.2,0.2-0.4,0.3-0.6c0.1-0.2,0.3-0.4,0.5-0.5c0.2-0.2,0.4-0.4,0.5-0.5c0.1-0.1,0.2-0.2,0.3-0.3
		c0-0.1,0-0.2-0.1-0.3l0,0c-0.2-0.2-0.4-0.4-0.7-0.4c-0.2,0-0.5,0.1-0.8,0.3c-0.3,0.2-0.5,0.5-0.5,0.7c-0.1,0.3-0.1,0.5,0,0.7
		l-0.7,0.2c-0.1-0.3-0.1-0.6,0-0.9c0.1-0.3,0.2-0.5,0.3-0.7c0.2-0.2,0.3-0.4,0.5-0.5c0.1-0.1,0.3-0.2,0.5-0.3
		c0.2-0.1,0.4-0.2,0.6-0.2c0.2,0,0.5,0,0.7,0.1c0.2,0.1,0.5,0.3,0.7,0.6l2,2.6l-0.6,0.5l-0.4-0.5l0,0c0,0.1,0,0.3,0,0.4
		c0,0.2-0.1,0.4-0.2,0.5S241.1,371,240.8,371.2z M240.5,370.6c0.2-0.2,0.4-0.4,0.5-0.6c0.1-0.2,0.1-0.4,0.1-0.6
		c0-0.2-0.1-0.4-0.2-0.6l-0.4-0.5c0,0.1,0,0.1-0.1,0.2c-0.1,0.1-0.1,0.2-0.2,0.3c-0.1,0.1-0.2,0.2-0.3,0.3c-0.1,0.1-0.2,0.2-0.2,0.2
		c-0.1,0.1-0.3,0.3-0.4,0.4c-0.1,0.1-0.2,0.3-0.2,0.5c0,0.2,0,0.3,0.2,0.5c0.2,0.2,0.4,0.3,0.6,0.3
		C240,370.9,240.3,370.8,240.5,370.6z M243.6,368.9l-3-3.9l0.6-0.5l0.5,0.6l0,0c-0.1-0.2-0.1-0.5,0-0.8c0.1-0.3,0.3-0.5,0.5-0.7
		c0,0,0.1-0.1,0.2-0.1c0.1-0.1,0.1-0.1,0.2-0.1l0.5,0.6c0,0-0.1,0-0.2,0.1c-0.1,0-0.2,0.1-0.2,0.2c-0.3,0.2-0.5,0.5-0.5,0.8
		c-0.1,0.3,0,0.6,0.2,0.9l1.9,2.5L243.6,368.9z"/>
	<path style="clip-path:url(#SVGID_00000017511962352465498000000018301915619136859810_);fill:#2F80ED;" d="M305.6,200.1
		c0-1.4-1.2-2.6-2.6-2.6s-2.6,1.2-2.6,2.6v143.4c0,1.4,1.2,2.6,2.6,2.6s2.6-1.2,2.6-2.6V200.1z"/>
	<path style="clip-path:url(#SVGID_00000017511962352465498000000018301915619136859810_);fill:#EB5757;" d="M313.4,268.5
		c0-1.4-1.2-2.6-2.6-2.6s-2.6,1.2-2.6,2.6v74.9c0,1.4,1.2,2.6,2.6,2.6s2.6-1.2,2.6-2.6V268.5z"/>
	<path style="clip-path:url(#SVGID_00000017511962352465498000000018301915619136859810_);fill:#FFFFFF;" d="M298.9,371.8l0.8-0.6
		l5.1,2.9l0.1,0l-1.6-5.7l0.7-0.6l4.1,5.2l-0.6,0.5l-3.1-3.9l-0.1,0l1.5,5.2l-0.6,0.4l-4.7-2.7l-0.1,0l3.1,3.9L303,377L298.9,371.8z
		 M310.4,371.3c-0.2,0.2-0.5,0.3-0.8,0.4c-0.3,0.1-0.5,0.1-0.8,0c-0.3-0.1-0.5-0.3-0.7-0.5c-0.2-0.2-0.3-0.4-0.3-0.6
		c0-0.2,0-0.4,0.1-0.6c0.1-0.2,0.2-0.4,0.3-0.6c0.1-0.2,0.3-0.4,0.5-0.5c0.2-0.2,0.4-0.4,0.5-0.5c0.1-0.1,0.2-0.2,0.3-0.3
		c0-0.1,0-0.2-0.1-0.3l0,0c-0.2-0.2-0.4-0.4-0.7-0.4c-0.2,0-0.5,0.1-0.8,0.3c-0.3,0.2-0.5,0.5-0.5,0.7c-0.1,0.3-0.1,0.5,0,0.7
		l-0.7,0.2c-0.1-0.3-0.1-0.6,0-0.9c0.1-0.3,0.2-0.5,0.3-0.7c0.2-0.2,0.3-0.4,0.5-0.5c0.1-0.1,0.3-0.2,0.5-0.3
		c0.2-0.1,0.4-0.2,0.6-0.2c0.2,0,0.5,0,0.7,0.1c0.2,0.1,0.5,0.3,0.7,0.6l2,2.6l-0.6,0.5l-0.4-0.5l0,0c0,0.1,0,0.3,0,0.4
		c0,0.2-0.1,0.4-0.2,0.5C310.8,370.9,310.7,371.1,310.4,371.3z M310.1,370.7c0.2-0.2,0.4-0.4,0.5-0.6c0.1-0.2,0.1-0.4,0.1-0.6
		c0-0.2-0.1-0.4-0.2-0.6l-0.4-0.5c0,0.1,0,0.1-0.1,0.2c-0.1,0.1-0.1,0.2-0.2,0.3c-0.1,0.1-0.2,0.2-0.3,0.3c-0.1,0.1-0.2,0.2-0.2,0.2
		c-0.1,0.1-0.3,0.3-0.4,0.4c-0.1,0.1-0.2,0.3-0.2,0.5c0,0.2,0,0.3,0.2,0.5c0.2,0.2,0.4,0.3,0.6,0.3
		C309.6,370.9,309.9,370.8,310.1,370.7z M314.6,370.2c-0.1,0.1-0.2,0.1-0.3,0.2c-0.1,0-0.2,0.1-0.2,0.1l-0.3-0.6
		c0.2-0.1,0.3-0.2,0.4-0.3c0.1-0.1,0.2-0.2,0.2-0.4c0-0.2,0-0.4-0.1-0.6l-0.1-0.4l-4.5-2.8l0.6-0.5l3.5,2.3l0,0l-1.3-3.9l0.6-0.5
		l1.8,5.7C315.3,369.2,315.2,369.8,314.6,370.2z"/>
	<path style="clip-path:url(#SVGID_00000017511962352465498000000018301915619136859810_);fill:#2F80ED;" d="M199,226.6
		c0-1.4-1.2-2.6-2.6-2.6s-2.6,1.2-2.6,2.6v118.2c0,1.4,1.2,2.6,2.6,2.6s2.6-1.2,2.6-2.6V226.6z"/>
	<path style="clip-path:url(#SVGID_00000017511962352465498000000018301915619136859810_);fill:#EB5757;" d="M206.8,265.3
		c0-1.4-1.2-2.6-2.6-2.6s-2.6,1.2-2.6,2.6v79.5c0,1.4,1.2,2.6,2.6,2.6s2.6-1.2,2.6-2.6V265.3z"/>
	<path style="clip-path:url(#SVGID_00000017511962352465498000000018301915619136859810_);fill:#FFFFFF;" d="M197.7,376.2l-4-5.2
		l3.1-2.4l0.4,0.6l-2.5,1.9l1.4,1.8l2.2-1.8l0.4,0.6l-2.2,1.8l1.8,2.3L197.7,376.2z M203.2,372.1c-0.4,0.3-0.8,0.5-1.2,0.5
		c-0.4,0-0.8,0-1.2-0.2c-0.4-0.2-0.7-0.5-1-0.9c-0.3-0.4-0.5-0.8-0.6-1.2c-0.1-0.4-0.1-0.8,0.1-1.2c0.1-0.4,0.4-0.7,0.7-1
		c0.2-0.2,0.4-0.3,0.7-0.4c0.2-0.1,0.5-0.1,0.8-0.1c0.3,0,0.6,0.1,0.9,0.3c0.3,0.2,0.6,0.4,0.9,0.8l0.2,0.3l-2.8,2.2
		c0.3,0.4,0.7,0.6,1.1,0.7c0.4,0,0.8-0.1,1.1-0.3c0.2-0.2,0.4-0.4,0.5-0.6c0.1-0.2,0.1-0.5,0-0.7l0.7-0.3c0.1,0.4,0.1,0.7,0,1.1
		C203.9,371.4,203.6,371.8,203.2,372.1z M200.2,370.7l2.2-1.7c-0.3-0.3-0.6-0.5-0.9-0.6c-0.4-0.1-0.7,0-1,0.3
		c-0.2,0.2-0.4,0.4-0.5,0.6c-0.1,0.2-0.1,0.5-0.1,0.7C200,370.2,200.1,370.5,200.2,370.7z M205.8,369.9l-4-5.2l0.6-0.5l1.5,1.9
		l0.1,0c0-0.1,0-0.2,0-0.4c0-0.2,0-0.4,0.1-0.5c0.1-0.2,0.2-0.4,0.5-0.6c0.3-0.3,0.7-0.4,1.1-0.4c0.4,0,0.8,0,1.1,0.2
		c0.4,0.2,0.7,0.5,1,0.9c0.3,0.4,0.5,0.8,0.6,1.2c0.1,0.4,0.1,0.8,0,1.2c-0.1,0.4-0.3,0.7-0.7,0.9c-0.2,0.2-0.5,0.3-0.7,0.3
		c-0.2,0-0.4,0-0.6,0c-0.2,0-0.3-0.1-0.4-0.1l-0.1,0.1l0.5,0.6L205.8,369.9z M204.8,367.5c0.3,0.4,0.7,0.7,1.1,0.9
		c0.4,0.1,0.8,0,1.1-0.2c0.2-0.2,0.4-0.4,0.5-0.7c0.1-0.3,0.1-0.5,0-0.8c-0.1-0.3-0.2-0.6-0.5-0.9c-0.2-0.3-0.4-0.5-0.7-0.6
		c-0.3-0.2-0.5-0.2-0.8-0.2c-0.3,0-0.5,0.1-0.8,0.3c-0.4,0.3-0.5,0.6-0.5,1.1C204.3,366.7,204.5,367.1,204.8,367.5z"/>
	<path style="clip-path:url(#SVGID_00000017511962352465498000000018301915619136859810_);fill:#2F80ED;" d="M269.5,284.1
		c0-1.4-1.2-2.6-2.6-2.6s-2.6,1.2-2.6,2.6v62.7c0,1.4,1.2,2.6,2.6,2.6s2.6-1.2,2.6-2.6V284.1z"/>
	<path style="clip-path:url(#SVGID_00000017511962352465498000000018301915619136859810_);fill:#EB5757;" d="M277.2,258.9
		c0-1.4-1.2-2.6-2.6-2.6s-2.6,1.2-2.6,2.6v87.9c0,1.4,1.2,2.6,2.6,2.6s2.6-1.2,2.6-2.6V258.9z"/>
	<path style="clip-path:url(#SVGID_00000017511962352465498000000018301915619136859810_);fill:#FFFFFF;" d="M269.8,377.3l-0.7,0.5
		l-2.1-6.7l0.6-0.5l6,3.7l-0.7,0.5l-1.7-1.1l-2.1,1.6L269.8,377.3z M268.9,374.7l1.7-1.3l-2.7-1.7l0,0L268.9,374.7z M275.5,375.2
		l-4.2-5.3l0.6-0.5l0.5,0.6l0.1-0.1c0-0.1,0-0.2,0-0.4c0-0.2,0-0.4,0.1-0.5c0.1-0.2,0.2-0.4,0.5-0.6c0.3-0.3,0.7-0.4,1.1-0.4
		c0.4,0,0.8,0,1.1,0.2c0.4,0.2,0.7,0.5,1,0.9c0.3,0.4,0.5,0.8,0.6,1.2c0.1,0.4,0.1,0.8,0,1.2c-0.1,0.4-0.3,0.7-0.7,0.9
		c-0.2,0.2-0.5,0.3-0.7,0.3c-0.2,0-0.4,0-0.6,0c-0.2,0-0.3-0.1-0.4-0.1l-0.1,0l1.6,2.1L275.5,375.2z M273.4,371.4
		c0.3,0.4,0.7,0.7,1.1,0.9c0.4,0.1,0.8,0,1.1-0.2c0.2-0.2,0.4-0.4,0.5-0.7c0.1-0.3,0.1-0.5,0-0.8c-0.1-0.3-0.2-0.6-0.5-0.9
		c-0.2-0.3-0.4-0.5-0.7-0.6c-0.3-0.2-0.5-0.2-0.8-0.2c-0.3,0-0.5,0.1-0.8,0.3c-0.4,0.3-0.5,0.6-0.5,1.1
		C272.9,370.5,273,370.9,273.4,371.4z M278.7,370.4l-3-3.9l0.6-0.4l0.5,0.6l0,0c-0.1-0.2-0.1-0.5,0-0.8c0.1-0.3,0.3-0.5,0.5-0.7
		c0,0,0.1-0.1,0.2-0.1c0.1,0,0.1-0.1,0.2-0.1l0.5,0.6c0,0-0.1,0-0.2,0.1c-0.1,0-0.2,0.1-0.2,0.2c-0.3,0.2-0.5,0.5-0.5,0.8
		c-0.1,0.3,0,0.6,0.2,0.9l1.9,2.5L278.7,370.4z"/>
	<path style="clip-path:url(#SVGID_00000017511962352465498000000018301915619136859810_);fill:#2F80ED;" d="M340.2,222.7
		c0-1.4-1.2-2.6-2.6-2.6c-1.4,0-2.6,1.2-2.6,2.6v124c0,1.4,1.2,2.6,2.6,2.6c1.4,0,2.6-1.2,2.6-2.6V222.7z"/>
	<path style="clip-path:url(#SVGID_00000017511962352465498000000018301915619136859810_);fill:#EB5757;" d="M348,306
		c0-1.4-1.2-2.6-2.6-2.6s-2.6,1.2-2.6,2.6v40.7c0,1.4,1.2,2.6,2.6,2.6s2.6-1.2,2.6-2.6V306z"/>
	<path style="clip-path:url(#SVGID_00000017511962352465498000000018301915619136859810_);fill:#FFFFFF;" d="M338,370.9l0.6-0.5
		l2.9,3.7c0.4,0.5,0.6,1,0.5,1.5c-0.1,0.5-0.3,0.9-0.8,1.2c-0.3,0.2-0.6,0.4-0.9,0.4c-0.3,0.1-0.6,0.1-0.9,0
		c-0.3-0.1-0.5-0.3-0.7-0.5l0.6-0.5c0.2,0.2,0.4,0.3,0.7,0.3c0.3,0,0.5-0.1,0.8-0.3c0.3-0.2,0.4-0.5,0.4-0.7c0-0.3-0.1-0.6-0.4-0.9
		L338,370.9z M345.1,371.1l-1.8-2.3l0.6-0.5l3,3.9l-0.6,0.5l-0.5-0.7l0,0c0.1,0.3,0.1,0.5,0,0.8c-0.1,0.3-0.3,0.5-0.6,0.8
		c-0.4,0.3-0.8,0.4-1.2,0.3c-0.4-0.1-0.8-0.3-1.2-0.8l-1.9-2.5l0.6-0.5l1.9,2.4c0.2,0.3,0.5,0.4,0.8,0.5c0.3,0,0.6,0,0.8-0.2
		c0.1-0.1,0.3-0.3,0.4-0.5c0.1-0.2,0.1-0.4,0.1-0.7C345.4,371.6,345.3,371.4,345.1,371.1z M346.8,368.6l1.8,2.3l-0.6,0.5l-3-3.9
		l0.6-0.5l0.5,0.6l0,0c-0.1-0.3,0-0.5,0-0.8c0.1-0.3,0.3-0.5,0.6-0.7c0.4-0.3,0.8-0.4,1.2-0.4c0.4,0.1,0.8,0.3,1.2,0.8l1.9,2.5
		l-0.6,0.5l-1.9-2.4c-0.2-0.3-0.5-0.5-0.8-0.5c-0.3,0-0.6,0-0.9,0.3c-0.3,0.2-0.4,0.5-0.5,0.8C346.4,367.9,346.5,368.3,346.8,368.6z
		"/>
	<path style="clip-path:url(#SVGID_00000017511962352465498000000018301915619136859810_);fill:#2F80ED;" d="M373.7,222.7
		c0-1.4-1.2-2.6-2.6-2.6s-2.6,1.2-2.6,2.6v124c0,1.4,1.2,2.6,2.6,2.6s2.6-1.2,2.6-2.6V222.7z"/>
	<path style="clip-path:url(#SVGID_00000017511962352465498000000018301915619136859810_);fill:#EB5757;" d="M381.5,306
		c0-1.4-1.2-2.6-2.6-2.6s-2.6,1.2-2.6,2.6v40.7c0,1.4,1.2,2.6,2.6,2.6s2.6-1.2,2.6-2.6V306z"/>
	<path style="clip-path:url(#SVGID_00000017511962352465498000000018301915619136859810_);fill:#FFFFFF;" d="M371.6,370.9l0.6-0.5
		l2.9,3.7c0.4,0.5,0.6,1,0.5,1.5c-0.1,0.5-0.3,0.9-0.8,1.2c-0.3,0.2-0.6,0.4-0.9,0.4c-0.3,0.1-0.6,0.1-0.9,0
		c-0.3-0.1-0.5-0.3-0.7-0.5l0.6-0.5c0.2,0.2,0.4,0.3,0.7,0.3c0.3,0,0.5-0.1,0.8-0.3c0.3-0.2,0.4-0.5,0.4-0.7c0-0.3-0.1-0.6-0.4-0.9
		L371.6,370.9z M378.6,371.1l-1.8-2.3l0.6-0.5l3,3.9l-0.6,0.5l-0.5-0.7l0,0c0.1,0.3,0.1,0.5,0,0.8c-0.1,0.3-0.3,0.5-0.6,0.8
		c-0.4,0.3-0.8,0.4-1.2,0.3c-0.4-0.1-0.8-0.3-1.2-0.8l-1.9-2.5l0.6-0.5l1.9,2.4c0.2,0.3,0.5,0.4,0.8,0.5c0.3,0,0.6,0,0.8-0.2
		c0.1-0.1,0.3-0.3,0.4-0.5c0.1-0.2,0.1-0.4,0.1-0.7C378.9,371.6,378.8,371.4,378.6,371.1z M380.3,368.6l1.8,2.3l-0.6,0.5l-3-3.9
		l0.6-0.5l0.5,0.6l0,0c-0.1-0.3,0-0.5,0-0.8c0.1-0.3,0.3-0.5,0.6-0.7c0.4-0.3,0.8-0.4,1.2-0.4c0.4,0.1,0.8,0.3,1.2,0.8l1.9,2.5
		l-0.6,0.5l-1.9-2.4c-0.2-0.3-0.5-0.5-0.8-0.5c-0.3,0-0.6,0-0.9,0.3c-0.3,0.2-0.4,0.5-0.5,0.8C380,367.9,380.1,368.3,380.3,368.6z"
		/>
	<path style="clip-path:url(#SVGID_00000017511962352465498000000018301915619136859810_);fill:#2F80ED;" d="M407.3,222.7
		c0-1.4-1.2-2.6-2.6-2.6s-2.6,1.2-2.6,2.6v124c0,1.4,1.2,2.6,2.6,2.6s2.6-1.2,2.6-2.6V222.7z"/>
	<path style="clip-path:url(#SVGID_00000017511962352465498000000018301915619136859810_);fill:#EB5757;" d="M415,306
		c0-1.4-1.2-2.6-2.6-2.6s-2.6,1.2-2.6,2.6v40.7c0,1.4,1.2,2.6,2.6,2.6s2.6-1.2,2.6-2.6V306z"/>
	<path style="clip-path:url(#SVGID_00000017511962352465498000000018301915619136859810_);fill:#FFFFFF;" d="M405.1,370.9l0.6-0.5
		l2.9,3.7c0.4,0.5,0.6,1,0.5,1.5c-0.1,0.5-0.3,0.9-0.8,1.2c-0.3,0.2-0.6,0.4-0.9,0.4c-0.3,0.1-0.6,0.1-0.9,0s-0.5-0.3-0.7-0.5
		l0.6-0.5c0.2,0.2,0.4,0.3,0.7,0.3c0.3,0,0.5-0.1,0.8-0.3c0.3-0.2,0.4-0.5,0.4-0.7c0-0.3-0.1-0.6-0.4-0.9L405.1,370.9z M412.2,371.1
		l-1.8-2.3l0.6-0.5l3,3.9l-0.6,0.5l-0.5-0.7l0,0c0.1,0.3,0.1,0.5,0,0.8c-0.1,0.3-0.3,0.5-0.6,0.8c-0.4,0.3-0.8,0.4-1.2,0.3
		c-0.4-0.1-0.8-0.3-1.2-0.8l-1.9-2.5l0.6-0.5l1.9,2.4c0.2,0.3,0.5,0.4,0.8,0.5c0.3,0,0.6,0,0.8-0.2c0.1-0.1,0.3-0.3,0.4-0.5
		c0.1-0.2,0.1-0.4,0.1-0.7C412.5,371.6,412.4,371.4,412.2,371.1z M413.9,368.6l1.8,2.3l-0.6,0.5l-3-3.9l0.6-0.5l0.5,0.6l0,0
		c-0.1-0.3,0-0.5,0-0.8c0.1-0.3,0.3-0.5,0.6-0.7c0.4-0.3,0.8-0.4,1.2-0.4c0.4,0.1,0.8,0.3,1.2,0.8l1.9,2.5l-0.6,0.5l-1.9-2.4
		c-0.2-0.3-0.5-0.5-0.8-0.5c-0.3,0-0.6,0-0.9,0.3c-0.3,0.2-0.5,0.5-0.5,0.8C413.5,367.9,413.6,368.3,413.9,368.6z"/>
	<path style="clip-path:url(#SVGID_00000017511962352465498000000018301915619136859810_);fill:#219653;" d="M184.3,160.7l-1.2-1
		c-0.3-0.2-0.7-0.2-0.9,0l-1.2,1c-0.1,0.1-0.2,0.4,0,0.5c0.1,0.1,0.4,0.2,0.5,0l0.8-0.7v7.1c0,0.2,0.1,0.4,0.4,0.4
		c0.2,0,0.4-0.1,0.4-0.4v-7l0.8,0.7c0,0,0.1,0.1,0.2,0.1c0.1,0,0.2,0,0.3-0.1C184.5,161,184.5,160.8,184.3,160.7z"/>
</g>
<path class="st2" d="M349,229h163.4c1.7,0,3,1.3,3,3v97c0,1.7-1.3,3-3,3H349c-1.7,0-3-1.3-3-3v-97C346,230.3,347.3,229,349,229z"/>
<path class="st10" d="M349,229.2h163.4c1.5,0,2.8,1.2,2.8,2.8v97c0,1.5-1.2,2.8-2.8,2.8H349c-1.5,0-2.8-1.2-2.8-2.8v-97
	C346.2,230.4,347.5,229.2,349,229.2z"/>
<g>
	<defs>
		<rect id="SVGID_00000142144056000668277240000017671066754471245456_" x="357.4" y="240.4" width="145.8" height="80.1"/>
	</defs>
	<clipPath id="SVGID_00000132792665202220053850000007268291039308579506_">
		<use xlink:href="#SVGID_00000142144056000668277240000017671066754471245456_"  style="overflow:visible;"/>
	</clipPath>
	<path style="clip-path:url(#SVGID_00000132792665202220053850000007268291039308579506_);fill:#FFFFFF;fill-opacity:0.1;" d="
		M361,240.4h-0.3v70.1h0.3V240.4z"/>
	<path style="clip-path:url(#SVGID_00000132792665202220053850000007268291039308579506_);fill:#5D657B;" d="M358.9,316.6v2
		c0,0.4-0.2,0.5-0.5,0.5c-0.3,0-0.5-0.2-0.5-0.4h-0.3c0,0.4,0.3,0.7,0.8,0.7c0.5,0,0.8-0.3,0.8-0.8v-2H358.9z M360.5,319.4
		c0.4,0,0.6-0.2,0.6-0.3h0v0.3h0.3V318c0-0.7-0.5-0.8-0.8-0.8c-0.3,0-0.7,0.1-0.8,0.5l0.3,0.1c0.1-0.2,0.2-0.3,0.6-0.3
		c0.3,0,0.4,0.2,0.4,0.4v0c0,0.2-0.2,0.1-0.5,0.2c-0.4,0.1-0.8,0.1-0.8,0.6C359.8,319.2,360.1,319.4,360.5,319.4z M360.5,319.2
		c-0.3,0-0.4-0.1-0.4-0.3c0-0.2,0.2-0.3,0.5-0.4c0.1,0,0.5-0.1,0.6-0.1v0.3C361.1,318.9,360.9,319.2,360.5,319.2z M362.4,318.1
		c0-0.4,0.2-0.6,0.5-0.6c0.3,0,0.5,0.2,0.5,0.5v1.3h0.3v-1.3c0-0.5-0.3-0.8-0.7-0.8c-0.3,0-0.5,0.1-0.6,0.4h0v-0.3H362v2.1h0.3
		V318.1z"/>
	<path style="clip-path:url(#SVGID_00000132792665202220053850000007268291039308579506_);fill:#FFFFFF;fill-opacity:0.1;" d="
		M375.5,240.4h-0.3v70.1h0.3V240.4z"/>
	<path style="clip-path:url(#SVGID_00000132792665202220053850000007268291039308579506_);fill:#5D657B;" d="M371.9,319.4h0.3v-1.3
		h1.2v-0.3h-1.2v-1h1.4v-0.3h-1.7V319.4z M374.9,319.4c0.4,0,0.7-0.2,0.8-0.5l-0.3-0.1c-0.1,0.2-0.3,0.3-0.5,0.3
		c-0.4,0-0.6-0.2-0.7-0.7h1.5v-0.1c0-0.8-0.5-1.1-0.9-1.1c-0.6,0-1,0.5-1,1.1C373.9,319,374.3,319.4,374.9,319.4z M374.2,318.2
		c0-0.3,0.3-0.6,0.6-0.6c0.4,0,0.6,0.3,0.6,0.6H374.2z M376.3,319.4h0.3v-0.3h0c0.1,0.1,0.2,0.4,0.6,0.4c0.5,0,0.9-0.4,0.9-1.1
		c0-0.7-0.4-1.1-0.9-1.1c-0.4,0-0.5,0.3-0.6,0.4h0v-1h-0.3V319.4z M376.6,318.3c0-0.5,0.2-0.8,0.6-0.8c0.4,0,0.6,0.3,0.6,0.8
		c0,0.5-0.2,0.8-0.6,0.8C376.8,319.2,376.6,318.8,376.6,318.3z"/>
	<path style="clip-path:url(#SVGID_00000132792665202220053850000007268291039308579506_);fill:#FFFFFF;fill-opacity:0.1;" d="
		M389.9,240.4h-0.3v70.1h0.3V240.4z"/>
	<path style="clip-path:url(#SVGID_00000132792665202220053850000007268291039308579506_);fill:#5D657B;" d="M386.3,316.6v2.8h0.3
		v-2.1h0l0.9,2.1h0.3l0.9-2.1h0v2.1h0.3v-2.8h-0.4l-1,2.3h0l-1-2.3H386.3z M390.4,319.4c0.4,0,0.6-0.2,0.6-0.3h0v0.3h0.3V318
		c0-0.7-0.5-0.8-0.8-0.8c-0.3,0-0.7,0.1-0.8,0.5l0.3,0.1c0.1-0.2,0.2-0.3,0.6-0.3c0.3,0,0.4,0.2,0.4,0.4v0c0,0.2-0.2,0.1-0.5,0.2
		c-0.4,0.1-0.8,0.1-0.8,0.6C389.6,319.2,390,319.4,390.4,319.4z M390.4,319.2c-0.3,0-0.4-0.1-0.4-0.3c0-0.2,0.2-0.3,0.5-0.4
		c0.1,0,0.5-0.1,0.6-0.1v0.3C391,318.9,390.8,319.2,390.4,319.2z M391.9,319.4h0.3v-1.3c0-0.3,0.2-0.5,0.5-0.5c0.1,0,0.2,0,0.2,0
		v-0.3c0,0-0.1,0-0.2,0c-0.3,0-0.5,0.1-0.6,0.4h0v-0.3h-0.3V319.4z"/>
	<path style="clip-path:url(#SVGID_00000132792665202220053850000007268291039308579506_);fill:#FFFFFF;fill-opacity:0.1;" d="
		M404.3,240.4H404v70.1h0.3V240.4z"/>
	<path style="clip-path:url(#SVGID_00000132792665202220053850000007268291039308579506_);fill:#5D657B;" d="M401.1,319.4l0.3-0.8
		h1.1l0.3,0.8h0.4l-1-2.8h-0.4l-1,2.8H401.1z M401.5,318.3l0.5-1.3h0l0.5,1.3H401.5z M403.6,320.2h0.3v-1.1h0
		c0.1,0.1,0.2,0.4,0.6,0.4c0.5,0,0.9-0.4,0.9-1.1c0-0.7-0.4-1.1-0.9-1.1c-0.4,0-0.5,0.3-0.6,0.4h0v-0.3h-0.3V320.2z M403.9,318.3
		c0-0.5,0.2-0.8,0.6-0.8c0.4,0,0.6,0.3,0.6,0.8c0,0.5-0.2,0.8-0.6,0.8C404.1,319.2,403.9,318.8,403.9,318.3z M406,319.4h0.3v-1.3
		c0-0.3,0.2-0.5,0.5-0.5c0.1,0,0.2,0,0.2,0v-0.3c0,0-0.1,0-0.2,0c-0.3,0-0.5,0.1-0.6,0.4h0v-0.3H406V319.4z"/>
	<path style="clip-path:url(#SVGID_00000132792665202220053850000007268291039308579506_);fill:#FFFFFF;fill-opacity:0.1;" d="
		M418.7,240.4h-0.3v70.1h0.3V240.4z"/>
	<path style="clip-path:url(#SVGID_00000132792665202220053850000007268291039308579506_);fill:#5D657B;" d="M415.2,316.6v2.8h0.3
		v-2.1h0l0.9,2.1h0.3l0.9-2.1h0v2.1h0.3v-2.8h-0.4l-1,2.3h0l-1-2.3H415.2z M419.2,319.4c0.4,0,0.6-0.2,0.6-0.3h0v0.3h0.3V318
		c0-0.7-0.5-0.8-0.8-0.8c-0.3,0-0.7,0.1-0.8,0.5l0.3,0.1c0.1-0.2,0.2-0.3,0.6-0.3c0.3,0,0.4,0.2,0.4,0.4v0c0,0.2-0.2,0.1-0.5,0.2
		c-0.4,0.1-0.8,0.1-0.8,0.6C418.5,319.2,418.8,319.4,419.2,319.4z M419.2,319.2c-0.3,0-0.4-0.1-0.4-0.3c0-0.2,0.2-0.3,0.5-0.4
		c0.1,0,0.5-0.1,0.6-0.1v0.3C419.8,318.9,419.6,319.2,419.2,319.2z M420.9,320.2c0.3,0,0.5-0.2,0.6-0.5l0.9-2.4l-0.4,0l-0.6,1.7h0
		l-0.6-1.7h-0.4l0.8,2.1l-0.1,0.2c-0.1,0.3-0.3,0.4-0.5,0.3l-0.1,0.3C420.7,320.2,420.8,320.2,420.9,320.2z"/>
	<path style="clip-path:url(#SVGID_00000132792665202220053850000007268291039308579506_);fill:#FFFFFF;fill-opacity:0.1;" d="
		M433.1,240.4h-0.3v70.1h0.3V240.4z"/>
	<path style="clip-path:url(#SVGID_00000132792665202220053850000007268291039308579506_);fill:#5D657B;" d="M431.5,316.6v2
		c0,0.4-0.2,0.5-0.5,0.5c-0.3,0-0.5-0.2-0.5-0.4h-0.3c0,0.4,0.3,0.7,0.8,0.7c0.5,0,0.8-0.3,0.8-0.8v-2H431.5z M433.8,318.5
		c0,0.4-0.3,0.6-0.5,0.6c-0.3,0-0.5-0.2-0.5-0.5v-1.3h-0.3v1.3c0,0.5,0.3,0.8,0.7,0.8c0.3,0,0.5-0.2,0.6-0.4h0v0.4h0.3v-2.1h-0.3
		V318.5z M435.1,318.1c0-0.4,0.2-0.6,0.5-0.6c0.3,0,0.5,0.2,0.5,0.5v1.3h0.3v-1.3c0-0.5-0.3-0.8-0.7-0.8c-0.3,0-0.5,0.1-0.6,0.4h0
		v-0.3h-0.3v2.1h0.3V318.1z"/>
	
		<linearGradient id="SVGID_00000055691518858406891220000009211544512897450678_" gradientUnits="userSpaceOnUse" x1="451.831" y1="287.4938" x2="451.831" y2="280.8408" gradientTransform="matrix(1 0 0 -1 0 527.8898)">
		<stop  offset="0" style="stop-color:#FFFFFF;stop-opacity:0.71"/>
		<stop  offset="1" style="stop-color:#0052CC"/>
	</linearGradient>
	
		<path style="opacity:5.000000e-02;clip-path:url(#SVGID_00000132792665202220053850000007268291039308579506_);fill:url(#SVGID_00000055691518858406891220000009211544512897450678_);enable-background:new    ;" d="
		M459.5,247c0-3.7-3-6.7-6.7-6.7h-1.9c-3.7,0-6.7,3-6.7,6.7"/>
	
		<linearGradient id="SVGID_00000030474785564931205700000010372147780594303144_" gradientUnits="userSpaceOnUse" x1="451.831" y1="224.0148" x2="451.831" y2="217.3618" gradientTransform="matrix(1 0 0 -1 0 527.8898)">
		<stop  offset="0" style="stop-color:#FFFFFF;stop-opacity:0.71"/>
		<stop  offset="1" style="stop-color:#0052CC"/>
	</linearGradient>
	
		<path style="opacity:5.000000e-02;clip-path:url(#SVGID_00000132792665202220053850000007268291039308579506_);fill:url(#SVGID_00000030474785564931205700000010372147780594303144_);enable-background:new    ;" d="
		M444.2,303.9c0,3.7,3,6.7,6.7,6.7h1.9c3.7,0,6.7-3,6.7-6.7"/>
	
		<path style="opacity:0.1;clip-path:url(#SVGID_00000132792665202220053850000007268291039308579506_);fill:#8F92A1;enable-background:new    ;" d="
		M451.7,310.5h0.3"/>
	
		<path style="opacity:0.1;clip-path:url(#SVGID_00000132792665202220053850000007268291039308579506_);fill:#8F92A1;enable-background:new    ;" d="
		M452,240.4h-0.3"/>
	<path style="clip-path:url(#SVGID_00000132792665202220053850000007268291039308579506_);fill:#5D657B;" d="M450.1,316.6v2
		c0,0.4-0.2,0.5-0.5,0.5c-0.3,0-0.5-0.2-0.5-0.4h-0.3c0,0.4,0.3,0.7,0.8,0.7c0.5,0,0.8-0.3,0.8-0.8v-2H450.1z M452.4,318.5
		c0,0.4-0.3,0.6-0.5,0.6c-0.3,0-0.5-0.2-0.5-0.5v-1.3h-0.3v1.3c0,0.5,0.3,0.8,0.7,0.8c0.3,0,0.5-0.2,0.6-0.4h0v0.4h0.3v-2.1h-0.3
		V318.5z M453.7,316.6h-0.3v2.8h0.3V316.6z"/>
	<path style="clip-path:url(#SVGID_00000132792665202220053850000007268291039308579506_);fill:#FFFFFF;fill-opacity:0.1;" d="
		M471.7,240.4h-0.3v70.1h0.3V240.4z"/>
	<path style="clip-path:url(#SVGID_00000132792665202220053850000007268291039308579506_);fill:#5D657B;" d="M467.4,319.4l0.3-0.8
		h1.1l0.3,0.8h0.4l-1-2.8h-0.4l-1,2.8H467.4z M467.8,318.3l0.5-1.3h0l0.5,1.3H467.8z M471.2,318.5c0,0.4-0.3,0.6-0.5,0.6
		c-0.3,0-0.5-0.2-0.5-0.5v-1.3h-0.3v1.3c0,0.5,0.3,0.8,0.7,0.8c0.3,0,0.5-0.2,0.6-0.4h0v0.4h0.3v-2.1h-0.3V318.5z M473,320.2
		c0.5,0,0.9-0.2,0.9-0.8v-2.2h-0.3v0.3h0c-0.1-0.1-0.2-0.4-0.6-0.4c-0.5,0-0.9,0.4-0.9,1.1c0,0.7,0.4,1,0.9,1c0.4,0,0.5-0.2,0.6-0.4
		h0v0.4c0,0.4-0.2,0.5-0.6,0.5c-0.4,0-0.5-0.2-0.6-0.3l-0.3,0.2C472.2,320,472.5,320.2,473,320.2z M473,319.1
		c-0.4,0-0.6-0.3-0.6-0.7c0-0.4,0.2-0.8,0.6-0.8c0.4,0,0.6,0.3,0.6,0.8C473.6,318.8,473.3,319.1,473,319.1z"/>
	<path style="clip-path:url(#SVGID_00000132792665202220053850000007268291039308579506_);fill:#FFFFFF;fill-opacity:0.1;" d="
		M486.1,240.4h-0.3v70.1h0.3V240.4z"/>
	<path style="clip-path:url(#SVGID_00000132792665202220053850000007268291039308579506_);fill:#5D657B;" d="M483.8,317.3h0.3
		c0-0.4-0.4-0.7-1-0.7c-0.5,0-1,0.3-1,0.8c0,0.4,0.3,0.6,0.7,0.7l0.3,0.1c0.3,0.1,0.6,0.2,0.6,0.5c0,0.3-0.3,0.5-0.7,0.5
		c-0.3,0-0.6-0.1-0.7-0.5h-0.4c0,0.5,0.4,0.8,1,0.8c0.6,0,1-0.4,1-0.8c0-0.5-0.5-0.7-0.8-0.8l-0.3-0.1c-0.2-0.1-0.5-0.2-0.5-0.5
		c0-0.3,0.2-0.5,0.6-0.5C483.5,316.8,483.8,317,483.8,317.3z M485.6,319.4c0.4,0,0.7-0.2,0.8-0.5l-0.3-0.1c-0.1,0.2-0.3,0.3-0.5,0.3
		c-0.4,0-0.6-0.2-0.7-0.7h1.5v-0.1c0-0.8-0.5-1.1-0.9-1.1c-0.6,0-1,0.5-1,1.1C484.6,319,485,319.4,485.6,319.4z M484.9,318.2
		c0-0.3,0.3-0.6,0.6-0.6c0.4,0,0.6,0.3,0.6,0.6H484.9z M486.9,320.2h0.3v-1.1h0c0.1,0.1,0.2,0.4,0.6,0.4c0.5,0,0.9-0.4,0.9-1.1
		c0-0.7-0.4-1.1-0.9-1.1c-0.4,0-0.5,0.3-0.6,0.4h0v-0.3h-0.3V320.2z M487.3,318.3c0-0.5,0.2-0.8,0.6-0.8c0.4,0,0.6,0.3,0.6,0.8
		c0,0.5-0.2,0.8-0.6,0.8C487.5,319.2,487.3,318.8,487.3,318.3z"/>
	<path style="clip-path:url(#SVGID_00000132792665202220053850000007268291039308579506_);fill:#FFFFFF;fill-opacity:0.1;" d="
		M500.5,240.4h-0.3v70.1h0.3V240.4z"/>
	<path style="clip-path:url(#SVGID_00000132792665202220053850000007268291039308579506_);fill:#5D657B;" d="M499.3,318
		c0-0.9-0.5-1.4-1.2-1.4c-0.7,0-1.2,0.6-1.2,1.4c0,0.9,0.5,1.5,1.2,1.5C498.8,319.4,499.3,318.9,499.3,318z M499,318
		c0,0.7-0.4,1.1-0.9,1.1c-0.5,0-0.9-0.4-0.9-1.1c0-0.7,0.4-1.1,0.9-1.1C498.6,316.9,499,317.3,499,318z M500.7,319.4
		c0.5,0,0.8-0.3,0.8-0.7h-0.3c-0.1,0.2-0.3,0.4-0.5,0.4c-0.4,0-0.6-0.3-0.6-0.8c0-0.5,0.3-0.8,0.6-0.8c0.3,0,0.5,0.2,0.5,0.4h0.3
		c-0.1-0.4-0.4-0.7-0.8-0.7c-0.6,0-1,0.5-1,1.1C499.8,319,500.1,319.4,500.7,319.4z M502.9,317.3h-0.5v-0.5h-0.3v0.5h-0.3v0.3h0.3
		v1.3c0,0.4,0.3,0.5,0.6,0.5c0.1,0,0.2,0,0.2,0l-0.1-0.3c0,0-0.1,0-0.1,0c-0.1,0-0.3,0-0.3-0.3v-1.2h0.5V317.3z"/>
	<g style="clip-path:url(#SVGID_00000132792665202220053850000007268291039308579506_);">
		<path class="st17" d="M500.4,257.2c0.2,0.1,0.2,0.4,0.1,0.6c-1.7,2.6-3.1,5.8-4.5,8.9l0,0.1c-1.4,3.1-2.8,6.2-4.4,8.6
			c-1.6,2.3-3.6,4-6.1,4.2c-2.5,0.1-5.5-1.2-9.2-4.6c-3.7-3.2-6.5-5.1-9.5-5.3c-3.1-0.2-6.5,1.3-11.5,5.3
			c-6.8,5.4-16.2,3.5-21.1-0.9l0.3-0.3l-0.3,0.3c-0.8-0.7-1.4-1.5-2.1-2.3c-0.2-0.3-0.4-0.5-0.6-0.7c-0.9-1-1.7-1.9-2.8-2.4
			c-0.9-0.4-1.7-0.5-2.4-0.4c-0.7,0.1-1.4,0.5-2.1,1.1c-1,0.8-1.9,2-2.9,3.1c-0.3,0.4-0.6,0.8-1,1.2c-1.3,1.5-2.7,2.9-4.4,3.2
			c-1.8,0.3-3.7-0.6-6.1-3.3c-2.6-2.9-5-5.4-7.4-7.1c-2.3-1.7-4.5-2.6-6.6-2.4c-2.1,0.2-4.1,1.4-6.2,4c-2.1,2.7-4.1,6.7-6.1,12.6
			c-1.7,4.8-3.7,7.2-5.9,7.9c-2.2,0.7-4.5-0.4-6.6-1.9c-1.7-1.3-3.4-2.9-4.9-4.4c-0.3-0.3-0.7-0.7-1-1c-0.9-0.9-1.7-1.6-2.4-2.1
			c-0.7-0.5-1.2-0.7-1.6-0.7c-0.2,0-0.4-0.2-0.4-0.4c0-0.2,0.2-0.4,0.4-0.4c0.7-0.1,1.4,0.3,2.2,0.9c0.7,0.6,1.6,1.3,2.4,2.2
			c0.3,0.3,0.7,0.6,1,1c1.5,1.5,3.1,3.1,4.8,4.3c2.1,1.5,4.1,2.3,5.9,1.8c1.8-0.6,3.7-2.6,5.4-7.4c2-5.9,4.1-10.1,6.3-12.8
			c2.2-2.8,4.4-4.1,6.8-4.3c2.4-0.2,4.7,0.8,7.2,2.5c2.4,1.7,4.9,4.3,7.5,7.2c2.3,2.6,4,3.2,5.3,3c1.4-0.2,2.6-1.4,3.9-2.9
			c0.3-0.4,0.6-0.7,0.9-1.1c1-1.2,2-2.4,3.1-3.3c0.7-0.6,1.5-1,2.4-1.2c0.9-0.2,1.9-0.1,2.9,0.4c1.3,0.6,2.3,1.6,3.1,2.6
			c0.2,0.3,0.4,0.5,0.7,0.8c0.6,0.8,1.2,1.5,2,2.2c4.7,4.2,13.6,6,20.1,0.9c5-4,8.7-5.7,12.1-5.5c3.4,0.2,6.4,2.3,10,5.5l0,0l0,0
			c3.7,3.3,6.4,4.5,8.6,4.4c2.2-0.1,3.9-1.5,5.5-3.8c1.6-2.3,2.9-5.3,4.3-8.4l0.1-0.1c1.4-3.1,2.8-6.3,4.5-9
			C500,257.2,500.2,257.1,500.4,257.2z"/>
	</g>
	<g style="clip-path:url(#SVGID_00000132792665202220053850000007268291039308579506_);">
		<path class="st18" d="M441,267.3c-2,0.5-4.3,2.4-7,6.8c-1,1.7-1.9,3.2-2.8,4.6c-2,3.3-3.5,5.8-4.9,7.8c-0.9,1.4-1.8,2.5-2.6,3.2
			c-0.8,0.8-1.6,1.3-2.4,1.5c-1.7,0.4-3.4-0.4-5.6-1.9c-1.2-0.8-2.5-1.9-4.2-3.1c-1.4-1.1-3.1-2.4-5-3.8c-4.5-3.3-7.8-5.2-10.4-6.2
			c-2.6-0.9-4.5-0.8-6.2,0c-1.7,0.8-3.2,2.4-5.1,4.6c-0.5,0.6-1.1,1.3-1.6,2c-1.4,1.8-3.1,3.8-5,6c-2.6,2.9-4.8,3.9-6.8,3.5
			c-1.9-0.4-3.4-2.2-4.6-4.3c-1.2-2.1-2.2-4.7-3.1-7.2c0-0.1-0.1-0.2-0.1-0.3c-1-2.6-1.9-4.9-2.9-6.4c-0.1-0.2-0.1-0.5,0.1-0.6
			c0.2-0.1,0.5-0.1,0.6,0.1c1.1,1.6,2,4.1,3,6.6c0,0.1,0.1,0.2,0.1,0.3c0.9,2.5,1.9,5,3.1,7.1c1.2,2.1,2.5,3.6,4.1,3.9
			c1.5,0.3,3.5-0.4,6-3.2l0.3,0.3l-0.3-0.3c2-2.1,3.6-4.1,5-5.9c0.6-0.7,1.1-1.4,1.7-2c1.8-2.2,3.5-3.9,5.3-4.8c1.9-0.9,4-1,6.8,0
			c2.7,1,6.1,3,10.6,6.3c1.9,1.4,3.6,2.7,5,3.8c1.6,1.2,2.9,2.3,4.1,3.1c2.2,1.5,3.6,2.1,4.9,1.8c0.6-0.2,1.3-0.6,2-1.3
			c0.7-0.7,1.5-1.8,2.5-3.1c1.3-1.9,2.9-4.4,4.8-7.7c0.9-1.4,1.8-2.9,2.8-4.6l0.4,0.2l-0.4-0.2c2.7-4.4,5.2-6.6,7.6-7.2
			c2.4-0.6,4.4,0.6,6.2,2.5s3.3,4.5,4.7,7.1c0.4,0.8,0.8,1.5,1.2,2.3c0.9,1.8,1.8,3.5,2.6,4.7c2.3,3.6,5,5.4,7.9,5.8
			c2.9,0.3,6.2-0.9,9.9-3.8c1.9-1.5,3.7-2.3,5.4-2.5c1.7-0.3,3.2,0,4.7,0.7c2.8,1.4,5.2,4.3,7.2,7.5c1,1.6,2,3.3,2.9,4.9
			c0.1,0.2,0.2,0.3,0.3,0.5c0.8,1.4,1.6,2.8,2.3,3.9c0.8,1.3,1.6,2.4,2.3,3.1c0.8,0.7,1.4,1,2,0.9c0.2,0,0.4,0.1,0.5,0.3
			c0,0.2-0.1,0.4-0.3,0.5c-1,0.2-1.9-0.3-2.7-1.1c-0.8-0.8-1.7-1.9-2.5-3.2c-0.8-1.2-1.5-2.6-2.3-4c-0.1-0.2-0.2-0.3-0.3-0.5
			c-0.9-1.6-1.9-3.3-2.9-4.8c-2-3.2-4.3-5.9-6.9-7.2c-1.3-0.6-2.7-0.9-4.2-0.7c-1.5,0.2-3.2,1-5,2.4c-3.8,2.9-7.3,4.3-10.5,3.9
			c-3.2-0.4-6.1-2.4-8.5-6.1c-0.9-1.3-1.7-3-2.7-4.8c-0.4-0.7-0.8-1.5-1.2-2.2c-1.4-2.6-2.9-5.2-4.6-7
			C444.7,267.7,442.9,266.8,441,267.3z"/>
	</g>
	<g style="clip-path:url(#SVGID_00000132792665202220053850000007268291039308579506_);">
		<path class="st19" d="M451.5,279.8c2.4,0,4.3-1.9,4.3-4.3c0-2.4-1.9-4.3-4.3-4.3c-2.4,0-4.3,1.9-4.3,4.3
			C447.2,277.9,449.2,279.8,451.5,279.8z"/>
		<path class="st20" d="M451.5,273.4c-1.2,0-2.1,0.9-2.1,2.1s0.9,2.1,2.1,2.1c1.2,0,2.1-0.9,2.1-2.1S452.7,273.4,451.5,273.4z
			 M447.2,275.5c0-2.4,1.9-4.3,4.3-4.3c2.4,0,4.3,1.9,4.3,4.3c0,2.4-1.9,4.3-4.3,4.3C449.2,279.8,447.2,277.9,447.2,275.5z"/>
	</g>
</g>
</svg>
