<?xml version="1.0" encoding="utf-8"?>
<!-- Generator: Adobe Illustrator 28.1.0, SVG Export Plug-In . SVG Version: 6.00 Build 0)  -->
<svg version="1.1" id="Layer_1" xmlns="http://www.w3.org/2000/svg" xmlns:xlink="http://www.w3.org/1999/xlink" x="0px" y="0px"
	 viewBox="0 0 588 500" style="enable-background:new 0 0 588 500;" xml:space="preserve">
<style type="text/css">
	.st0{fill:url(#SVGID_1_);}
	.st1{fill:#181C31;}
	.st2{fill:#292E45;}
	.st3{fill:#77F28A;}
	.st4{fill:#EF5C00;}
	.st5{fill:#FFDB26;}
	.st6{opacity:0.1;fill:none;stroke:#5D657B;enable-background:new    ;}
	.st7{fill:#FFFFFF;}
	.st8{fill:#5D657B;}
	.st9{fill:#FCE4E4;}
	.st10{fill:#EB5757;}
	.st11{fill:#2F80ED;}
	.st12{fill:#262D3F;}
	.st13{fill:none;}
</style>
<g>
	
		<linearGradient id="SVGID_1_" gradientUnits="userSpaceOnUse" x1="-1778" y1="-78" x2="-1778" y2="422" gradientTransform="matrix(-1 0 0 -1 -1484 422)">
		<stop  offset="0" style="stop-color:#252A42;stop-opacity:0"/>
		<stop  offset="1" style="stop-color:#24283E"/>
	</linearGradient>
	<path class="st0" d="M580,500H8c-4.4,0-8-3.6-8-8V8c0-4.4,3.6-8,8-8h572c4.4,0,8,3.6,8,8v484C588,496.4,584.4,500,580,500z"/>
	<path class="st1" d="M127.3,58.3h340.4c1.3,0,2.6,0.5,3.5,1.5c0.9,0.9,1.5,2.2,1.5,3.5v20.2H122.3V63.3c0-1.3,0.5-2.6,1.5-3.5
		C124.7,58.9,126,58.3,127.3,58.3L127.3,58.3z"/>
	<g>
		<path class="st2" d="M122,83h350v322.2c0,1.3-0.5,2.5-1.5,3.4c-0.9,0.9-2.2,1.4-3.5,1.4H127c-1.3,0-2.6-0.5-3.5-1.4
			s-1.5-2.1-1.5-3.4V83z"/>
	</g>
	<path class="st3" d="M161.1,73.7c1.4,0,2.5-1.1,2.5-2.5s-1.1-2.5-2.5-2.5s-2.5,1.1-2.5,2.5C158.7,72.6,159.8,73.7,161.1,73.7z"/>
	<path class="st4" d="M143.2,73.7c1.4,0,2.5-1.1,2.5-2.5s-1.1-2.5-2.5-2.5s-2.5,1.1-2.5,2.5S141.8,73.7,143.2,73.7z"/>
	<path class="st5" d="M152,73.7c1.4,0,2.5-1.1,2.5-2.5s-1.1-2.5-2.5-2.5s-2.5,1.1-2.5,2.5S150.6,73.7,152,73.7z"/>
	<path class="st6" d="M160,176.9h273.2"/>
	<path class="st7" d="M202.4,150.2l0.6-1.7h2.6l0.6,1.7h1.1l-2.4-6.6h-1.1l-2.4,6.6H202.4z M203.3,147.6l1-2.8h0.1l1,2.8H203.3z
		 M208.1,150.2h1v-3c0-0.6,0.5-1.1,1.2-1.1c0.2,0,0.4,0,0.5,0.1v-0.9c-0.1,0-0.3,0-0.4,0c-0.6,0-1.1,0.3-1.2,0.9H209v-0.8h-0.9
		V150.2z M212.5,143.6h-1v6.6h1V143.6z M215.9,150.3c1.1,0,1.8-0.5,2-1.3l-0.9-0.2c-0.2,0.5-0.6,0.7-1.1,0.7c-0.8,0-1.4-0.5-1.4-1.5
		h3.5v-0.3c0-1.8-1.1-2.5-2.2-2.5c-1.4,0-2.3,1-2.3,2.6C213.5,149.3,214.4,150.3,215.9,150.3z M214.5,147.3c0-0.7,0.5-1.3,1.3-1.3
		c0.7,0,1.2,0.6,1.2,1.3H214.5z M220,147.2c0-0.8,0.5-1.2,1.1-1.2s1,0.4,1,1.1v3h1V147c0-1.2-0.7-1.9-1.7-1.9
		c-0.7,0-1.2,0.3-1.5,0.9h0.1v-0.8h-0.9v4.9h1v-2.9H220z M226.6,150.3c1.1,0,1.8-0.5,2-1.3l-0.9-0.2c-0.2,0.5-0.6,0.7-1.1,0.7
		c-0.8,0-1.4-0.5-1.4-1.5h3.5v-0.3c0-1.8-1.1-2.5-2.2-2.5c-1.4,0-2.3,1-2.3,2.6C224.2,149.3,225.1,150.3,226.6,150.3z M225.2,147.3
		c0-0.7,0.5-1.3,1.3-1.3c0.7,0,1.2,0.6,1.2,1.3H225.2z M232.2,143.6v6.6h0.9v-4.7h0.1l1.9,4.7h0.8l1.9-4.7h0.1v4.7h0.9v-6.6h-1.2
		l-2.1,5.1h-0.1l-2.1-5.1H232.2z M242.3,150.3c1.2,0,1.9-0.7,2-1.7h-0.9c-0.1,0.5-0.5,0.8-1.1,0.8c-0.8,0-1.3-0.7-1.3-1.7
		c0-1.1,0.5-1.7,1.3-1.7c0.6,0,1,0.4,1.1,0.8h0.9c-0.1-1-0.9-1.7-2-1.7c-1.4,0-2.3,1-2.3,2.5C240,149.2,240.8,150.3,242.3,150.3z
		 M250.8,145.7c-0.2-1.4-1.3-2.2-2.7-2.2c-1.7,0-2.9,1.3-2.9,3.4c0,2.1,1.2,3.4,2.9,3.4c1.4,0,2.5-0.9,2.7-2.2h-1
		c-0.2,0.8-0.9,1.3-1.7,1.3c-1.1,0-2-0.9-2-2.5s0.8-2.5,2-2.5c0.8,0,1.5,0.5,1.7,1.3H250.8z M254,150.3c1.4,0,2.3-1,2.3-2.5
		s-0.9-2.5-2.3-2.5c-1.4,0-2.3,1-2.3,2.5C251.7,149.2,252.6,150.3,254,150.3z M254,149.4c-0.9,0-1.3-0.8-1.3-1.7s0.4-1.7,1.3-1.7
		c0.9,0,1.3,0.8,1.3,1.7C255.3,148.7,254.9,149.4,254,149.4z M257.8,152c0.8,0,1.3-0.4,1.6-1.2l2-5.6h-1l-1.2,3.8h-0.1l-1.2-3.8h-1
		l1.8,5l-0.1,0.3c-0.2,0.7-0.6,0.7-1.1,0.6l-0.2,0.8C257.3,151.9,257.5,152,257.8,152z"/>
	<path class="st8" d="M203.6,165.4c1.2,0,1.9-0.9,1.9-1.9c0-1.1-0.8-1.9-1.8-1.9c-0.6,0-1.1,0.3-1.4,0.8l0,0c0-1.4,0.5-2.2,1.4-2.2
		c0.6,0,1,0.4,1.1,0.9h0.7c-0.1-0.9-0.8-1.5-1.8-1.5c-1.3,0-2.1,1.1-2.1,3.2C201.6,164.8,202.7,165.4,203.6,165.4z M203.6,164.8
		c-0.7,0-1.2-0.6-1.2-1.3s0.6-1.3,1.3-1.3s1.2,0.6,1.2,1.3C204.9,164.2,204.3,164.8,203.6,164.8z M208.6,165.4
		c1.1,0,1.9-0.7,1.9-1.6c0-0.7-0.4-1.3-1.2-1.4l0,0c0.6-0.2,0.9-0.7,0.9-1.3c0-0.8-0.6-1.5-1.7-1.5c-1,0-1.8,0.6-1.8,1.5h0.7
		c0-0.6,0.6-0.9,1.2-0.9c0.6,0,1,0.4,1,1s-0.5,1-1.2,1H208v0.6h0.5c0.9,0,1.4,0.4,1.4,1.1c0,0.6-0.5,1-1.3,1c-0.7,0-1.2-0.3-1.2-0.9
		h-0.7C206.7,164.8,207.5,165.4,208.6,165.4z M213.5,159.5c-1.2,0-1.9,0.9-1.9,1.9c0,1.1,0.8,1.9,1.8,1.9c0.6,0,1.1-0.3,1.4-0.8l0,0
		c0,1.4-0.5,2.2-1.4,2.2c-0.6,0-1-0.4-1.1-0.9h-0.7c0.1,0.9,0.8,1.5,1.8,1.5c1.3,0,2.1-1.1,2.1-3.2
		C215.5,160.1,214.4,159.6,213.5,159.5z M213.5,160.2c0.7,0,1.2,0.6,1.2,1.3s-0.6,1.3-1.3,1.3s-1.2-0.6-1.2-1.3
		S212.8,160.2,213.5,160.2z M218.6,159.6h-0.7l-1.4,1v0.7l1.4-0.9l0,0v5h0.7V159.6z M222.6,165.4h3.5v-0.6h-2.8v-1.9h2.6v-0.6h-2.6
		v-1.9h2.8v-0.6h-3.5V165.4z M227.8,159.6h-0.7v5.7h0.7V159.6z M230.8,167.1c1,0,1.9-0.5,1.9-1.6v-4.4H232v0.7h-0.1
		c-0.1-0.2-0.4-0.7-1.3-0.7c-1.1,0-1.8,0.9-1.8,2.2s0.8,2.1,1.8,2.1c0.8,0,1.1-0.5,1.3-0.7h0.1v0.9c0,0.7-0.5,1-1.2,1
		c-0.8,0-1.1-0.4-1.2-0.7l-0.5,0.4C229.3,166.6,229.8,167.1,230.8,167.1z M230.8,164.7c-0.8,0-1.3-0.6-1.3-1.5s0.4-1.6,1.3-1.6
		c0.8,0,1.2,0.6,1.2,1.6C232,164.1,231.6,164.7,230.8,164.7z M233.9,165.4h0.7v-4.3h-0.7V165.4z M234.2,160.3c0.3,0,0.5-0.2,0.5-0.4
		s-0.2-0.4-0.5-0.4s-0.5,0.2-0.5,0.4S233.9,160.3,234.2,160.3z M236.4,162.8c0-0.8,0.5-1.2,1.1-1.2s1,0.4,1,1.1v2.7h0.7v-2.7
		c0-1.1-0.6-1.6-1.5-1.6c-0.6,0-1.1,0.3-1.3,0.7h-0.1v-0.7h-0.6v4.3h0.7L236.4,162.8L236.4,162.8z M245.8,161.1h0.7
		c0-0.9-0.8-1.5-1.9-1.5c-1.1,0-2,0.6-2,1.6c0,0.8,0.6,1.2,1.5,1.5l0.7,0.2c0.6,0.2,1.1,0.4,1.1,1s-0.6,1-1.4,1
		c-0.7,0-1.3-0.3-1.3-1h-0.7c0.1,0.9,0.8,1.6,2.1,1.6s2.1-0.7,2.1-1.7c0-1.1-1-1.4-1.6-1.6l-0.6-0.2c-0.4-0.1-1.1-0.3-1.1-1
		c0-0.5,0.5-1,1.3-1C245.2,160.2,245.7,160.5,245.8,161.1z M249.5,161.1h-0.9v-1h-0.7v1h-0.6v0.6h0.6v2.7c0,0.8,0.6,1.1,1.2,1.1
		c0.2,0,0.4,0,0.5-0.1l-0.1-0.6c-0.1,0-0.1,0-0.3,0c-0.3,0-0.6-0.1-0.6-0.6v-2.5h0.9L249.5,161.1L249.5,161.1z M250.9,165.4
		c0.3,0,0.5-0.2,0.5-0.5s-0.2-0.5-0.5-0.5s-0.5,0.2-0.5,0.5S250.6,165.4,250.9,165.4z M259.5,161.4c-0.2-1.2-1.2-1.9-2.3-1.9
		c-1.5,0-2.5,1.1-2.5,2.9c0,1.8,1.1,2.9,2.5,2.9c1.2,0,2.1-0.7,2.3-1.9h-0.7c-0.2,0.8-0.9,1.2-1.6,1.2c-1,0-1.9-0.8-1.9-2.3
		s0.8-2.3,1.9-2.3c0.8,0,1.4,0.4,1.6,1.2h0.7V161.4z M262.4,165.4c0.9,0,1.5-0.4,1.7-1.1l-0.6-0.2c-0.2,0.4-0.6,0.7-1.1,0.7
		c-0.8,0-1.3-0.5-1.3-1.4h3.1v-0.3c0-1.6-1-2.1-1.8-2.1c-1.2,0-1.9,0.9-1.9,2.2C260.4,164.6,261.1,165.4,262.4,165.4z M261,162.9
		c0-0.7,0.5-1.3,1.3-1.3c0.7,0,1.2,0.5,1.2,1.3H261z M265.8,159.6h-0.7v5.7h0.7V159.6z M267,165.4h0.7v-4.3H267V165.4z M267.4,160.3
		c0.3,0,0.5-0.2,0.5-0.4s-0.2-0.4-0.5-0.4s-0.5,0.2-0.5,0.4S267.1,160.3,267.4,160.3z M269.6,162.8c0-0.8,0.5-1.2,1.1-1.2
		s1,0.4,1,1.1v2.7h0.7v-2.7c0-1.1-0.6-1.6-1.5-1.6c-0.6,0-1.1,0.3-1.3,0.7h-0.1v-0.7h-0.6v4.3h0.7L269.6,162.8L269.6,162.8z
		 M274.8,165.5c0.8,0,1.1-0.4,1.3-0.7l0,0v0.6h0.7v-2.8c0-1.4-1-1.5-1.6-1.5s-1.4,0.2-1.7,1l0.6,0.2c0.1-0.3,0.5-0.6,1.1-0.6
		s0.9,0.3,0.9,0.9l0,0c0,0.3-0.3,0.3-1.1,0.4c-0.8,0.1-1.7,0.3-1.7,1.3C273.3,165,274,165.5,274.8,165.5z M274.9,164.9
		c-0.5,0-0.9-0.2-0.9-0.7s0.5-0.7,1-0.7c0.3,0,1-0.1,1.1-0.2v0.6C276.1,164.3,275.7,164.9,274.9,164.9z M278.9,164.6h-0.7v0.3
		c-0.1,0.8-0.2,1.5-0.3,1.9h0.5c0.1-0.4,0.4-1.2,0.5-1.9V164.6z M284.2,165.4c1.7,0,2.7-1.1,2.7-2.9c0-1.8-1-2.9-2.7-2.9h-1.8v5.7
		L284.2,165.4L284.2,165.4z M283.2,164.7v-4.5h1.1c1.3,0,2,0.9,2,2.2c0,1.4-0.7,2.3-2.1,2.3H283.2z M289.9,165.4
		c0.9,0,1.5-0.4,1.7-1.1l-0.6-0.2c-0.2,0.4-0.6,0.7-1.1,0.7c-0.8,0-1.3-0.5-1.3-1.4h3.1v-0.3c0-1.6-1-2.1-1.8-2.1
		c-1.2,0-1.9,0.9-1.9,2.2C287.9,164.6,288.6,165.4,289.9,165.4z M288.5,162.9c0-0.7,0.5-1.3,1.3-1.3c0.7,0,1.2,0.5,1.2,1.3H288.5z
		 M293.3,159.6h-0.7v5.7h0.7V159.6z M295.8,165.5c0.8,0,1.1-0.4,1.3-0.7l0,0v0.6h0.7v-2.8c0-1.4-1-1.5-1.6-1.5s-1.4,0.2-1.7,1
		l0.6,0.2c0.1-0.3,0.5-0.6,1.1-0.6s0.9,0.3,0.9,0.9l0,0c0,0.3-0.3,0.3-1.1,0.4c-0.8,0.1-1.7,0.3-1.7,1.3
		C294.3,165,295,165.5,295.8,165.5z M295.9,164.9c-0.5,0-0.9-0.2-0.9-0.7s0.5-0.7,1-0.7c0.3,0,1-0.1,1.1-0.2v0.6
		C297.1,164.3,296.7,164.9,295.9,164.9z M299.9,165.4h0.6l0.9-3.3h0.1l0.9,3.3h0.6l1.3-4.3h-0.7l-0.9,3.3l0,0l-0.9-3.3h-0.7
		l-0.9,3.3l0,0l-0.9-3.3h-0.7L299.9,165.4z M306.6,165.5c0.8,0,1.1-0.4,1.3-0.7l0,0v0.6h0.7v-2.8c0-1.4-1-1.5-1.6-1.5
		s-1.4,0.2-1.7,1l0.6,0.2c0.1-0.3,0.5-0.6,1.1-0.6s0.9,0.3,0.9,0.9l0,0c0,0.3-0.3,0.3-1.1,0.4c-0.8,0.1-1.7,0.3-1.7,1.3
		C305.2,165,305.8,165.5,306.6,165.5z M306.7,164.9c-0.5,0-0.9-0.2-0.9-0.7s0.5-0.7,1-0.7c0.3,0,1-0.1,1.1-0.2v0.6
		C307.9,164.3,307.5,164.9,306.7,164.9z M309.8,165.4h0.7v-2.7c0-0.6,0.5-1,1.1-1c0.2,0,0.4,0,0.4,0V161c-0.1,0-0.2,0-0.3,0
		c-0.5,0-1,0.3-1.1,0.7l0,0v-0.6H310v4.3H309.8z M314.4,165.4c0.9,0,1.5-0.4,1.7-1.1l-0.6-0.2c-0.2,0.4-0.6,0.7-1.1,0.7
		c-0.8,0-1.3-0.5-1.3-1.4h3.1v-0.3c0-1.6-1-2.1-1.8-2.1c-1.2,0-1.9,0.9-1.9,2.2C312.4,164.6,313.2,165.4,314.4,165.4z M313.1,162.9
		c0-0.7,0.5-1.3,1.3-1.3c0.7,0,1.2,0.5,1.2,1.3H313.1z M318.2,164.6h-0.7v0.3c-0.1,0.8-0.2,1.5-0.3,1.9h0.5c0.1-0.4,0.4-1.2,0.5-1.9
		V164.6z M320.4,164.6h-0.7v0.3c-0.1,0.8-0.2,1.5-0.3,1.9h0.5c0.1-0.4,0.4-1.2,0.5-1.9V164.6z M322.6,164.6h-0.7v0.3
		c-0.1,0.8-0.2,1.5-0.3,1.9h0.5c0.1-0.4,0.4-1.2,0.5-1.9V164.6z"/>
	<path class="st9" d="M382.5,146.2h-18c-5.9,0-10.7,4.8-10.7,10.7s4.8,10.7,10.7,10.7h18c5.9,0,10.7-4.8,10.7-10.7
		S388.4,146.2,382.5,146.2z"/>
	<path class="st10" d="M365.8,155.8h-0.7c-0.1-0.3-0.2-0.5-0.3-0.7c-0.2-0.2-0.4-0.3-0.6-0.4s-0.5-0.1-0.7-0.1
		c-0.3,0-0.7,0.1-0.9,0.3c-0.3,0.2-0.5,0.4-0.7,0.8c-0.2,0.3-0.2,0.8-0.2,1.3s0.1,0.9,0.2,1.3c0.2,0.3,0.4,0.6,0.7,0.8
		c0.3,0.2,0.6,0.3,0.9,0.3s0.5,0,0.7-0.1s0.4-0.2,0.6-0.4s0.3-0.4,0.3-0.7h0.7c-0.1,0.4-0.2,0.7-0.4,1c-0.2,0.3-0.5,0.5-0.8,0.6
		s-0.7,0.2-1.1,0.2c-0.5,0-0.9-0.1-1.3-0.4c-0.4-0.2-0.7-0.6-0.9-1c-0.2-0.4-0.3-1-0.3-1.6s0.1-1.1,0.3-1.6c0.2-0.4,0.5-0.8,0.9-1
		s0.8-0.4,1.3-0.4c0.4,0,0.7,0.1,1.1,0.2c0.3,0.1,0.6,0.4,0.8,0.6C365.6,155.1,365.7,155.4,365.8,155.8z M368.1,159.8
		c-0.3,0-0.5-0.1-0.7-0.2c-0.2-0.1-0.4-0.3-0.5-0.5s-0.2-0.4-0.2-0.7c0-0.2,0-0.4,0.1-0.6c0.1-0.2,0.2-0.3,0.4-0.4
		c0.2-0.1,0.3-0.2,0.5-0.2s0.4-0.1,0.6-0.1c0.3,0,0.5-0.1,0.6-0.1c0.2,0,0.3,0,0.4-0.1c0.1,0,0.1-0.1,0.1-0.2l0,0
		c0-0.3-0.1-0.5-0.2-0.6c-0.1-0.2-0.4-0.2-0.7-0.2c-0.3,0-0.6,0.1-0.7,0.2c-0.2,0.1-0.3,0.3-0.4,0.4l-0.6-0.2
		c0.1-0.3,0.3-0.5,0.4-0.6c0.2-0.1,0.4-0.2,0.6-0.3s0.4-0.1,0.7-0.1c0.1,0,0.3,0,0.5,0.1c0.2,0,0.4,0.1,0.5,0.2
		c0.2,0.1,0.3,0.3,0.4,0.5s0.2,0.5,0.2,0.8v2.8h-0.7v-0.6l0,0c0,0.1-0.1,0.2-0.2,0.3s-0.2,0.2-0.4,0.3
		C368.6,159.8,368.4,159.8,368.1,159.8z M368.2,159.2c0.3,0,0.5-0.1,0.7-0.2c0.2-0.1,0.3-0.2,0.4-0.4s0.1-0.3,0.1-0.5v-0.6
		c0,0-0.1,0.1-0.2,0.1s-0.2,0-0.3,0.1c-0.1,0-0.2,0-0.4,0c-0.1,0-0.2,0-0.3,0c-0.2,0-0.3,0.1-0.5,0.1c-0.1,0-0.3,0.1-0.4,0.2
		c-0.1,0.1-0.1,0.2-0.1,0.4s0.1,0.4,0.3,0.5C367.7,159.2,367.9,159.2,368.2,159.2z M371.9,157.1v2.6h-0.7v-4.3h0.6v0.7h0.1
		c0.1-0.2,0.3-0.4,0.5-0.5s0.5-0.2,0.8-0.2c0.4,0,0.8,0.1,1.1,0.4c0.3,0.3,0.4,0.7,0.4,1.2v2.7H374V157c0-0.3-0.1-0.6-0.3-0.8
		c-0.2-0.2-0.4-0.3-0.7-0.3c-0.3,0-0.6,0.1-0.8,0.3C372.1,156.5,371.9,156.8,371.9,157.1z M377.6,159.8c-0.4,0-0.8-0.1-1-0.3
		c-0.3-0.2-0.5-0.5-0.7-0.8s-0.2-0.7-0.2-1.1c0-0.4,0.1-0.8,0.2-1.2c0.2-0.3,0.4-0.6,0.7-0.8c0.3-0.2,0.6-0.3,1-0.3
		c0.3,0,0.6,0.1,0.8,0.2c0.2,0.1,0.4,0.3,0.6,0.5s0.2,0.4,0.3,0.7h-0.7c0-0.2-0.2-0.4-0.3-0.5c-0.2-0.2-0.4-0.2-0.7-0.2
		c-0.4,0-0.7,0.1-0.9,0.4c-0.2,0.3-0.4,0.7-0.4,1.2s0.1,0.9,0.4,1.2c0.2,0.3,0.5,0.4,0.9,0.4c0.3,0,0.5-0.1,0.7-0.2
		c0.2-0.1,0.3-0.3,0.4-0.6h0.7c0,0.3-0.1,0.5-0.3,0.7c-0.1,0.2-0.3,0.4-0.6,0.5C378.2,159.8,378,159.8,377.6,159.8z M382.1,159.8
		c-0.4,0-0.8-0.1-1.1-0.3c-0.3-0.2-0.5-0.4-0.7-0.8c-0.2-0.3-0.2-0.7-0.2-1.2c0-0.4,0.1-0.8,0.2-1.2c0.2-0.3,0.4-0.6,0.7-0.8
		c0.3-0.2,0.6-0.3,1-0.3c0.2,0,0.4,0,0.7,0.1c0.2,0.1,0.4,0.2,0.6,0.4s0.3,0.4,0.4,0.7s0.2,0.6,0.2,1v0.3h-3.1
		c0,0.5,0.1,0.8,0.4,1.1c0.2,0.2,0.6,0.4,1,0.4c0.3,0,0.5-0.1,0.7-0.2c0.2-0.1,0.3-0.3,0.4-0.5l0.6,0.2c-0.1,0.3-0.3,0.6-0.6,0.8
		C382.9,159.7,382.5,159.8,382.1,159.8z M380.8,157.2h2.4c0-0.4-0.1-0.7-0.3-0.9c-0.2-0.2-0.5-0.4-0.9-0.4c-0.3,0-0.5,0.1-0.7,0.2
		c-0.2,0.1-0.3,0.3-0.4,0.5S380.8,157,380.8,157.2z M385.6,154v5.7h-0.7V154H385.6z"/>
	<path class="st11" d="M422.5,146.2h-7.3c-5.9,0-10.7,4.8-10.7,10.7s4.8,10.7,10.7,10.7h7.3c5.9,0,10.7-4.8,10.7-10.7
		S428.4,146.2,422.5,146.2z"/>
	<path class="st7" d="M412.1,159.7h-0.7l2.1-5.7h0.7l2.1,5.7h-0.7l-0.6-1.6h-2.3L412.1,159.7z M412.9,157.5h1.9l-0.9-2.6l0,0
		L412.9,157.5z M418.8,159.8c-0.4,0-0.7-0.1-0.9-0.3c-0.3-0.2-0.5-0.4-0.6-0.8c-0.2-0.3-0.2-0.7-0.2-1.2s0.1-0.8,0.2-1.2
		c0.2-0.3,0.4-0.6,0.6-0.8c0.3-0.2,0.6-0.3,1-0.3c0.3,0,0.5,0,0.7,0.1s0.3,0.2,0.4,0.3s0.2,0.2,0.2,0.3h0.1V154h0.7v5.7h-0.6V159
		H420c0,0.1-0.1,0.2-0.2,0.3s-0.2,0.2-0.4,0.3C419.2,159.8,419,159.8,418.8,159.8z M418.8,159.2c0.4,0,0.7-0.2,0.9-0.5
		c0.2-0.3,0.3-0.7,0.3-1.2s-0.1-0.9-0.3-1.2c-0.2-0.3-0.5-0.4-0.9-0.4c-0.3,0-0.5,0.1-0.7,0.2c-0.2,0.1-0.3,0.3-0.4,0.6
		c-0.1,0.2-0.1,0.5-0.1,0.8s0,0.6,0.1,0.8s0.2,0.4,0.4,0.6C418.3,159.1,418.6,159.2,418.8,159.2z M423.6,159.8
		c-0.4,0-0.7-0.1-0.9-0.3c-0.3-0.2-0.5-0.4-0.6-0.8c-0.2-0.3-0.2-0.7-0.2-1.2s0.1-0.8,0.2-1.2s0.4-0.6,0.6-0.8s0.6-0.3,1-0.3
		c0.3,0,0.5,0,0.7,0.1s0.3,0.2,0.4,0.3s0.2,0.2,0.2,0.3h0.1V154h0.7v5.7H425V159h-0.1c0,0.1-0.1,0.2-0.2,0.3s-0.2,0.2-0.4,0.3
		C424.1,159.8,423.9,159.8,423.6,159.8z M423.7,159.2c0.4,0,0.7-0.2,0.9-0.5c0.2-0.3,0.3-0.7,0.3-1.2s-0.1-0.9-0.3-1.2
		c-0.2-0.3-0.5-0.4-0.9-0.4c-0.3,0-0.5,0.1-0.7,0.2c-0.2,0.1-0.3,0.3-0.4,0.6c-0.1,0.2-0.1,0.5-0.1,0.8s0,0.6,0.1,0.8
		s0.2,0.4,0.4,0.6C423.2,159.1,423.5,159.2,423.7,159.2z"/>
	<path class="st6" d="M160,228.7h273.2"/>
	<path class="st7" d="M201.8,202h1v-2.5h1.3c0,0,0,0,0.1,0l1.3,2.5h1.1l-1.5-2.7c0.8-0.3,1.2-1,1.2-1.8c0-1.2-0.7-2.1-2.3-2.1h-2.3
		L201.8,202L201.8,202z M202.8,198.6v-2.4h1.2c1,0,1.4,0.5,1.4,1.2s-0.4,1.2-1.4,1.2H202.8z M209,202.1c0.8,0,1.3-0.4,1.5-0.8l0,0
		v0.7h0.9v-3.3c0-1.4-1.1-1.7-1.9-1.7c-0.9,0-1.7,0.4-2,1.3l0.9,0.2c0.1-0.3,0.5-0.7,1.1-0.7s0.9,0.3,0.9,0.9l0,0
		c0,0.3-0.4,0.3-1.2,0.4c-0.9,0.1-1.9,0.4-1.9,1.5C207.3,201.5,208.1,202.1,209,202.1z M209.2,201.3c-0.5,0-0.9-0.2-0.9-0.7
		s0.5-0.7,1-0.8c0.3,0,1-0.1,1.2-0.3v0.6C210.5,200.8,210,201.3,209.2,201.3z M213.7,195.4h-1v6.6h1V195.4z M214.9,203.8h1v-2.6h0.1
		c0.2,0.3,0.5,0.9,1.4,0.9c1.2,0,2.1-1,2.1-2.5c0-1.6-0.9-2.5-2.1-2.5c-0.9,0-1.2,0.6-1.4,0.9h-0.1v-0.8H215v6.6H214.9z
		 M215.9,199.5c0-1,0.4-1.7,1.3-1.7c0.9,0,1.3,0.7,1.3,1.7s-0.4,1.7-1.3,1.7C216.3,201.2,215.9,200.5,215.9,199.5z M221.5,199
		c0-0.8,0.5-1.2,1.2-1.2s1.1,0.4,1.1,1.1v3h1v-3.1c0-1.2-0.7-1.9-1.7-1.9c-0.8,0-1.2,0.3-1.5,0.9h-0.1v-2.4h-0.9v6.6h1v-3H221.5z
		 M228.4,202h4.1v-0.9h-3.2v-2h2.9v-0.8h-2.9v-2h3.1v-0.9h-4.1L228.4,202L228.4,202z M235.6,202.1c0.9,0,1.2-0.5,1.4-0.9h0.1v0.8
		h0.9v-6.6h-1v2.4l0,0c-0.2-0.3-0.5-0.9-1.4-0.9c-1.2,0-2.1,0.9-2.1,2.5C233.5,201.1,234.4,202.1,235.6,202.1z M235.8,201.2
		c-0.9,0-1.3-0.8-1.3-1.7c0-1,0.4-1.7,1.3-1.7c0.8,0,1.3,0.7,1.3,1.7S236.6,201.2,235.8,201.2z M240.4,202h1l1-3.5h0.1l1,3.5h1
		l1.4-4.9h-1l-1,3.6l0,0l-1-3.6h-1l-1,3.6l0,0l-1-3.6h-1L240.4,202z M248.2,202.1c0.8,0,1.3-0.4,1.5-0.8l0,0v0.7h0.9v-3.3
		c0-1.4-1.1-1.7-1.9-1.7c-0.9,0-1.7,0.4-2,1.3l0.9,0.2c0.1-0.3,0.5-0.7,1.1-0.7s0.9,0.3,0.9,0.9l0,0c0,0.3-0.4,0.3-1.2,0.4
		c-0.9,0.1-1.9,0.4-1.9,1.5C246.6,201.5,247.3,202.1,248.2,202.1z M248.5,201.3c-0.5,0-0.9-0.2-0.9-0.7s0.5-0.7,1-0.8
		c0.3,0,1-0.1,1.2-0.3v0.6C249.7,200.8,249.2,201.3,248.5,201.3z M251.9,202h1v-3c0-0.6,0.5-1.1,1.2-1.1c0.2,0,0.4,0,0.5,0.1v-1
		c-0.1,0-0.3,0-0.4,0c-0.6,0-1.1,0.3-1.2,0.9h-0.1v-0.8H252v4.9H251.9z M257.1,202.1c0.9,0,1.2-0.5,1.4-0.9h0.1v0.8h0.9v-6.6h-1v2.4
		h-0.1c-0.2-0.3-0.5-0.9-1.4-0.9c-1.2,0-2.1,0.9-2.1,2.5C255,201.1,255.9,202.1,257.1,202.1z M257.3,201.2c-0.9,0-1.3-0.8-1.3-1.7
		c0-1,0.4-1.7,1.3-1.7c0.8,0,1.3,0.7,1.3,1.7C258.6,200.5,258.1,201.2,257.3,201.2z M264.6,198.3c-0.2-0.8-0.8-1.3-1.9-1.3
		s-1.9,0.6-1.9,1.5c0,0.7,0.4,1.2,1.3,1.4l0.8,0.2c0.5,0.1,0.7,0.3,0.7,0.6c0,0.4-0.4,0.7-1,0.7s-0.9-0.2-1.1-0.7l-0.9,0.1
		c0.2,0.9,0.9,1.4,2,1.4c1.2,0,2-0.6,2-1.5c0-0.7-0.4-1.1-1.3-1.3l-0.8-0.2c-0.5-0.1-0.8-0.3-0.8-0.6c0-0.4,0.4-0.6,1-0.6
		s0.9,0.3,1,0.7L264.6,198.3z"/>
	<path class="st8" d="M201.7,217.2h3.6v-0.6h-2.7l0,0l1.3-1.4c1-1.1,1.3-1.5,1.3-2.2c0-0.9-0.7-1.6-1.7-1.6s-1.8,0.7-1.8,1.7h0.7
		c0-0.7,0.4-1.1,1.1-1.1c0.6,0,1.1,0.4,1.1,1c0,0.5-0.3,0.9-1,1.6l-1.9,2.1L201.7,217.2L201.7,217.2z M206.2,216h2.7v1.2h0.7V216
		h0.8v-0.6h-0.8v-3.9h-0.8l-2.5,4L206.2,216L206.2,216z M208.9,215.4H207l0,0l1.9-3l0,0V215.4z M213.3,217.3c1.2,0,1.9-0.9,1.9-1.9
		c0-1.1-0.8-1.9-1.8-1.9c-0.6,0-1.1,0.3-1.4,0.8l0,0c0-1.4,0.5-2.2,1.4-2.2c0.6,0,1,0.4,1.1,0.9h0.7c-0.1-0.9-0.8-1.5-1.8-1.5
		c-1.3,0-2.1,1.1-2.1,3.2C211.3,216.6,212.4,217.2,213.3,217.3z M213.3,216.6c-0.7,0-1.2-0.6-1.2-1.3s0.6-1.3,1.3-1.3
		s1.2,0.6,1.2,1.3C214.6,216.1,214,216.6,213.3,216.6z M216.2,216h2.7v1.2h0.7V216h0.8v-0.6h-0.8v-3.9h-0.8l-2.5,4L216.2,216
		L216.2,216z M218.9,215.4h-2l0,0l1.9-3l0,0v3H218.9z M223.7,217.2h0.7V215h1.3c0.1,0,0.1,0,0.1,0l1.2,2.2h0.8l-1.3-2.4
		c0.7-0.2,1.1-0.8,1.1-1.6c0-1-0.6-1.8-1.9-1.8h-1.9v5.8H223.7z M224.4,214.3V212h1.2c0.9,0,1.3,0.5,1.3,1.1s-0.4,1.1-1.3,1.1
		L224.4,214.3L224.4,214.3z M230.4,217.3c1.2,0,1.9-0.9,1.9-2.2s-0.8-2.2-1.9-2.2c-1.2,0-1.9,0.9-1.9,2.2
		C228.4,216.4,229.2,217.3,230.4,217.3z M230.4,216.7c-0.9,0-1.3-0.8-1.3-1.6c0-0.9,0.4-1.6,1.3-1.6c0.9,0,1.3,0.8,1.3,1.6
		S231.3,216.7,230.4,216.7z M233.6,218.8c0.6,0,1-0.3,1.3-1l1.8-4.9H236l-1.2,3.4l0,0l-1.2-3.4h-0.7l1.6,4.3l-0.1,0.3
		c-0.2,0.7-0.5,0.7-1,0.6l-0.2,0.6C233.2,218.7,233.4,218.8,233.6,218.8z M238.7,217.3c0.8,0,1.1-0.4,1.3-0.7l0,0v0.6h0.7v-2.8
		c0-1.4-1-1.5-1.6-1.5s-1.4,0.2-1.7,1l0.6,0.2c0.1-0.3,0.5-0.7,1.1-0.7s0.9,0.3,0.9,0.9l0,0c0,0.3-0.3,0.3-1.1,0.4
		c-0.8,0.1-1.7,0.3-1.7,1.3C237.2,216.8,237.9,217.3,238.7,217.3z M238.8,216.7c-0.5,0-0.9-0.2-0.9-0.7s0.5-0.7,1-0.7
		c0.3,0,1-0.1,1.1-0.2v0.6C240,216.2,239.6,216.7,238.8,216.7z M242.5,211.4h-0.7v5.7h0.7V211.4z M246.1,217.2h3.4v-0.6h-2.7v-5.1
		h-0.7V217.2z M251.1,214.6c0-0.8,0.5-1.2,1.1-1.2s1,0.4,1,1.1v2.7h0.7v-2.7c0-1.1-0.6-1.6-1.5-1.6c-0.6,0-1.1,0.3-1.3,0.7H251v-0.7
		h-0.6v4.3h0.7L251.1,214.6L251.1,214.6z M255.5,217.2c0.3,0,0.5-0.2,0.5-0.5s-0.2-0.5-0.5-0.5s-0.5,0.2-0.5,0.5
		S255.2,217.2,255.5,217.2z M259.5,211.4v5.7h0.6v-4.4h0.1l1.8,4.4h0.6l1.8-4.4h0.1v4.4h0.7v-5.7h-0.8l-1.9,4.8h-0.1l-1.9-4.8H259.5
		z M268.2,217.3c0.9,0,1.5-0.4,1.7-1.1l-0.6-0.2c-0.2,0.4-0.6,0.7-1.1,0.7c-0.8,0-1.3-0.5-1.3-1.4h3.1V215c0-1.6-1-2.2-1.8-2.2
		c-1.2,0-1.9,0.9-1.9,2.2C266.2,216.4,267,217.3,268.2,217.3z M266.9,214.7c0-0.7,0.5-1.3,1.3-1.3c0.7,0,1.2,0.5,1.2,1.3H266.9z
		 M274.1,213.8c-0.2-0.6-0.7-1-1.5-1c-0.9,0-1.6,0.5-1.6,1.2c0,0.6,0.4,1,1.1,1.2l0.7,0.2c0.4,0.1,0.6,0.3,0.6,0.6
		c0,0.4-0.4,0.7-1,0.7c-0.5,0-0.9-0.2-1-0.7l-0.6,0.2c0.2,0.7,0.8,1.1,1.6,1.1c1,0,1.7-0.5,1.7-1.3c0-0.6-0.4-1-1.1-1.2l-0.6-0.2
		c-0.5-0.1-0.7-0.3-0.7-0.6c0-0.4,0.4-0.6,0.9-0.6c0.6,0,0.8,0.3,0.9,0.6L274.1,213.8z M276.4,217.3c0.8,0,1.1-0.4,1.3-0.7l0,0v0.6
		h0.7v-2.8c0-1.4-1-1.5-1.6-1.5s-1.4,0.2-1.7,1l0.6,0.2c0.1-0.3,0.5-0.7,1.1-0.7s0.9,0.3,0.9,0.9l0,0c0,0.3-0.3,0.3-1.1,0.4
		c-0.8,0.1-1.7,0.3-1.7,1.3C274.9,216.8,275.6,217.3,276.4,217.3z M276.5,216.7c-0.5,0-0.9-0.2-0.9-0.7s0.5-0.7,1-0.7
		c0.3,0,1-0.1,1.1-0.2v0.6C277.7,216.2,277.3,216.7,276.5,216.7z M280.6,216.4h-0.7v0.3c-0.1,0.8-0.2,1.5-0.3,1.9h0.5
		c0.1-0.4,0.4-1.2,0.5-1.9V216.4z M288.6,211.4H288v4.5h-0.1l-3.1-4.5h-0.7v5.7h0.7v-4.5h0.1l3.1,4.5h0.7v-5.7H288.6z M291.7,217.3
		c0.9,0,1.5-0.4,1.7-1.1l-0.6-0.2c-0.2,0.4-0.6,0.7-1.1,0.7c-0.8,0-1.3-0.5-1.3-1.4h3.1V215c0-1.6-1-2.2-1.8-2.2
		c-1.2,0-1.9,0.9-1.9,2.2C289.7,216.4,290.5,217.3,291.7,217.3z M290.4,214.7c0-0.7,0.5-1.3,1.3-1.3c0.7,0,1.2,0.5,1.2,1.3H290.4z
		 M295.5,217.2h0.6l0.9-3.3h0.1l0.9,3.3h0.6l1.3-4.3h-0.7l-0.9,3.3l0,0l-0.9-3.3h-0.7l-0.9,3.3l0,0l-0.9-3.3h-0.7L295.5,217.2z
		 M305.4,211.4v4.1c0,0.7-0.3,1.1-0.9,1.1c-0.5,0-0.9-0.3-0.9-0.8h-0.7c0,0.9,0.7,1.4,1.6,1.4c1,0,1.6-0.6,1.6-1.7v-4.1H305.4z
		 M309.2,217.3c0.9,0,1.5-0.4,1.7-1.1l-0.6-0.2c-0.2,0.4-0.6,0.7-1.1,0.7c-0.8,0-1.3-0.5-1.3-1.4h3.1V215c0-1.6-1-2.2-1.8-2.2
		c-1.2,0-1.9,0.9-1.9,2.2C307.2,216.4,308,217.3,309.2,217.3z M307.9,214.7c0-0.7,0.5-1.3,1.3-1.3c0.7,0,1.2,0.5,1.2,1.3H307.9z
		 M312,217.2h0.7v-2.7c0-0.6,0.5-1,1.1-1c0.2,0,0.4,0,0.4,0v-0.7c-0.1,0-0.2,0-0.3,0c-0.5,0-1,0.3-1.1,0.7l0,0v-0.6H312V217.2z
		 M318,213.8c-0.2-0.6-0.7-1-1.5-1c-0.9,0-1.6,0.5-1.6,1.2c0,0.6,0.4,1,1.1,1.2l0.7,0.2c0.4,0.1,0.6,0.3,0.6,0.6
		c0,0.4-0.4,0.7-1,0.7c-0.5,0-0.9-0.2-1-0.7l-0.6,0.2c0.2,0.7,0.8,1.1,1.6,1.1c1,0,1.7-0.5,1.7-1.3c0-0.6-0.4-1-1.1-1.2l-0.6-0.2
		c-0.5-0.1-0.7-0.3-0.7-0.6c0-0.4,0.4-0.6,0.9-0.6c0.6,0,0.8,0.3,0.9,0.6L318,213.8z M320.9,217.3c0.9,0,1.5-0.4,1.7-1.1L322,216
		c-0.2,0.4-0.6,0.7-1.1,0.7c-0.8,0-1.3-0.5-1.3-1.4h3.1V215c0-1.6-1-2.2-1.8-2.2c-1.2,0-1.9,0.9-1.9,2.2
		C318.9,216.4,319.6,217.3,320.9,217.3z M319.5,214.7c0-0.7,0.5-1.3,1.3-1.3c0.7,0,1.2,0.5,1.2,1.3H319.5z M324,218.8
		c0.6,0,1-0.3,1.3-1l1.8-4.9h-0.7l-1.2,3.4l0,0l-1.2-3.4h-0.7l1.6,4.3l-0.1,0.3c-0.2,0.7-0.5,0.7-1,0.6l-0.2,0.6
		C323.5,218.7,323.7,218.8,324,218.8z M328.6,216.4h-0.7v0.3c-0.1,0.8-0.2,1.5-0.3,1.9h0.5c0.1-0.4,0.4-1.2,0.5-1.9V216.4z
		 M330.9,216.4h-0.7v0.3c-0.1,0.8-0.2,1.5-0.3,1.9h0.5c0.1-0.4,0.4-1.2,0.5-1.9V216.4z M333.1,216.4h-0.7v0.3
		c-0.1,0.8-0.2,1.5-0.3,1.9h0.5c0.1-0.4,0.4-1.2,0.5-1.9V216.4z"/>
	<path class="st9" d="M382.5,198h-18c-5.9,0-10.7,4.8-10.7,10.7s4.8,10.7,10.7,10.7h18c5.9,0,10.7-4.8,10.7-10.7
		S388.4,198,382.5,198z"/>
	<path class="st10" d="M365.8,207.6h-0.7c-0.1-0.3-0.2-0.5-0.3-0.7c-0.2-0.2-0.4-0.3-0.6-0.4c-0.2-0.1-0.5-0.1-0.7-0.1
		c-0.3,0-0.7,0.1-0.9,0.3c-0.3,0.2-0.5,0.4-0.7,0.8c-0.2,0.3-0.2,0.8-0.2,1.3s0.1,0.9,0.2,1.3c0.2,0.3,0.4,0.6,0.7,0.8
		c0.3,0.2,0.6,0.3,0.9,0.3s0.5,0,0.7-0.1s0.4-0.2,0.6-0.4s0.3-0.4,0.3-0.7h0.7c-0.1,0.4-0.2,0.7-0.4,1c-0.2,0.3-0.5,0.5-0.8,0.6
		s-0.7,0.2-1.1,0.2c-0.5,0-0.9-0.1-1.3-0.4c-0.4-0.2-0.7-0.6-0.9-1c-0.2-0.4-0.3-1-0.3-1.6s0.1-1.1,0.3-1.6c0.2-0.4,0.5-0.8,0.9-1
		s0.8-0.4,1.3-0.4c0.4,0,0.7,0.1,1.1,0.2c0.3,0.1,0.6,0.4,0.8,0.6C365.6,206.9,365.7,207.2,365.8,207.6z M368.1,211.6
		c-0.3,0-0.5-0.1-0.7-0.2c-0.2-0.1-0.4-0.3-0.5-0.5s-0.2-0.4-0.2-0.7c0-0.2,0-0.4,0.1-0.6c0.1-0.2,0.2-0.3,0.4-0.4
		c0.2-0.1,0.3-0.2,0.5-0.2s0.4-0.1,0.6-0.1c0.3,0,0.5-0.1,0.6-0.1c0.2,0,0.3-0.1,0.4-0.1s0.1-0.1,0.1-0.2l0,0c0-0.3-0.1-0.5-0.2-0.6
		c-0.1-0.2-0.4-0.2-0.7-0.2c-0.3,0-0.6,0.1-0.7,0.2c-0.2,0.1-0.3,0.3-0.4,0.4l-0.6-0.2c0.1-0.3,0.3-0.5,0.4-0.6
		c0.2-0.1,0.4-0.3,0.6-0.3c0.2-0.1,0.4-0.1,0.7-0.1c0.1,0,0.3,0,0.5,0.1c0.2,0,0.4,0.1,0.5,0.2c0.2,0.1,0.3,0.3,0.4,0.5
		s0.2,0.5,0.2,0.8v2.8h-0.7V211l0,0c0,0.1-0.1,0.2-0.2,0.3s-0.2,0.2-0.4,0.3C368.6,211.6,368.4,211.6,368.1,211.6z M368.2,211
		c0.3,0,0.5-0.1,0.7-0.2c0.2-0.1,0.3-0.2,0.4-0.4s0.1-0.3,0.1-0.5v-0.6c0,0-0.1,0.1-0.2,0.1s-0.2,0-0.3,0.1c-0.1,0-0.2,0-0.4,0.1
		c-0.1,0-0.2,0-0.3,0c-0.2,0-0.3,0.1-0.5,0.1c-0.1,0-0.3,0.1-0.4,0.2c-0.1,0.1-0.1,0.2-0.1,0.4s0.1,0.4,0.3,0.5
		C367.7,211,367.9,211,368.2,211z M371.9,209v2.6h-0.7v-4.3h0.6v0.7h0.1c0.1-0.2,0.3-0.4,0.5-0.5s0.5-0.2,0.8-0.2
		c0.4,0,0.8,0.1,1.1,0.4c0.3,0.3,0.4,0.7,0.4,1.2v2.7H374v-2.7c0-0.3-0.1-0.6-0.3-0.8c-0.2-0.2-0.4-0.3-0.7-0.3
		c-0.3,0-0.6,0.1-0.8,0.3C372.1,208.3,371.9,208.6,371.9,209z M377.6,211.6c-0.4,0-0.8-0.1-1-0.3c-0.3-0.2-0.5-0.5-0.7-0.8
		s-0.2-0.7-0.2-1.1c0-0.4,0.1-0.8,0.2-1.2c0.2-0.3,0.4-0.6,0.7-0.8c0.3-0.2,0.6-0.3,1-0.3c0.3,0,0.6,0.1,0.8,0.2
		c0.2,0.1,0.4,0.3,0.6,0.5s0.2,0.4,0.3,0.7h-0.7c0-0.2-0.2-0.4-0.3-0.5c-0.2-0.2-0.4-0.2-0.7-0.2c-0.4,0-0.7,0.1-0.9,0.4
		c-0.2,0.3-0.4,0.7-0.4,1.2s0.1,0.9,0.4,1.2c0.2,0.3,0.5,0.4,0.9,0.4c0.3,0,0.5-0.1,0.7-0.2c0.2-0.1,0.3-0.3,0.4-0.6h0.7
		c0,0.3-0.1,0.5-0.3,0.7c-0.1,0.2-0.3,0.4-0.6,0.5C378.2,211.6,378,211.6,377.6,211.6z M382.1,211.6c-0.4,0-0.8-0.1-1.1-0.3
		c-0.3-0.2-0.5-0.4-0.7-0.8c-0.2-0.3-0.2-0.7-0.2-1.2c0-0.4,0.1-0.8,0.2-1.2c0.2-0.3,0.4-0.6,0.7-0.8c0.3-0.2,0.6-0.3,1-0.3
		c0.2,0,0.4,0,0.7,0.1c0.2,0.1,0.4,0.2,0.6,0.4s0.3,0.4,0.4,0.7s0.2,0.6,0.2,1v0.3h-3.1c0,0.5,0.1,0.8,0.4,1.1
		c0.2,0.2,0.6,0.4,1,0.4c0.3,0,0.5-0.1,0.7-0.2c0.2-0.1,0.3-0.3,0.4-0.5l0.6,0.2c-0.1,0.3-0.3,0.6-0.6,0.8
		C382.9,211.5,382.5,211.6,382.1,211.6z M380.8,209h2.4c0-0.4-0.1-0.7-0.3-0.9c-0.2-0.2-0.5-0.4-0.9-0.4c-0.3,0-0.5,0.1-0.7,0.2
		c-0.2,0.1-0.3,0.3-0.4,0.5S380.8,208.8,380.8,209z M385.6,205.8v5.7h-0.7v-5.7H385.6z"/>
	<path class="st11" d="M422.5,198h-7.3c-5.9,0-10.7,4.8-10.7,10.7s4.8,10.7,10.7,10.7h7.3c5.9,0,10.7-4.8,10.7-10.7
		S428.4,198,422.5,198z"/>
	<path class="st7" d="M412.1,211.5h-0.7l2.1-5.7h0.7l2.1,5.7h-0.7l-0.6-1.6h-2.3L412.1,211.5z M412.9,209.3h1.9l-0.9-2.6l0,0
		L412.9,209.3z M418.8,211.6c-0.4,0-0.7-0.1-0.9-0.3c-0.3-0.2-0.5-0.4-0.6-0.8c-0.2-0.3-0.2-0.7-0.2-1.2s0.1-0.8,0.2-1.2
		c0.2-0.3,0.4-0.6,0.6-0.8c0.3-0.2,0.6-0.3,1-0.3c0.3,0,0.5,0,0.7,0.1s0.3,0.2,0.4,0.3s0.2,0.2,0.2,0.3h0.1v-2.1h0.7v5.7h-0.6v-0.7
		H420c0,0.1-0.1,0.2-0.2,0.3s-0.2,0.2-0.4,0.3C419.2,211.6,419,211.6,418.8,211.6z M418.8,211c0.4,0,0.7-0.2,0.9-0.5
		c0.2-0.3,0.3-0.7,0.3-1.2s-0.1-0.9-0.3-1.2c-0.2-0.3-0.5-0.4-0.9-0.4c-0.3,0-0.5,0.1-0.7,0.2c-0.2,0.1-0.3,0.3-0.4,0.6
		c-0.1,0.2-0.1,0.5-0.1,0.8s0,0.6,0.1,0.8s0.2,0.4,0.4,0.6C418.3,211,418.6,211,418.8,211z M423.6,211.6c-0.4,0-0.7-0.1-0.9-0.3
		c-0.3-0.2-0.5-0.4-0.6-0.8c-0.2-0.3-0.2-0.7-0.2-1.2s0.1-0.8,0.2-1.2s0.4-0.6,0.6-0.8c0.3-0.2,0.6-0.3,1-0.3c0.3,0,0.5,0,0.7,0.1
		s0.3,0.2,0.4,0.3s0.2,0.2,0.2,0.3h0.1v-2.1h0.7v5.7H425v-0.7h-0.1c0,0.1-0.1,0.2-0.2,0.3s-0.2,0.2-0.4,0.3
		C424.1,211.6,423.9,211.6,423.6,211.6z M423.7,211c0.4,0,0.7-0.2,0.9-0.5c0.2-0.3,0.3-0.7,0.3-1.2s-0.1-0.9-0.3-1.2
		c-0.2-0.3-0.5-0.4-0.9-0.4c-0.3,0-0.5,0.1-0.7,0.2c-0.2,0.1-0.3,0.3-0.4,0.6c-0.1,0.2-0.1,0.5-0.1,0.8s0,0.6,0.1,0.8
		s0.2,0.4,0.4,0.6C423.2,211,423.5,211,423.7,211z"/>
	<path class="st6" d="M160,280.5h273.2"/>
	<path class="st7" d="M204,253.8c2,0,3.2-1.2,3.2-3.3c0-2-1.2-3.3-3.1-3.3h-2.2v6.6H204z M202.8,252.9v-4.8h1.1
		c1.4,0,2.2,0.9,2.2,2.4c0,1.6-0.7,2.4-2.2,2.4L202.8,252.9L202.8,252.9z M208.3,253.8h1v-4.9h-1V253.8z M208.7,248.1
		c0.3,0,0.6-0.3,0.6-0.6s-0.3-0.6-0.6-0.6s-0.6,0.3-0.6,0.6C208.1,247.9,208.4,248.1,208.7,248.1z M211.9,253.9
		c0.8,0,1.3-0.4,1.5-0.8l0,0v0.7h0.9v-3.3c0-1.4-1.1-1.7-1.9-1.7c-0.9,0-1.7,0.4-2,1.3l0.9,0.2c0.1-0.3,0.5-0.7,1.1-0.7
		s0.9,0.3,0.9,0.9l0,0c0,0.4-0.4,0.3-1.2,0.4c-0.9,0.1-1.9,0.4-1.9,1.5C210.3,253.4,211,253.9,211.9,253.9z M212.1,253.1
		c-0.5,0-0.9-0.2-0.9-0.7s0.5-0.7,1-0.8c0.3,0,1-0.1,1.2-0.3v0.6C213.4,252.6,212.9,253.1,212.1,253.1z M216.6,250.9
		c0-0.8,0.5-1.2,1.1-1.2s1,0.4,1,1.1v3h1v-3.1c0-1.2-0.7-1.9-1.7-1.9c-0.7,0-1.2,0.3-1.4,0.9h-0.1v-0.8h-0.9v4.9h1L216.6,250.9
		L216.6,250.9z M222,250.9c0-0.8,0.5-1.2,1.1-1.2c0.7,0,1,0.4,1,1.1v3h1v-3.1c0-1.2-0.7-1.9-1.7-1.9c-0.7,0-1.2,0.3-1.4,0.9h-0.1
		v-0.8H221v4.9h1V250.9z M228.5,253.9c1.1,0,1.8-0.5,2-1.3l-0.9-0.2c-0.2,0.5-0.6,0.7-1.1,0.7c-0.8,0-1.4-0.5-1.4-1.5h3.5v-0.3
		c0-1.8-1.1-2.5-2.2-2.5c-1.4,0-2.3,1-2.3,2.6C226.2,252.9,227.1,253.9,228.5,253.9z M227.1,250.9c0-0.7,0.5-1.3,1.3-1.3
		c0.7,0,1.2,0.6,1.2,1.3H227.1z M234.2,253.8h1v-2.5h1.3c0,0,0,0,0.1,0l1.3,2.5h1.1l-1.5-2.7c0.8-0.3,1.2-1,1.2-1.8
		c0-1.2-0.7-2.1-2.3-2.1h-2.3L234.2,253.8L234.2,253.8z M235.1,250.5v-2.4h1.2c1,0,1.4,0.5,1.4,1.2s-0.4,1.2-1.4,1.2H235.1z
		 M243,251.7c0,0.8-0.6,1.2-1.2,1.2c-0.6,0-1-0.4-1-1.1v-3h-1v3.1c0,1.2,0.7,1.9,1.6,1.9c0.7,0,1.2-0.4,1.5-0.9h0.1v0.9h0.9v-4.9h-1
		L243,251.7L243,251.7z M248.9,250.1c-0.2-0.8-0.8-1.3-1.9-1.3c-1.1,0-1.9,0.6-1.9,1.5c0,0.7,0.4,1.2,1.3,1.4l0.8,0.2
		c0.5,0.1,0.7,0.3,0.7,0.6c0,0.4-0.4,0.7-1,0.7s-0.9-0.2-1.1-0.7l-0.9,0.1c0.2,0.9,0.9,1.4,2,1.4c1.2,0,2-0.6,2-1.5
		c0-0.7-0.4-1.1-1.3-1.3l-0.8-0.2c-0.5-0.1-0.8-0.3-0.8-0.6c0-0.4,0.4-0.6,0.9-0.6c0.6,0,0.9,0.3,1,0.7L248.9,250.1z M253.8,250.1
		c-0.2-0.8-0.8-1.3-1.9-1.3c-1.1,0-1.9,0.6-1.9,1.5c0,0.7,0.4,1.2,1.3,1.4l0.8,0.2c0.5,0.1,0.7,0.3,0.7,0.6c0,0.4-0.4,0.7-1,0.7
		s-0.9-0.2-1.1-0.7l-0.9,0.1c0.2,0.9,0.9,1.4,2,1.4c1.2,0,2-0.6,2-1.5c0-0.7-0.4-1.1-1.3-1.3l-0.8-0.2c-0.5-0.1-0.8-0.3-0.8-0.6
		c0-0.4,0.4-0.6,1-0.6s0.9,0.3,1,0.7L253.8,250.1z M257,253.9c1.1,0,1.8-0.5,2-1.3l-0.9-0.2c-0.2,0.5-0.6,0.7-1.1,0.7
		c-0.8,0-1.4-0.5-1.4-1.5h3.5v-0.3c0-1.8-1.1-2.5-2.2-2.5c-1.4,0-2.3,1-2.3,2.6C254.7,252.9,255.6,253.9,257,253.9z M255.6,250.9
		c0-0.7,0.5-1.3,1.3-1.3c0.7,0,1.2,0.6,1.2,1.3H255.6z M261.2,247.2h-1v6.6h1V247.2z M263.4,247.2h-1v6.6h1V247.2z"/>
	<path class="st8" d="M201.6,267.8h2.7v1.2h0.7v-1.2h0.8v-0.6H205v-3.9h-0.8l-2.5,4L201.6,267.8L201.6,267.8z M204.3,267.2h-1.9l0,0
		l1.9-3l0,0V267.2z M208.7,263.3H208l-1.4,1v0.7l1.4-0.9l0,0v5h0.7V263.3z M210.2,267.8h2.7v1.2h0.7v-1.2h0.8v-0.6h-0.8v-3.9h-0.8
		l-2.5,4L210.2,267.8L210.2,267.8z M212.9,267.2H211l0,0l1.9-3l0,0V267.2z M217.3,269.1c1.3,0,2-1.1,2-2.9c0-1.9-0.7-2.9-2-2.9
		s-2,1.1-2,2.9S216,269.1,217.3,269.1z M217.3,268.5c-0.8,0-1.3-0.8-1.3-2.3s0.5-2.3,1.3-2.3s1.3,0.9,1.3,2.3
		S218.1,268.5,217.3,268.5z M222.7,269h0.7v-2.1h1.3c1.3,0,1.9-0.8,1.9-1.8s-0.6-1.8-1.9-1.8h-1.9v5.7H222.7z M223.4,266.3v-2.4h1.2
		c0.9,0,1.3,0.5,1.3,1.2s-0.4,1.2-1.3,1.2L223.4,266.3L223.4,266.3z M228.8,269.1c0.8,0,1.1-0.4,1.3-0.7l0,0v0.6h0.7v-2.8
		c0-1.4-1-1.5-1.6-1.5c-0.7,0-1.4,0.2-1.7,1l0.6,0.2c0.1-0.3,0.5-0.6,1.1-0.6s0.9,0.3,0.9,0.9l0,0c0,0.3-0.3,0.3-1.1,0.4
		s-1.7,0.3-1.7,1.3C227.4,268.6,228,269.1,228.8,269.1z M228.9,268.5c-0.5,0-0.9-0.2-0.9-0.7s0.5-0.7,1-0.7c0.3,0,1-0.1,1.1-0.2v0.6
		C230.2,268,229.7,268.5,228.9,268.5z M232,269h0.7v-2.7c0-0.6,0.5-1,1.1-1c0.2,0,0.4,0,0.4,0v-0.7c-0.1,0-0.2,0-0.3,0
		c-0.5,0-1,0.3-1.1,0.7l0,0v-0.6H232V269z M235,269h0.7v-1.6l0.5-0.4l1.6,2h0.8l-2-2.5l1.8-1.8h-0.8l-1.9,1.9h-0.1v-3.3H235V269z
		 M240.9,269.1c0.9,0,1.5-0.4,1.7-1.1l-0.6-0.2c-0.2,0.4-0.6,0.7-1.1,0.7c-0.8,0-1.3-0.5-1.3-1.4h3.1v-0.3c0-1.6-1-2.1-1.8-2.1
		c-1.2,0-1.9,0.9-1.9,2.2C238.9,268.2,239.6,269.1,240.9,269.1z M239.5,266.5c0-0.7,0.5-1.3,1.3-1.3c0.7,0,1.2,0.5,1.2,1.3H239.5z
		 M243.7,269h0.7v-2.7c0-0.6,0.5-1,1.1-1c0.2,0,0.4,0,0.4,0v-0.7c-0.1,0-0.2,0-0.3,0c-0.5,0-1,0.3-1.1,0.7l0,0v-0.6h-0.6v4.3H243.7z
		 M248.9,269h0.7v-2.2h1.3c0.1,0,0.1,0,0.1,0l1.2,2.2h0.8l-1.3-2.4c0.7-0.2,1.1-0.8,1.1-1.6c0-1-0.6-1.8-1.9-1.8H249v5.8H248.9z
		 M249.6,266.1v-2.3h1.2c0.9,0,1.3,0.5,1.3,1.1c0,0.7-0.4,1.1-1.3,1.1L249.6,266.1L249.6,266.1z M255.4,269.1c0.8,0,1.1-0.5,1.3-0.8
		h0.1v0.7h0.6v-5.7h-0.7v2.1h-0.1c-0.1-0.2-0.4-0.7-1.2-0.7c-1.1,0-1.8,0.9-1.8,2.2C253.6,268.2,254.4,269.1,255.4,269.1z
		 M255.5,268.5c-0.8,0-1.3-0.7-1.3-1.6s0.4-1.6,1.3-1.6c0.8,0,1.2,0.6,1.2,1.6C256.7,267.8,256.3,268.5,255.5,268.5z M259.2,269
		c0.3,0,0.5-0.2,0.5-0.5s-0.2-0.5-0.5-0.5s-0.5,0.2-0.5,0.5S258.9,269,259.2,269z M263.4,269l0.6-1.6h2.3l0.6,1.6h0.7l-2.1-5.7h-0.7
		l-2.1,5.7H263.4z M264.2,266.8l0.9-2.6l0,0l0.9,2.6H264.2z M269.1,263.3h-0.7v5.7h0.7V263.3z M271,263.3h-0.7v5.7h0.7V263.3z
		 M274,269.1c0.9,0,1.5-0.4,1.7-1.1l-0.6-0.2c-0.2,0.4-0.6,0.7-1.1,0.7c-0.8,0-1.3-0.5-1.3-1.4h3.1v-0.3c0-1.6-1-2.1-1.8-2.1
		c-1.2,0-1.9,0.9-1.9,2.2C272,268.2,272.7,269.1,274,269.1z M272.6,266.5c0-0.7,0.5-1.3,1.3-1.3c0.7,0,1.2,0.5,1.2,1.3H272.6z
		 M277.4,266.4c0-0.8,0.5-1.2,1.1-1.2s1,0.4,1,1.1v2.7h0.7v-2.7c0-1.1-0.6-1.6-1.5-1.6c-0.6,0-1.1,0.3-1.3,0.7h-0.1v-0.7h-0.6v4.3
		h0.7L277.4,266.4L277.4,266.4z M283.2,264.7h-0.9v-1h-0.7v1H281v0.6h0.6v2.7c0,0.8,0.6,1.1,1.2,1.1c0.2,0,0.4,0,0.5-0.1l-0.1-0.6
		c-0.1,0-0.1,0-0.3,0c-0.3,0-0.6-0.1-0.6-0.7v-2.5h0.9V264.7z M285.9,269.1c1.2,0,1.9-0.9,1.9-2.2c0-1.3-0.8-2.2-1.9-2.2
		c-1.2,0-1.9,0.9-1.9,2.2S284.8,269.1,285.9,269.1z M285.9,268.5c-0.9,0-1.3-0.8-1.3-1.6c0-0.9,0.4-1.6,1.3-1.6s1.3,0.8,1.3,1.6
		C287.2,267.7,286.8,268.5,285.9,268.5z M289.7,269h0.6l0.9-3.3h0.1l0.9,3.3h0.6l1.3-4.3h-0.7l-0.9,3.3l0,0l-0.9-3.3H291l-0.9,3.3
		l0,0l-0.9-3.3h-0.7L289.7,269z M295.8,266.4c0-0.8,0.5-1.2,1.1-1.2s1,0.4,1,1.1v2.7h0.7v-2.7c0-1.1-0.6-1.6-1.5-1.6
		c-0.6,0-1.1,0.3-1.3,0.7h-0.1v-0.7h-0.6v4.3h0.7L295.8,266.4L295.8,266.4z M300.7,268.2H300v0.3c-0.1,0.8-0.2,1.5-0.3,1.9h0.5
		c0.1-0.4,0.4-1.2,0.5-1.9V268.2z M308.8,263.3h-0.7v4.5H308l-3.1-4.5h-0.7v5.7h0.7v-4.5h0.1l3.1,4.5h0.7V263.3z M311.9,269.1
		c0.9,0,1.5-0.4,1.7-1.1l-0.6-0.2c-0.2,0.4-0.6,0.7-1.1,0.7c-0.8,0-1.3-0.5-1.3-1.4h3.1v-0.3c0-1.6-1-2.1-1.8-2.1
		c-1.2,0-1.9,0.9-1.9,2.2C309.9,268.2,310.7,269.1,311.9,269.1z M310.6,266.5c0-0.7,0.5-1.3,1.3-1.3c0.7,0,1.2,0.5,1.2,1.3H310.6z
		 M315.7,269h0.6l0.9-3.3h0.1l0.9,3.3h0.6l1.3-4.3h-0.7l-0.9,3.3l0,0l-0.9-3.3H317l-1,3.3l0,0l-0.9-3.3h-0.7L315.7,269z
		 M321.5,268.2h-0.7v0.3c-0.1,0.8-0.2,1.5-0.3,1.9h0.5c0.1-0.4,0.4-1.2,0.5-1.9V268.2z M323.7,268.2H323v0.3
		c-0.1,0.8-0.2,1.5-0.3,1.9h0.5c0.1-0.4,0.4-1.2,0.5-1.9V268.2z M325.9,268.2h-0.7v0.3c-0.1,0.8-0.2,1.5-0.3,1.9h0.5
		c0.1-0.4,0.4-1.2,0.5-1.9V268.2z"/>
	<path class="st9" d="M382.5,249.8h-18c-5.9,0-10.7,4.8-10.7,10.7s4.8,10.7,10.7,10.7h18c5.9,0,10.7-4.8,10.7-10.7
		C393.2,254.6,388.4,249.8,382.5,249.8z"/>
	<path class="st10" d="M365.8,259.4h-0.7c-0.1-0.3-0.2-0.5-0.3-0.7c-0.2-0.2-0.4-0.3-0.6-0.4s-0.5-0.1-0.7-0.1
		c-0.3,0-0.7,0.1-0.9,0.3c-0.3,0.2-0.5,0.4-0.7,0.8c-0.2,0.3-0.2,0.8-0.2,1.3s0.1,0.9,0.2,1.3c0.2,0.3,0.4,0.6,0.7,0.8
		c0.3,0.2,0.6,0.3,0.9,0.3s0.5,0,0.7-0.1s0.4-0.2,0.6-0.4c0.2-0.2,0.3-0.4,0.3-0.7h0.7c-0.1,0.4-0.2,0.7-0.4,1
		c-0.2,0.3-0.5,0.5-0.8,0.6s-0.7,0.2-1.1,0.2c-0.5,0-0.9-0.1-1.3-0.4c-0.4-0.2-0.7-0.6-0.9-1c-0.2-0.4-0.3-1-0.3-1.6
		s0.1-1.1,0.3-1.6c0.2-0.4,0.5-0.8,0.9-1s0.8-0.4,1.3-0.4c0.4,0,0.7,0.1,1.1,0.2c0.3,0.1,0.6,0.4,0.8,0.6
		C365.6,258.7,365.7,259,365.8,259.4z M368.1,263.5c-0.3,0-0.5-0.1-0.7-0.2s-0.4-0.3-0.5-0.5s-0.2-0.4-0.2-0.7c0-0.2,0-0.4,0.1-0.6
		s0.2-0.3,0.4-0.4c0.2-0.1,0.3-0.2,0.5-0.2s0.4-0.1,0.6-0.1c0.3,0,0.5-0.1,0.6-0.1c0.2,0,0.3,0,0.4-0.1c0.1,0,0.1-0.1,0.1-0.2l0,0
		c0-0.3-0.1-0.5-0.2-0.6c-0.1-0.2-0.4-0.2-0.7-0.2c-0.3,0-0.6,0.1-0.7,0.2c-0.2,0.1-0.3,0.3-0.4,0.4l-0.6-0.2
		c0.1-0.3,0.3-0.5,0.4-0.6c0.2-0.1,0.4-0.2,0.6-0.3c0.2-0.1,0.4-0.1,0.7-0.1c0.1,0,0.3,0,0.5,0s0.4,0.1,0.5,0.2
		c0.2,0.1,0.3,0.3,0.4,0.5s0.2,0.5,0.2,0.8v2.8h-0.7v-0.6l0,0c0,0.1-0.1,0.2-0.2,0.3c-0.1,0.1-0.2,0.2-0.4,0.3
		C368.6,263.4,368.4,263.5,368.1,263.5z M368.2,262.9c0.3,0,0.5-0.1,0.7-0.2s0.3-0.2,0.4-0.4c0.1-0.2,0.1-0.3,0.1-0.5v-0.6
		c0,0-0.1,0.1-0.2,0.1s-0.2,0.1-0.3,0.1c-0.1,0-0.2,0-0.4,0.1c-0.1,0-0.2,0-0.3,0c-0.2,0-0.3,0.1-0.5,0.1c-0.1,0-0.3,0.1-0.4,0.2
		s-0.1,0.2-0.1,0.4c0,0.2,0.1,0.4,0.3,0.5C367.7,262.8,367.9,262.9,368.2,262.9z M371.9,260.8v2.6h-0.7v-4.3h0.6v0.7h0.1
		c0.1-0.2,0.3-0.4,0.5-0.5s0.5-0.2,0.8-0.2c0.4,0,0.8,0.1,1.1,0.4c0.3,0.3,0.4,0.7,0.4,1.2v2.7H374v-2.7c0-0.3-0.1-0.6-0.3-0.8
		c-0.2-0.2-0.4-0.3-0.7-0.3c-0.3,0-0.6,0.1-0.8,0.3C372.1,260.1,371.9,260.4,371.9,260.8z M377.6,263.4c-0.4,0-0.8-0.1-1-0.3
		c-0.3-0.2-0.5-0.5-0.7-0.8s-0.2-0.7-0.2-1.1s0.1-0.8,0.2-1.2c0.2-0.3,0.4-0.6,0.7-0.8c0.3-0.2,0.6-0.3,1-0.3c0.3,0,0.6,0.1,0.8,0.2
		c0.2,0.1,0.4,0.3,0.6,0.5s0.2,0.4,0.3,0.7h-0.7c0-0.2-0.2-0.4-0.3-0.5c-0.2-0.2-0.4-0.2-0.7-0.2c-0.4,0-0.7,0.1-0.9,0.4
		c-0.2,0.3-0.4,0.7-0.4,1.2s0.1,0.9,0.4,1.2c0.2,0.3,0.5,0.4,0.9,0.4c0.3,0,0.5-0.1,0.7-0.2s0.3-0.3,0.4-0.6h0.7
		c0,0.3-0.1,0.5-0.3,0.7c-0.1,0.2-0.3,0.4-0.6,0.5C378.2,263.4,378,263.4,377.6,263.4z M382.1,263.4c-0.4,0-0.8-0.1-1.1-0.3
		c-0.3-0.2-0.5-0.4-0.7-0.8c-0.2-0.3-0.2-0.7-0.2-1.2c0-0.4,0.1-0.8,0.2-1.2c0.2-0.3,0.4-0.6,0.7-0.8c0.3-0.2,0.6-0.3,1-0.3
		c0.2,0,0.4,0,0.7,0.1c0.2,0.1,0.4,0.2,0.6,0.4c0.2,0.2,0.3,0.4,0.4,0.7c0.1,0.3,0.2,0.6,0.2,1v0.3h-3.1c0,0.5,0.1,0.8,0.4,1.1
		c0.2,0.2,0.6,0.4,1,0.4c0.3,0,0.5-0.1,0.7-0.2s0.3-0.3,0.4-0.5l0.6,0.2c-0.1,0.3-0.3,0.6-0.6,0.8
		C382.9,263.3,382.5,263.4,382.1,263.4z M380.8,260.9h2.4c0-0.4-0.1-0.7-0.3-0.9c-0.2-0.2-0.5-0.4-0.9-0.4c-0.3,0-0.5,0.1-0.7,0.2
		s-0.3,0.3-0.4,0.5C380.8,260.4,380.8,260.6,380.8,260.9z M385.6,257.6v5.7h-0.7v-5.7H385.6z"/>
	<path class="st11" d="M422.5,249.8h-7.3c-5.9,0-10.7,4.8-10.7,10.7s4.8,10.7,10.7,10.7h7.3c5.9,0,10.7-4.8,10.7-10.7
		C433.2,254.6,428.4,249.8,422.5,249.8z"/>
	<path class="st7" d="M412.1,263.4h-0.7l2.1-5.7h0.7l2.1,5.7h-0.7l-0.6-1.6h-2.3L412.1,263.4z M412.9,261.1h1.9l-0.9-2.6l0,0
		L412.9,261.1z M418.8,263.4c-0.4,0-0.7-0.1-0.9-0.3c-0.3-0.2-0.5-0.4-0.6-0.8c-0.2-0.3-0.2-0.7-0.2-1.2s0.1-0.8,0.2-1.2
		c0.2-0.3,0.4-0.6,0.6-0.8c0.3-0.2,0.6-0.3,1-0.3c0.3,0,0.5,0,0.7,0.1s0.3,0.2,0.4,0.3c0.1,0.1,0.2,0.2,0.2,0.3h0.1v-2.1h0.7v5.7
		h-0.6v-0.7H420c0,0.1-0.1,0.2-0.2,0.3c-0.1,0.1-0.2,0.2-0.4,0.3C419.2,263.4,419,263.4,418.8,263.4z M418.8,262.9
		c0.4,0,0.7-0.2,0.9-0.5c0.2-0.3,0.3-0.7,0.3-1.2s-0.1-0.9-0.3-1.2c-0.2-0.3-0.5-0.4-0.9-0.4c-0.3,0-0.5,0.1-0.7,0.2
		s-0.3,0.3-0.4,0.6c-0.1,0.2-0.1,0.5-0.1,0.8s0,0.6,0.1,0.8c0.1,0.2,0.2,0.4,0.4,0.6C418.3,262.8,418.6,262.9,418.8,262.9z
		 M423.6,263.4c-0.4,0-0.7-0.1-0.9-0.3c-0.3-0.2-0.5-0.4-0.6-0.8c-0.2-0.3-0.2-0.7-0.2-1.2s0.1-0.8,0.2-1.2c0.2-0.3,0.4-0.6,0.6-0.8
		c0.3-0.2,0.6-0.3,1-0.3c0.3,0,0.5,0,0.7,0.1s0.3,0.2,0.4,0.3c0.1,0.1,0.2,0.2,0.2,0.3h0.1v-2.1h0.7v5.7H425v-0.7h-0.1
		c0,0.1-0.1,0.2-0.2,0.3c-0.1,0.1-0.2,0.2-0.4,0.3C424.1,263.4,423.9,263.4,423.6,263.4z M423.7,262.9c0.4,0,0.7-0.2,0.9-0.5
		c0.2-0.3,0.3-0.7,0.3-1.2s-0.1-0.9-0.3-1.2c-0.2-0.3-0.5-0.4-0.9-0.4c-0.3,0-0.5,0.1-0.7,0.2s-0.3,0.3-0.4,0.6
		c-0.1,0.2-0.1,0.5-0.1,0.8s0,0.6,0.1,0.8c0.1,0.2,0.2,0.4,0.4,0.6C423.2,262.8,423.5,262.9,423.7,262.9z"/>
	<path class="st6" d="M160,332.4h273.2"/>
	<path class="st7" d="M204.4,299v4.6c0,0.8-0.4,1.2-1,1.2s-1-0.3-1-0.9h-1c0,1.1,0.8,1.7,1.9,1.7c1.2,0,2-0.7,2-2V299H204.4z
		 M208.2,305.7c0.8,0,1.3-0.4,1.5-0.8l0,0v0.7h0.9v-3.3c0-1.4-1.1-1.7-1.9-1.7c-0.9,0-1.7,0.4-2,1.3l0.9,0.2
		c0.1-0.3,0.5-0.7,1.1-0.7s0.9,0.3,0.9,0.9l0,0c0,0.3-0.4,0.3-1.2,0.4c-0.9,0.1-1.9,0.4-1.9,1.5
		C206.5,305.2,207.2,305.7,208.2,305.7z M208.4,304.9c-0.5,0-0.9-0.2-0.9-0.7s0.5-0.7,1-0.8c0.3,0,1-0.1,1.2-0.3v0.6
		C209.6,304.4,209.2,304.9,208.4,304.9z M212.8,302.7c0-0.8,0.5-1.2,1.1-1.2c0.7,0,1,0.4,1,1.1v3h1v-3.1c0-1.2-0.7-1.9-1.7-1.9
		c-0.7,0-1.2,0.3-1.4,0.9h-0.1v-0.8h-0.9v4.9h1L212.8,302.7L212.8,302.7z M219.4,305.7c1.1,0,1.8-0.5,2-1.3l-0.9-0.2
		c-0.2,0.5-0.6,0.7-1.1,0.7c-0.8,0-1.4-0.5-1.4-1.5h3.5v-0.3c0-1.8-1.1-2.5-2.2-2.5c-1.4,0-2.3,1-2.3,2.6
		C217,304.7,217.9,305.7,219.4,305.7z M218,302.7c0-0.7,0.5-1.3,1.3-1.3c0.7,0,1.2,0.5,1.2,1.3H218z M230.4,301.2
		c-0.2-1.4-1.3-2.2-2.7-2.2c-1.7,0-2.9,1.3-2.9,3.4s1.2,3.4,2.9,3.4c1.4,0,2.5-0.9,2.7-2.2h-1c-0.2,0.8-0.9,1.3-1.7,1.3
		c-1.1,0-2-0.9-2-2.5s0.8-2.5,2-2.5c0.8,0,1.5,0.5,1.7,1.3L230.4,301.2L230.4,301.2z M233.6,305.7c1.4,0,2.3-1,2.3-2.5
		s-0.9-2.5-2.3-2.5c-1.4,0-2.3,1-2.3,2.5S232.2,305.7,233.6,305.7z M233.6,304.9c-0.9,0-1.3-0.8-1.3-1.7c0-0.9,0.4-1.7,1.3-1.7
		c0.9,0,1.3,0.8,1.3,1.7C234.9,304.1,234.5,304.9,233.6,304.9z M239,305.7c1.4,0,2.3-1,2.3-2.5s-0.9-2.5-2.3-2.5
		c-1.4,0-2.3,1-2.3,2.5C236.8,304.7,237.7,305.7,239,305.7z M239.1,304.9c-0.9,0-1.3-0.8-1.3-1.7c0-0.9,0.4-1.7,1.3-1.7
		c0.9,0,1.3,0.8,1.3,1.7C240.4,304.1,239.9,304.9,239.1,304.9z M242.4,307.4h1v-2.6h0.1c0.2,0.3,0.5,0.9,1.4,0.9
		c1.2,0,2.1-1,2.1-2.5c0-1.6-0.9-2.5-2.1-2.5c-0.9,0-1.2,0.6-1.4,0.9h-0.1v-0.8h-0.9v6.6H242.4z M243.3,303.1c0-1,0.4-1.7,1.3-1.7
		c0.9,0,1.3,0.7,1.3,1.7s-0.4,1.7-1.3,1.7C243.8,304.9,243.3,304.2,243.3,303.1z M250.1,305.7c1.1,0,1.8-0.5,2-1.3l-0.9-0.2
		c-0.2,0.5-0.6,0.7-1.1,0.7c-0.8,0-1.4-0.5-1.4-1.5h3.5v-0.3c0-1.8-1.1-2.5-2.2-2.5c-1.4,0-2.3,1-2.3,2.6
		C247.7,304.7,248.6,305.7,250.1,305.7z M248.7,302.7c0-0.7,0.5-1.3,1.3-1.3c0.7,0,1.2,0.5,1.2,1.3H248.7z M253.3,305.6h1v-3
		c0-0.6,0.5-1.1,1.2-1.1c0.2,0,0.4,0,0.5,0.1v-0.9c-0.1,0-0.3,0-0.4,0c-0.6,0-1.1,0.3-1.2,0.9l0,0v-0.8h-0.9v4.8H253.3z"/>
	<path class="st8" d="M203.7,315.1H203l-1.4,1v0.7l1.4-0.9l0,0v5h0.7V315.1z M207.2,315c-1.2,0-1.9,0.9-1.9,1.9
		c0,1.1,0.8,1.9,1.8,1.9c0.6,0,1.1-0.3,1.4-0.8l0,0c0,1.4-0.5,2.2-1.4,2.2c-0.6,0-1-0.4-1.1-0.9h-0.7c0.1,0.9,0.8,1.5,1.8,1.5
		c1.3,0,2.1-1.1,2.1-3.2C209.2,315.6,208.1,315,207.2,315z M207.2,315.6c0.7,0,1.2,0.6,1.2,1.3c0,0.7-0.6,1.3-1.3,1.3
		s-1.2-0.6-1.2-1.3C206,316.2,206.5,315.6,207.2,315.6z M212.2,320.9c1.3,0,2-1.1,2-2.9c0-1.9-0.7-2.9-2-2.9s-2,1.1-2,2.9
		S210.9,320.9,212.2,320.9z M212.2,320.3c-0.8,0-1.3-0.8-1.3-2.3s0.5-2.3,1.3-2.3s1.3,0.9,1.3,2.3S213,320.3,212.2,320.3z
		 M217.2,315.1h-0.7l-1.4,1v0.7l1.4-0.9l0,0v5h0.7V315.1z M220.9,315.7h1.8v5.1h0.7v-5.1h1.8v-0.6h-4.3V315.7z M226.8,318.2
		c0-0.8,0.5-1.2,1.1-1.2s1,0.4,1,1.1v2.7h0.7v-2.7c0-1.1-0.6-1.6-1.5-1.6c-0.7,0-1.1,0.3-1.3,0.7h-0.1v-2.1H226v5.7h0.7v-2.6H226.8z
		 M232.6,320.9c1.2,0,1.9-0.9,1.9-2.2c0-1.3-0.8-2.2-1.9-2.2c-1.2,0-1.9,0.9-1.9,2.2C230.6,320,231.4,320.9,232.6,320.9z
		 M232.6,320.3c-0.9,0-1.3-0.8-1.3-1.6c0-0.9,0.4-1.6,1.3-1.6c0.9,0,1.3,0.8,1.3,1.6C233.9,319.5,233.5,320.3,232.6,320.3z
		 M235.5,320.8h0.7v-2.7c0-0.6,0.5-1,1.1-1c0.2,0,0.4,0,0.4,0v-0.7c-0.1,0-0.2,0-0.3,0c-0.5,0-1,0.3-1.1,0.7l0,0v-0.6h-0.6v4.3
		H235.5z M239.1,318.2c0-0.8,0.5-1.2,1.1-1.2s1,0.4,1,1.1v2.7h0.7v-2.7c0-1.1-0.6-1.6-1.5-1.6c-0.6,0-1.1,0.3-1.3,0.7H239v-0.7h-0.6
		v4.3h0.7L239.1,318.2L239.1,318.2z M243.1,320.8h0.7v-2.7c0-0.6,0.5-1,1.1-1c0.2,0,0.4,0,0.4,0v-0.7c-0.1,0-0.2,0-0.3,0
		c-0.5,0-1,0.3-1.1,0.7l0,0v-0.6h-0.6v4.3H243.1z M246,320.8h0.7v-4.3H246V320.8z M246.4,315.8c0.3,0,0.5-0.2,0.5-0.4
		c0-0.2-0.2-0.4-0.5-0.4s-0.5,0.2-0.5,0.4C245.9,315.6,246.1,315.8,246.4,315.8z M249.5,320.9c0.8,0,1.1-0.5,1.3-0.8h0.1v0.7h0.6
		v-5.7h-0.7v2.1h-0.1c-0.1-0.2-0.4-0.7-1.2-0.7c-1.1,0-1.8,0.9-1.8,2.2C247.7,320,248.4,320.9,249.5,320.9z M249.6,320.3
		c-0.8,0-1.3-0.7-1.3-1.6s0.4-1.6,1.3-1.6c0.8,0,1.2,0.6,1.2,1.6C250.8,319.6,250.4,320.3,249.6,320.3z M254.5,322.5
		c1,0,1.9-0.5,1.9-1.6v-4.4h-0.6v0.7h-0.1c-0.1-0.2-0.4-0.7-1.3-0.7c-1.1,0-1.8,0.9-1.8,2.2c0,1.3,0.8,2.1,1.8,2.1
		c0.8,0,1.1-0.5,1.3-0.7h0.1v0.9c0,0.7-0.5,1-1.2,1c-0.8,0-1.1-0.4-1.2-0.6l-0.5,0.4C253,322.1,253.6,322.5,254.5,322.5z
		 M254.5,320.1c-0.8,0-1.3-0.6-1.3-1.5s0.4-1.6,1.3-1.6c0.8,0,1.2,0.6,1.2,1.6S255.3,320.1,254.5,320.1z M259.4,320.9
		c0.9,0,1.5-0.4,1.7-1.1l-0.6-0.2c-0.2,0.4-0.6,0.7-1.1,0.7c-0.8,0-1.3-0.5-1.3-1.4h3.1v-0.3c0-1.6-1-2.1-1.8-2.1
		c-1.2,0-1.9,0.9-1.9,2.2C257.4,320,258.2,320.9,259.4,320.9z M258.1,318.3c0-0.7,0.5-1.3,1.3-1.3c0.7,0,1.2,0.5,1.2,1.3H258.1z
		 M269.1,316.9c-0.2-1.2-1.2-1.9-2.3-1.9c-1.5,0-2.5,1.1-2.5,2.9s1.1,2.9,2.5,2.9c1.2,0,2.1-0.7,2.3-1.9h-0.7
		c-0.2,0.8-0.9,1.2-1.6,1.2c-1,0-1.9-0.8-1.9-2.3s0.8-2.3,1.9-2.3c0.8,0,1.4,0.4,1.6,1.2h0.7V316.9z M270.1,320.8h0.7v-4.3h-0.7
		V320.8z M270.5,315.8c0.3,0,0.5-0.2,0.5-0.4c0-0.2-0.2-0.4-0.5-0.4s-0.5,0.2-0.5,0.4C270,315.6,270.2,315.8,270.5,315.8z
		 M272,320.8h0.7v-2.7c0-0.6,0.5-1,1.1-1c0.2,0,0.4,0,0.4,0v-0.7c-0.1,0-0.2,0-0.3,0c-0.5,0-1,0.3-1.1,0.7l0,0v-0.6H272V320.8z
		 M274.9,320.9c0.3,0,0.5-0.2,0.5-0.5s-0.2-0.5-0.5-0.5s-0.5,0.2-0.5,0.5C274.4,320.6,274.7,320.9,274.9,320.9z M282.1,316.5h0.7
		c0-0.9-0.8-1.5-1.9-1.5s-2,0.6-2,1.6c0,0.8,0.6,1.2,1.5,1.5l0.7,0.2c0.6,0.2,1.1,0.4,1.1,1s-0.6,1-1.4,1c-0.7,0-1.3-0.3-1.3-1h-0.7
		c0.1,0.9,0.8,1.6,2.1,1.6c1.3,0,2.1-0.7,2.1-1.7c0-1.1-1-1.4-1.6-1.6l-0.6-0.2c-0.4-0.1-1.1-0.3-1.1-1c0-0.5,0.5-1,1.3-1
		C281.5,315.6,282,315.9,282.1,316.5z M284.5,318.2c0-0.8,0.5-1.2,1.1-1.2s1,0.4,1,1.1v2.7h0.7v-2.7c0-1.1-0.6-1.6-1.5-1.6
		c-0.7,0-1.1,0.3-1.3,0.7h-0.1v-2.1h-0.7v5.7h0.7L284.5,318.2L284.5,318.2z M288.5,320.8h0.7v-4.3h-0.7V320.8z M288.9,315.8
		c0.3,0,0.5-0.2,0.5-0.4c0-0.2-0.2-0.4-0.5-0.4s-0.5,0.2-0.5,0.4C288.4,315.6,288.6,315.8,288.9,315.8z M291.1,315.1h-0.7v5.7h0.7
		V315.1z M294,320.9c1.2,0,1.9-0.9,1.9-2.2c0-1.3-0.8-2.2-1.9-2.2c-1.2,0-1.9,0.9-1.9,2.2S292.8,320.9,294,320.9z M294,320.3
		c-0.9,0-1.3-0.8-1.3-1.6c0-0.9,0.4-1.6,1.3-1.6s1.3,0.8,1.3,1.6S294.9,320.3,294,320.3z M297.6,318.2c0-0.8,0.5-1.2,1.1-1.2
		s1,0.4,1,1.1v2.7h0.7v-2.7c0-1.1-0.6-1.6-1.5-1.6c-0.7,0-1.1,0.3-1.3,0.7h-0.1v-2.1H297v5.7h0.7v-2.6H297.6z M302.6,320h-0.7v0.3
		c-0.1,0.8-0.2,1.5-0.3,1.9h0.5c0.1-0.4,0.4-1.2,0.5-1.9V320z M304.8,320h-0.7v0.3c-0.1,0.8-0.2,1.5-0.3,1.9h0.5
		c0.1-0.4,0.4-1.2,0.5-1.9V320z M307,320h-0.7v0.3c-0.1,0.8-0.2,1.5-0.3,1.9h0.5c0.1-0.4,0.4-1.2,0.5-1.9V320z"/>
	<path class="st9" d="M382.5,301.7h-18c-5.9,0-10.7,4.8-10.7,10.7s4.8,10.7,10.7,10.7h18c5.9,0,10.7-4.8,10.7-10.7
		S388.4,301.7,382.5,301.7z"/>
	<path class="st10" d="M365.8,311.2h-0.7c-0.1-0.3-0.2-0.5-0.3-0.7c-0.2-0.2-0.4-0.3-0.6-0.4s-0.5-0.1-0.7-0.1
		c-0.3,0-0.7,0.1-0.9,0.3c-0.3,0.2-0.5,0.4-0.7,0.8c-0.2,0.3-0.2,0.8-0.2,1.3s0.1,0.9,0.2,1.3c0.2,0.3,0.4,0.6,0.7,0.8
		c0.3,0.2,0.6,0.3,0.9,0.3s0.5,0,0.7-0.1s0.4-0.2,0.6-0.4c0.2-0.2,0.3-0.4,0.3-0.7h0.7c-0.1,0.4-0.2,0.7-0.4,1
		c-0.2,0.3-0.5,0.5-0.8,0.6s-0.7,0.2-1.1,0.2c-0.5,0-0.9-0.1-1.3-0.4c-0.4-0.2-0.7-0.6-0.9-1c-0.2-0.4-0.3-1-0.3-1.6
		s0.1-1.1,0.3-1.6c0.2-0.4,0.5-0.8,0.9-1s0.8-0.4,1.3-0.4c0.4,0,0.7,0.1,1.1,0.2c0.3,0.1,0.6,0.4,0.8,0.6
		C365.6,310.5,365.7,310.8,365.8,311.2z M368.1,315.3c-0.3,0-0.5-0.1-0.7-0.2s-0.4-0.3-0.5-0.5s-0.2-0.4-0.2-0.7
		c0-0.2,0-0.4,0.1-0.6s0.2-0.3,0.4-0.4c0.2-0.1,0.3-0.2,0.5-0.2s0.4-0.1,0.6-0.1c0.3,0,0.5-0.1,0.6-0.1c0.2,0,0.3,0,0.4-0.1
		c0.1,0,0.1-0.1,0.1-0.2l0,0c0-0.3-0.1-0.5-0.2-0.6c-0.1-0.2-0.4-0.2-0.7-0.2c-0.3,0-0.6,0.1-0.7,0.2c-0.2,0.1-0.3,0.3-0.4,0.4
		l-0.6-0.2c0.1-0.3,0.3-0.5,0.4-0.6c0.2-0.1,0.4-0.2,0.6-0.3c0.2-0.1,0.4-0.1,0.7-0.1c0.1,0,0.3,0,0.5,0.1c0.2,0,0.4,0.1,0.5,0.2
		c0.2,0.1,0.3,0.3,0.4,0.5s0.2,0.5,0.2,0.8v2.8h-0.7v-0.6l0,0c0,0.1-0.1,0.2-0.2,0.3c-0.1,0.1-0.2,0.2-0.4,0.3
		C368.6,315.2,368.4,315.3,368.1,315.3z M368.2,314.7c0.3,0,0.5-0.1,0.7-0.2s0.3-0.2,0.4-0.4c0.1-0.2,0.1-0.3,0.1-0.5V313
		c0,0-0.1,0.1-0.2,0.1s-0.2,0-0.3,0.1c-0.1,0-0.2,0-0.4,0.1c-0.1,0-0.2,0-0.3,0c-0.2,0-0.3,0.1-0.5,0.1c-0.1,0-0.3,0.1-0.4,0.2
		s-0.1,0.2-0.1,0.4c0,0.2,0.1,0.4,0.3,0.5C367.7,314.6,367.9,314.7,368.2,314.7z M371.9,312.6v2.6h-0.7v-4.3h0.6v0.7h0.1
		c0.1-0.2,0.3-0.4,0.5-0.5s0.5-0.2,0.8-0.2c0.4,0,0.8,0.1,1.1,0.4c0.3,0.3,0.4,0.7,0.4,1.2v2.7H374v-2.7c0-0.3-0.1-0.6-0.3-0.8
		c-0.2-0.2-0.4-0.3-0.7-0.3c-0.3,0-0.6,0.1-0.8,0.3C372.1,311.9,371.9,312.2,371.9,312.6z M377.6,315.3c-0.4,0-0.8-0.1-1-0.3
		c-0.3-0.2-0.5-0.5-0.7-0.8s-0.2-0.7-0.2-1.1s0.1-0.8,0.2-1.2c0.2-0.3,0.4-0.6,0.7-0.8c0.3-0.2,0.6-0.3,1-0.3c0.3,0,0.6,0.1,0.8,0.2
		c0.2,0.1,0.4,0.3,0.6,0.5s0.2,0.4,0.3,0.7h-0.7c0-0.2-0.2-0.4-0.3-0.5c-0.2-0.2-0.4-0.2-0.7-0.2c-0.4,0-0.7,0.1-0.9,0.4
		c-0.2,0.3-0.4,0.7-0.4,1.2s0.1,0.9,0.4,1.2c0.2,0.3,0.5,0.4,0.9,0.4c0.3,0,0.5-0.1,0.7-0.2s0.3-0.3,0.4-0.6h0.7
		c0,0.3-0.1,0.5-0.3,0.7c-0.1,0.2-0.3,0.4-0.6,0.5C378.2,315.2,378,315.3,377.6,315.3z M382.1,315.3c-0.4,0-0.8-0.1-1.1-0.3
		c-0.3-0.2-0.5-0.4-0.7-0.8c-0.2-0.3-0.2-0.7-0.2-1.2c0-0.4,0.1-0.8,0.2-1.2c0.2-0.3,0.4-0.6,0.7-0.8c0.3-0.2,0.6-0.3,1-0.3
		c0.2,0,0.4,0,0.7,0.1c0.2,0.1,0.4,0.2,0.6,0.4c0.2,0.2,0.3,0.4,0.4,0.7c0.1,0.3,0.2,0.6,0.2,1v0.3h-3.1c0,0.5,0.1,0.8,0.4,1.1
		c0.2,0.2,0.6,0.4,1,0.4c0.3,0,0.5-0.1,0.7-0.2s0.3-0.3,0.4-0.5l0.6,0.2c-0.1,0.3-0.3,0.6-0.6,0.8
		C382.9,315.2,382.5,315.3,382.1,315.3z M380.8,312.7h2.4c0-0.4-0.1-0.7-0.3-0.9c-0.2-0.2-0.5-0.4-0.9-0.4c-0.3,0-0.5,0.1-0.7,0.2
		s-0.3,0.3-0.4,0.5C380.8,312.2,380.8,312.5,380.8,312.7z M385.6,309.4v5.7h-0.7v-5.7H385.6z"/>
	<path class="st11" d="M422.5,301.7h-7.3c-5.9,0-10.7,4.8-10.7,10.7s4.8,10.7,10.7,10.7h7.3c5.9,0,10.7-4.8,10.7-10.7
		S428.4,301.7,422.5,301.7z"/>
	<path class="st7" d="M412.1,315.2h-0.7l2.1-5.7h0.7l2.1,5.7h-0.7l-0.6-1.6h-2.3L412.1,315.2z M412.9,312.9h1.9l-0.9-2.6l0,0
		L412.9,312.9z M418.8,315.3c-0.4,0-0.7-0.1-0.9-0.3c-0.3-0.2-0.5-0.4-0.6-0.8c-0.2-0.3-0.2-0.7-0.2-1.2s0.1-0.8,0.2-1.2
		c0.2-0.3,0.4-0.6,0.6-0.8c0.3-0.2,0.6-0.3,1-0.3c0.3,0,0.5,0,0.7,0.1s0.3,0.2,0.4,0.3c0.1,0.1,0.2,0.2,0.2,0.3h0.1v-2.1h0.7v5.7
		h-0.6v-0.7H420c0,0.1-0.1,0.2-0.2,0.3c-0.1,0.1-0.2,0.2-0.4,0.3C419.2,315.2,419,315.3,418.8,315.3z M418.8,314.7
		c0.4,0,0.7-0.2,0.9-0.5c0.2-0.3,0.3-0.7,0.3-1.2s-0.1-0.9-0.3-1.2c-0.2-0.3-0.5-0.4-0.9-0.4c-0.3,0-0.5,0.1-0.7,0.2
		s-0.3,0.3-0.4,0.6c-0.1,0.2-0.1,0.5-0.1,0.8s0,0.6,0.1,0.8c0.1,0.2,0.2,0.4,0.4,0.6C418.3,314.6,418.6,314.7,418.8,314.7z
		 M423.6,315.3c-0.4,0-0.7-0.1-0.9-0.3c-0.3-0.2-0.5-0.4-0.6-0.8c-0.2-0.3-0.2-0.7-0.2-1.2s0.1-0.8,0.2-1.2c0.2-0.3,0.4-0.6,0.6-0.8
		s0.6-0.3,1-0.3c0.3,0,0.5,0,0.7,0.1s0.3,0.2,0.4,0.3c0.1,0.1,0.2,0.2,0.2,0.3h0.1v-2.1h0.7v5.7H425v-0.7h-0.1
		c0,0.1-0.1,0.2-0.2,0.3c-0.1,0.1-0.2,0.2-0.4,0.3C424.1,315.2,423.9,315.3,423.6,315.3z M423.7,314.7c0.4,0,0.7-0.2,0.9-0.5
		c0.2-0.3,0.3-0.7,0.3-1.2s-0.1-0.9-0.3-1.2c-0.2-0.3-0.5-0.4-0.9-0.4c-0.3,0-0.5,0.1-0.7,0.2s-0.3,0.3-0.4,0.6
		c-0.1,0.2-0.1,0.5-0.1,0.8s0,0.6,0.1,0.8c0.1,0.2,0.2,0.4,0.4,0.6C423.2,314.6,423.5,314.7,423.7,314.7z"/>
	<path class="st12" d="M204.4,350.9v4.6c0,0.8-0.4,1.2-1,1.2s-1-0.3-1-0.9h-1c0,1.1,0.8,1.7,1.9,1.7c1.2,0,2-0.7,2-2v-4.6
		L204.4,350.9L204.4,350.9z M208.2,357.5c0.8,0,1.3-0.4,1.5-0.8l0,0v0.7h0.9v-3.3c0-1.4-1.1-1.7-1.9-1.7c-0.9,0-1.7,0.4-2,1.3
		l0.9,0.2c0.1-0.3,0.5-0.7,1.1-0.7s0.9,0.3,0.9,0.9l0,0c0,0.3-0.4,0.3-1.2,0.4c-0.9,0.1-1.9,0.4-1.9,1.5
		C206.5,357,207.2,357.5,208.2,357.5z M208.4,356.8c-0.5,0-0.9-0.2-0.9-0.7s0.5-0.7,1-0.8c0.3,0,1-0.1,1.2-0.3v0.6
		C209.6,356.2,209.2,356.8,208.4,356.8z M212.8,354.5c0-0.8,0.5-1.2,1.1-1.2c0.7,0,1,0.4,1,1.1v3h1v-3.1c0-1.2-0.7-1.9-1.7-1.9
		c-0.7,0-1.2,0.3-1.4,0.9h-0.1v-0.8h-0.9v4.9h1L212.8,354.5L212.8,354.5z M219.4,357.5c1.1,0,1.8-0.5,2-1.3l-0.9-0.2
		c-0.2,0.5-0.6,0.7-1.1,0.7c-0.8,0-1.4-0.5-1.4-1.5h3.5v-0.3c0-1.8-1.1-2.5-2.2-2.5c-1.4,0-2.3,1-2.3,2.6
		C217,356.5,217.9,357.5,219.4,357.5z M218,354.5c0-0.7,0.5-1.3,1.3-1.3c0.7,0,1.2,0.6,1.2,1.3H218z M230.4,353
		c-0.2-1.4-1.3-2.2-2.7-2.2c-1.7,0-2.9,1.3-2.9,3.4s1.2,3.4,2.9,3.4c1.4,0,2.5-0.9,2.7-2.2h-1c-0.2,0.8-0.9,1.3-1.7,1.3
		c-1.1,0-2-0.9-2-2.5s0.8-2.5,2-2.5c0.8,0,1.5,0.5,1.7,1.3L230.4,353L230.4,353z M233.6,357.5c1.4,0,2.3-1,2.3-2.5s-0.9-2.5-2.3-2.5
		c-1.4,0-2.3,1-2.3,2.5S232.2,357.5,233.6,357.5z M233.6,356.7c-0.9,0-1.3-0.8-1.3-1.7c0-0.9,0.4-1.7,1.3-1.7c0.9,0,1.3,0.8,1.3,1.7
		C234.9,355.9,234.5,356.7,233.6,356.7z M239,357.5c1.4,0,2.3-1,2.3-2.5s-0.9-2.5-2.3-2.5c-1.4,0-2.3,1-2.3,2.5
		C236.8,356.5,237.7,357.5,239,357.5z M239.1,356.7c-0.9,0-1.3-0.8-1.3-1.7c0-0.9,0.4-1.7,1.3-1.7c0.9,0,1.3,0.8,1.3,1.7
		C240.4,355.9,239.9,356.7,239.1,356.7z M242.4,359.3h1v-2.6h0.1c0.2,0.3,0.5,0.9,1.4,0.9c1.2,0,2.1-1,2.1-2.5
		c0-1.6-0.9-2.5-2.1-2.5c-0.9,0-1.2,0.6-1.4,0.9h-0.1v-0.8h-0.9v6.6H242.4z M243.3,355c0-1,0.4-1.7,1.3-1.7c0.9,0,1.3,0.7,1.3,1.7
		s-0.4,1.7-1.3,1.7C243.8,356.7,243.3,356,243.3,355z M250.1,357.5c1.1,0,1.8-0.5,2-1.3l-0.9-0.2c-0.2,0.5-0.6,0.7-1.1,0.7
		c-0.8,0-1.4-0.5-1.4-1.5h3.5v-0.3c0-1.8-1.1-2.5-2.2-2.5c-1.4,0-2.3,1-2.3,2.6C247.7,356.5,248.6,357.5,250.1,357.5z M248.7,354.5
		c0-0.7,0.5-1.3,1.3-1.3c0.7,0,1.2,0.6,1.2,1.3H248.7z M253.3,357.4h1v-3c0-0.6,0.5-1.1,1.2-1.1c0.2,0,0.4,0,0.5,0.1v-0.9
		c-0.1,0-0.3,0-0.4,0c-0.6,0-1.1,0.3-1.2,0.9l0,0v-0.8h-0.9v4.8H253.3z"/>
	<path class="st8" d="M203.7,366.9H203l-1.4,1v0.7l1.4-0.9l0,0v5h0.7V366.9z M207.2,366.8c-1.2,0-1.9,0.9-1.9,1.9
		c0,1.1,0.8,1.9,1.8,1.9c0.6,0,1.1-0.3,1.4-0.8l0,0c0,1.4-0.5,2.2-1.4,2.2c-0.6,0-1-0.4-1.1-0.9h-0.7c0.1,0.9,0.8,1.5,1.8,1.5
		c1.3,0,2.1-1.1,2.1-3.2C209.2,367.4,208.1,366.8,207.2,366.8z M207.2,367.4c0.7,0,1.2,0.6,1.2,1.3c0,0.7-0.6,1.3-1.3,1.3
		s-1.2-0.6-1.2-1.3C206,368,206.5,367.4,207.2,367.4z M212.2,372.7c1.3,0,2-1.1,2-2.9c0-1.9-0.7-2.9-2-2.9s-2,1.1-2,2.9
		S210.9,372.7,212.2,372.7z M212.2,372.1c-0.8,0-1.3-0.8-1.3-2.3s0.5-2.3,1.3-2.3s1.3,0.9,1.3,2.3S213,372.1,212.2,372.1z
		 M217.2,366.9h-0.7l-1.4,1v0.7l1.4-0.9l0,0v5h0.7V366.9z M220.9,367.5h1.8v5.1h0.7v-5.1h1.8v-0.6h-4.3V367.5z M226.8,370
		c0-0.8,0.5-1.2,1.1-1.2s1,0.4,1,1.1v2.7h0.7v-2.7c0-1.1-0.6-1.6-1.5-1.6c-0.7,0-1.1,0.3-1.3,0.7h-0.1v-2.1H226v5.7h0.7V370H226.8z
		 M232.6,372.7c1.2,0,1.9-0.9,1.9-2.2c0-1.3-0.8-2.2-1.9-2.2c-1.2,0-1.9,0.9-1.9,2.2C230.6,371.8,231.4,372.7,232.6,372.7z
		 M232.6,372.1c-0.9,0-1.3-0.8-1.3-1.6c0-0.9,0.4-1.6,1.3-1.6c0.9,0,1.3,0.8,1.3,1.6C233.9,371.4,233.5,372.1,232.6,372.1z
		 M235.5,372.6h0.7v-2.7c0-0.6,0.5-1,1.1-1c0.2,0,0.4,0,0.4,0v-0.7c-0.1,0-0.2,0-0.3,0c-0.5,0-1,0.3-1.1,0.7l0,0v-0.6h-0.6v4.3
		H235.5z M239.1,370c0-0.8,0.5-1.2,1.1-1.2s1,0.4,1,1.1v2.7h0.7v-2.7c0-1.1-0.6-1.6-1.5-1.6c-0.6,0-1.1,0.3-1.3,0.7H239v-0.7h-0.6
		v4.3h0.7L239.1,370L239.1,370z M243.1,372.6h0.7v-2.7c0-0.6,0.5-1,1.1-1c0.2,0,0.4,0,0.4,0v-0.7c-0.1,0-0.2,0-0.3,0
		c-0.5,0-1,0.3-1.1,0.7l0,0v-0.6h-0.6v4.3H243.1z M246,372.6h0.7v-4.3H246V372.6z M246.4,367.6c0.3,0,0.5-0.2,0.5-0.4
		c0-0.2-0.2-0.4-0.5-0.4s-0.5,0.2-0.5,0.4S246.1,367.6,246.4,367.6z M249.5,372.7c0.8,0,1.1-0.5,1.3-0.8h0.1v0.7h0.6v-5.7h-0.7v2.1
		h-0.1c-0.1-0.2-0.4-0.7-1.2-0.7c-1.1,0-1.8,0.9-1.8,2.2C247.7,371.8,248.4,372.7,249.5,372.7z M249.6,372.1c-0.8,0-1.3-0.7-1.3-1.6
		s0.4-1.6,1.3-1.6c0.8,0,1.2,0.6,1.2,1.6C250.8,371.4,250.4,372.1,249.6,372.1z M254.5,374.3c1,0,1.9-0.5,1.9-1.6v-4.4h-0.6v0.7
		h-0.1c-0.1-0.2-0.4-0.7-1.3-0.7c-1.1,0-1.8,0.9-1.8,2.2c0,1.3,0.8,2.1,1.8,2.1c0.8,0,1.1-0.5,1.3-0.7h0.1v0.9c0,0.7-0.5,1-1.2,1
		c-0.8,0-1.1-0.4-1.2-0.6l-0.5,0.4C253,373.9,253.6,374.3,254.5,374.3z M254.5,372c-0.8,0-1.3-0.6-1.3-1.5s0.4-1.6,1.3-1.6
		c0.8,0,1.2,0.6,1.2,1.6C255.7,371.4,255.3,372,254.5,372z M259.4,372.7c0.9,0,1.5-0.4,1.7-1.1l-0.6-0.2c-0.2,0.4-0.6,0.7-1.1,0.7
		c-0.8,0-1.3-0.5-1.3-1.4h3.1v-0.3c0-1.6-1-2.2-1.8-2.2c-1.2,0-1.9,0.9-1.9,2.2C257.4,371.8,258.2,372.7,259.4,372.7z M258.1,370.1
		c0-0.7,0.5-1.3,1.3-1.3c0.7,0,1.2,0.5,1.2,1.3H258.1z M269.1,368.7c-0.2-1.2-1.2-1.9-2.3-1.9c-1.5,0-2.5,1.1-2.5,2.9
		s1.1,2.9,2.5,2.9c1.2,0,2.1-0.7,2.3-1.9h-0.7c-0.2,0.8-0.9,1.2-1.6,1.2c-1,0-1.9-0.8-1.9-2.3s0.8-2.3,1.9-2.3
		c0.8,0,1.4,0.4,1.6,1.2h0.7V368.7z M270.1,372.6h0.7v-4.3h-0.7V372.6z M270.5,367.6c0.3,0,0.5-0.2,0.5-0.4c0-0.2-0.2-0.4-0.5-0.4
		s-0.5,0.2-0.5,0.4S270.2,367.6,270.5,367.6z M272,372.6h0.7v-2.7c0-0.6,0.5-1,1.1-1c0.2,0,0.4,0,0.4,0v-0.7c-0.1,0-0.2,0-0.3,0
		c-0.5,0-1,0.3-1.1,0.7l0,0v-0.6H272V372.6z M274.9,372.7c0.3,0,0.5-0.2,0.5-0.5s-0.2-0.5-0.5-0.5s-0.5,0.2-0.5,0.5
		C274.4,372.4,274.7,372.7,274.9,372.7z M282.1,368.3h0.7c0-0.9-0.8-1.5-1.9-1.5s-2,0.6-2,1.6c0,0.8,0.6,1.2,1.5,1.5l0.7,0.2
		c0.6,0.2,1.1,0.4,1.1,1s-0.6,1-1.4,1c-0.7,0-1.3-0.3-1.3-1h-0.7c0.1,0.9,0.8,1.6,2.1,1.6c1.3,0,2.1-0.7,2.1-1.7
		c0-1.1-1-1.4-1.6-1.6l-0.6-0.2c-0.4-0.1-1.1-0.3-1.1-1c0-0.5,0.5-1,1.3-1C281.5,367.4,282,367.8,282.1,368.3z M284.5,370
		c0-0.8,0.5-1.2,1.1-1.2s1,0.4,1,1.1v2.7h0.7v-2.7c0-1.1-0.6-1.6-1.5-1.6c-0.7,0-1.1,0.3-1.3,0.7h-0.1v-2.1h-0.7v5.7h0.7L284.5,370
		L284.5,370z M288.5,372.6h0.7v-4.3h-0.7V372.6z M288.9,367.6c0.3,0,0.5-0.2,0.5-0.4c0-0.2-0.2-0.4-0.5-0.4s-0.5,0.2-0.5,0.4
		S288.6,367.6,288.9,367.6z M291.1,366.9h-0.7v5.7h0.7V366.9z M294,372.7c1.2,0,1.9-0.9,1.9-2.2c0-1.3-0.8-2.2-1.9-2.2
		c-1.2,0-1.9,0.9-1.9,2.2C292.1,371.8,292.8,372.7,294,372.7z M294,372.1c-0.9,0-1.3-0.8-1.3-1.6c0-0.9,0.4-1.6,1.3-1.6
		s1.3,0.8,1.3,1.6C295.3,371.4,294.9,372.1,294,372.1z M297.6,370c0-0.8,0.5-1.2,1.1-1.2s1,0.4,1,1.1v2.7h0.7v-2.7
		c0-1.1-0.6-1.6-1.5-1.6c-0.7,0-1.1,0.3-1.3,0.7h-0.1v-2.1H297v5.7h0.7V370H297.6z M302.6,371.8h-0.7v0.3c-0.1,0.8-0.2,1.5-0.3,1.9
		h0.5c0.1-0.4,0.4-1.2,0.5-1.9V371.8z M304.8,371.8h-0.7v0.3c-0.1,0.8-0.2,1.5-0.3,1.9h0.5c0.1-0.4,0.4-1.2,0.5-1.9V371.8z
		 M307,371.8h-0.7v0.3c-0.1,0.8-0.2,1.5-0.3,1.9h0.5c0.1-0.4,0.4-1.2,0.5-1.9V371.8z"/>
	<path class="st9" d="M382.5,353.5h-18c-5.9,0-10.7,4.8-10.7,10.7s4.8,10.7,10.7,10.7h18c5.9,0,10.7-4.8,10.7-10.7
		S388.4,353.5,382.5,353.5z"/>
	<path class="st10" d="M365.8,363h-0.7c-0.1-0.3-0.2-0.5-0.3-0.7c-0.2-0.2-0.4-0.3-0.6-0.4s-0.5-0.1-0.7-0.1c-0.3,0-0.7,0.1-0.9,0.3
		c-0.3,0.2-0.5,0.4-0.7,0.8c-0.2,0.3-0.2,0.8-0.2,1.3s0.1,0.9,0.2,1.3c0.2,0.3,0.4,0.6,0.7,0.8c0.3,0.2,0.6,0.3,0.9,0.3
		s0.5,0,0.7-0.1s0.4-0.2,0.6-0.4c0.2-0.2,0.3-0.4,0.3-0.7h0.7c-0.1,0.4-0.2,0.7-0.4,1c-0.2,0.3-0.5,0.5-0.8,0.6s-0.7,0.2-1.1,0.2
		c-0.5,0-0.9-0.1-1.3-0.4c-0.4-0.2-0.7-0.6-0.9-1c-0.2-0.4-0.3-1-0.3-1.6s0.1-1.1,0.3-1.6c0.2-0.4,0.5-0.8,0.9-1s0.8-0.4,1.3-0.4
		c0.4,0,0.7,0.1,1.1,0.2c0.3,0.1,0.6,0.4,0.8,0.6C365.6,362.3,365.7,362.7,365.8,363z M368.1,367.1c-0.3,0-0.5-0.1-0.7-0.2
		s-0.4-0.3-0.5-0.5s-0.2-0.4-0.2-0.7c0-0.2,0-0.4,0.1-0.6s0.2-0.3,0.4-0.4c0.2-0.1,0.3-0.2,0.5-0.2s0.4-0.1,0.6-0.1
		c0.3,0,0.5-0.1,0.6-0.1c0.2,0,0.3,0,0.4-0.1c0.1,0,0.1-0.1,0.1-0.2l0,0c0-0.3-0.1-0.5-0.2-0.6c-0.1-0.2-0.4-0.2-0.7-0.2
		c-0.3,0-0.6,0.1-0.7,0.2c-0.2,0.1-0.3,0.3-0.4,0.4l-0.6-0.2c0.1-0.3,0.3-0.5,0.4-0.6c0.2-0.1,0.4-0.2,0.6-0.3
		c0.2-0.1,0.4-0.1,0.7-0.1c0.1,0,0.3,0,0.5,0.1c0.2,0,0.4,0.1,0.5,0.2c0.2,0.1,0.3,0.3,0.4,0.5s0.2,0.5,0.2,0.8v2.8h-0.7v-0.6l0,0
		c0,0.1-0.1,0.2-0.2,0.3c-0.1,0.1-0.2,0.2-0.4,0.3C368.6,367.1,368.4,367.1,368.1,367.1z M368.2,366.5c0.3,0,0.5-0.1,0.7-0.2
		s0.3-0.2,0.4-0.4c0.1-0.2,0.1-0.3,0.1-0.5v-0.6c0,0-0.1,0.1-0.2,0.1s-0.2,0-0.3,0.1c-0.1,0-0.2,0-0.4,0.1c-0.1,0-0.2,0-0.3,0
		c-0.2,0-0.3,0.1-0.5,0.1c-0.1,0-0.3,0.1-0.4,0.2s-0.1,0.2-0.1,0.4c0,0.2,0.1,0.4,0.3,0.5C367.7,366.4,367.9,366.5,368.2,366.5z
		 M371.9,364.4v2.6h-0.7v-4.3h0.6v0.7h0.1c0.1-0.2,0.3-0.4,0.5-0.5s0.5-0.2,0.8-0.2c0.4,0,0.8,0.1,1.1,0.4c0.3,0.3,0.4,0.7,0.4,1.2
		v2.7H374v-2.7c0-0.3-0.1-0.6-0.3-0.8c-0.2-0.2-0.4-0.3-0.7-0.3c-0.3,0-0.6,0.1-0.8,0.3C372.1,363.7,371.9,364,371.9,364.4z
		 M377.6,367.1c-0.4,0-0.8-0.1-1-0.3c-0.3-0.2-0.5-0.5-0.7-0.8s-0.2-0.7-0.2-1.1s0.1-0.8,0.2-1.2c0.2-0.3,0.4-0.6,0.7-0.8
		c0.3-0.2,0.6-0.3,1-0.3c0.3,0,0.6,0.1,0.8,0.2c0.2,0.1,0.4,0.3,0.6,0.5s0.2,0.4,0.3,0.7h-0.7c0-0.2-0.2-0.4-0.3-0.5
		c-0.2-0.2-0.4-0.2-0.7-0.2c-0.4,0-0.7,0.1-0.9,0.4c-0.2,0.3-0.4,0.7-0.4,1.2s0.1,0.9,0.4,1.2c0.2,0.3,0.5,0.4,0.9,0.4
		c0.3,0,0.5-0.1,0.7-0.2s0.3-0.3,0.4-0.6h0.7c0,0.3-0.1,0.5-0.3,0.7c-0.1,0.2-0.3,0.4-0.6,0.5C378.2,367,378,367.1,377.6,367.1z
		 M382.1,367.1c-0.4,0-0.8-0.1-1.1-0.3c-0.3-0.2-0.5-0.4-0.7-0.8c-0.2-0.3-0.2-0.7-0.2-1.2c0-0.4,0.1-0.8,0.2-1.2
		c0.2-0.3,0.4-0.6,0.7-0.8c0.3-0.2,0.6-0.3,1-0.3c0.2,0,0.4,0,0.7,0.1c0.2,0.1,0.4,0.2,0.6,0.4c0.2,0.2,0.3,0.4,0.4,0.7
		c0.1,0.3,0.2,0.6,0.2,1v0.3h-3.1c0,0.5,0.1,0.8,0.4,1.1c0.2,0.2,0.6,0.4,1,0.4c0.3,0,0.5-0.1,0.7-0.2s0.3-0.3,0.4-0.5l0.6,0.2
		c-0.1,0.3-0.3,0.6-0.6,0.8C382.9,367,382.5,367.1,382.1,367.1z M380.8,364.5h2.4c0-0.4-0.1-0.7-0.3-0.9c-0.2-0.2-0.5-0.4-0.9-0.4
		c-0.3,0-0.5,0.1-0.7,0.2s-0.3,0.3-0.4,0.5C380.8,364.1,380.8,364.3,380.8,364.5z M385.6,361.3v5.7h-0.7v-5.7H385.6z"/>
	<path class="st11" d="M422.5,353.5h-7.3c-5.9,0-10.7,4.8-10.7,10.7s4.8,10.7,10.7,10.7h7.3c5.9,0,10.7-4.8,10.7-10.7
		S428.4,353.5,422.5,353.5z"/>
	<path class="st7" d="M412.1,367h-0.7l2.1-5.7h0.7l2.1,5.7h-0.7l-0.6-1.6h-2.3L412.1,367z M412.9,364.7h1.9l-0.9-2.6l0,0
		L412.9,364.7z M418.8,367.1c-0.4,0-0.7-0.1-0.9-0.3c-0.3-0.2-0.5-0.4-0.6-0.8c-0.2-0.3-0.2-0.7-0.2-1.2s0.1-0.8,0.2-1.2
		c0.2-0.3,0.4-0.6,0.6-0.8c0.3-0.2,0.6-0.3,1-0.3c0.3,0,0.5,0,0.7,0.1s0.3,0.2,0.4,0.3c0.1,0.1,0.2,0.2,0.2,0.3h0.1v-2.1h0.7v5.7
		h-0.6v-0.7H420c0,0.1-0.1,0.2-0.2,0.3c-0.1,0.1-0.2,0.2-0.4,0.3C419.2,367,419,367.1,418.8,367.1z M418.8,366.5
		c0.4,0,0.7-0.2,0.9-0.5c0.2-0.3,0.3-0.7,0.3-1.2s-0.1-0.9-0.3-1.2c-0.2-0.3-0.5-0.4-0.9-0.4c-0.3,0-0.5,0.1-0.7,0.2
		s-0.3,0.3-0.4,0.6c-0.1,0.2-0.1,0.5-0.1,0.8s0,0.6,0.1,0.8c0.1,0.2,0.2,0.4,0.4,0.6C418.3,366.4,418.6,366.5,418.8,366.5z
		 M423.6,367.1c-0.4,0-0.7-0.1-0.9-0.3c-0.3-0.2-0.5-0.4-0.6-0.8c-0.2-0.3-0.2-0.7-0.2-1.2s0.1-0.8,0.2-1.2s0.4-0.6,0.6-0.8
		s0.6-0.3,1-0.3c0.3,0,0.5,0,0.7,0.1s0.3,0.2,0.4,0.3c0.1,0.1,0.2,0.2,0.2,0.3h0.1v-2.1h0.7v5.7H425v-0.7h-0.1
		c0,0.1-0.1,0.2-0.2,0.3c-0.1,0.1-0.2,0.2-0.4,0.3C424.1,367,423.9,367.1,423.6,367.1z M423.7,366.5c0.4,0,0.7-0.2,0.9-0.5
		c0.2-0.3,0.3-0.7,0.3-1.2s-0.1-0.9-0.3-1.2c-0.2-0.3-0.5-0.4-0.9-0.4c-0.3,0-0.5,0.1-0.7,0.2s-0.3,0.3-0.4,0.6
		c-0.1,0.2-0.1,0.5-0.1,0.8s0,0.6,0.1,0.8c0.1,0.2,0.2,0.4,0.4,0.6C423.2,366.4,423.5,366.5,423.7,366.5z"/>
	<path class="st13" d="M189.9,153.8c0-8.2-6.7-14.9-14.9-14.9s-14.9,6.7-14.9,14.9s6.7,14.9,14.9,14.9S189.9,162.1,189.9,153.8z"/>
	<path class="st13" d="M189.9,205.6c0-8.2-6.7-14.9-14.9-14.9s-14.9,6.7-14.9,14.9s6.7,14.9,14.9,14.9S189.9,213.9,189.9,205.6z"/>
	<path class="st13" d="M189.9,257.4c0-8.2-6.7-14.9-14.9-14.9s-14.9,6.7-14.9,14.9c0,8.2,6.7,14.9,14.9,14.9
		S189.9,265.7,189.9,257.4z"/>
	<path class="st13" d="M189.9,309.3c0-8.2-6.7-14.9-14.9-14.9s-15,6.6-15,14.9c0,8.2,6.7,14.9,14.9,14.9S189.9,317.5,189.9,309.3z"
		/>
	<path class="st13" d="M189.9,361.1c0-8.2-6.7-14.9-14.9-14.9s-14.9,6.7-14.9,14.9c0,8.2,6.7,14.9,14.9,14.9
		S189.9,369.3,189.9,361.1z"/>
	<path class="st7" d="M166.3,116h-1v4.8h-0.1L162,116h-0.9v6.6h1v-4.8h0.1l3.3,4.8h0.9V116H166.3z M169.8,122.7c1.1,0,1.8-0.5,2-1.3
		l-0.9-0.2c-0.2,0.5-0.6,0.7-1.1,0.7c-0.8,0-1.4-0.5-1.4-1.5h3.5V120c0-1.8-1.1-2.5-2.2-2.5c-1.4,0-2.3,1-2.3,2.6
		C167.5,121.7,168.4,122.7,169.8,122.7z M168.4,119.7c0-0.7,0.5-1.3,1.3-1.3c0.7,0,1.2,0.6,1.2,1.3H168.4z M174.1,122.6h1l1-3.5h0.1
		l1,3.5h1l1.4-4.9h-1l-1,3.6l0,0l-1-3.6h-1l-1,3.6l0,0l-1-3.6h-1L174.1,122.6z M187.1,116v4.2c0,0.9-0.6,1.5-1.6,1.5
		s-1.6-0.6-1.6-1.5V116h-1v4.3c0,1.4,1,2.4,2.6,2.4s2.6-1,2.6-2.4V116H187.1z M193.1,118.8c-0.2-0.8-0.8-1.3-1.9-1.3
		c-1.1,0-1.9,0.6-1.9,1.5c0,0.7,0.4,1.2,1.3,1.4l0.8,0.2c0.5,0.1,0.7,0.3,0.7,0.6c0,0.4-0.4,0.7-1,0.7s-0.9-0.2-1.1-0.7l-0.9,0.1
		c0.2,0.9,0.9,1.4,2,1.4c1.2,0,2-0.6,2-1.5c0-0.7-0.4-1.1-1.3-1.3l-0.8-0.2c-0.5-0.1-0.8-0.3-0.8-0.6c0-0.4,0.4-0.6,1-0.6
		s0.9,0.3,1,0.7L193.1,118.8z M196.4,122.7c1.1,0,1.8-0.5,2-1.3l-0.9-0.2c-0.2,0.5-0.6,0.7-1.1,0.7c-0.8,0-1.4-0.5-1.4-1.5h3.5V120
		c0-1.8-1.1-2.5-2.2-2.5c-1.4,0-2.3,1-2.3,2.6C194.1,121.7,195,122.7,196.4,122.7z M195,119.7c0-0.7,0.5-1.3,1.3-1.3
		c0.7,0,1.2,0.6,1.2,1.3H195z M199.6,122.6h1v-3c0-0.6,0.5-1.1,1.2-1.1c0.2,0,0.4,0,0.5,0.1v-0.9c-0.1,0-0.3,0-0.4,0
		c-0.6,0-1.1,0.3-1.2,0.9h-0.1v-0.8h-0.9v4.8H199.6z"/>
	<path class="st7" d="M421.3,120.9c0.9,0,1.7-0.8,1.7-1.7c0-0.9-0.8-1.7-1.7-1.7c-0.9,0-1.7,0.8-1.7,1.7
		C419.6,120.1,420.4,120.9,421.3,120.9z"/>
	<path class="st7" d="M426.4,120.9c0.9,0,1.7-0.8,1.7-1.7c0-0.9-0.8-1.7-1.7-1.7c-0.9,0-1.7,0.8-1.7,1.7
		C424.7,120.1,425.5,120.9,426.4,120.9z"/>
	<path class="st7" d="M431.5,120.9c0.9,0,1.7-0.8,1.7-1.7c0-0.9-0.8-1.7-1.7-1.7c-0.9,0-1.7,0.8-1.7,1.7S430.5,120.9,431.5,120.9z"
		/>
	
		<image style="overflow:visible;enable-background:new    ;" width="1020" height="947" xlink:href="24EA6BE87AE5ADC1.png"  transform="matrix(0.3435 0 0 0.3452 122.3282 83.114)">
	</image>
</g>
</svg>
